<svg xmlns="http://www.w3.org/2000/svg" width="400" height="338.302" viewBox="0 0 400 338.302">
  <g id="グループ_2371" data-name="グループ 2371" transform="translate(-13780.16 -3808.368)">
    <g id="Men_13" transform="translate(13903.462 3837.718)">
      <ellipse id="楕円形_388" data-name="楕円形 388" cx="19.587" cy="11.308" rx="19.587" ry="11.308" transform="translate(0 93.595)" fill="#d6d8e5" opacity="0.4"/>
      <path id="パス_4136" data-name="パス 4136" d="M11.86,451.62c1.338,1.088,3.306.095,3.4.2a62.343,62.343,0,0,0,4.929,4.1c.863.656,2.132,1.528,1.89,2.788-.414,2.244-4.014,1.554-5.378.863s-2.469-1.821-3.755-2.59c-.915-.57-1.813-.863-1.96-2.02C10.867,454.227,11.592,451.594,11.86,451.62Z" transform="translate(-1.501 -349.557)" fill="#2b2a30"/>
      <path id="パス_4137" data-name="パス 4137" d="M11,454.91c.181,1.1,1.07,1.416,1.977,1.977,1.312.811,2.46,1.985,3.815,2.667s4.385,1.269,5.266-.337c-.475,2.167-4.014,1.485-5.361.8s-2.469-1.821-3.755-2.59c-.915-.57-1.813-.863-1.96-2.02a3.108,3.108,0,0,1,.017-.5Z" transform="translate(-1.501 -350.007)" fill="#bf4b4b"/>
      <path id="パス_4138" data-name="パス 4138" d="M25.216,446.629c1.338,1.088,3.669-.095,3.772,0a51.773,51.773,0,0,0,4.394,3.979c.863.647,2.132,1.528,1.9,2.788-.423,2.244-4.023,1.554-5.378.863s-2.469-1.83-3.755-2.59c-.915-.57-1.821-.863-1.96-2.02A6.183,6.183,0,0,1,25.216,446.629Z" transform="translate(-3.308 -348.873)" fill="#2b2a30"/>
      <path id="パス_4139" data-name="パス 4139" d="M24.227,449.73c.181,1.1,1.07,1.416,1.977,1.977,1.312.811,2.46,1.985,3.815,2.676s4.385,1.26,5.266-.345c-.475,2.167-4.014,1.493-5.361.811s-2.46-1.83-3.746-2.633c-.924-.57-1.821-.863-1.968-2.02A3.107,3.107,0,0,1,24.227,449.73Z" transform="translate(-3.311 -349.298)" fill="#bf4b4b"/>
      <path id="_Контур_" data-name="&lt;Контур&gt;" d="M11.834,393.786c.069,2.02.691,10.79.975,15.426s.345,10.359.345,10.359-.8,3.375-1.321,7.355,0,16.513,0,16.513a3.168,3.168,0,0,0,3.453,0s2.141-10.039,3.125-14.563,1.165-7.13,1.675-9.927c.622-3.392,1.96-19.215,1.96-19.215h.535l1.433,17.86a19.993,19.993,0,0,0-.906,4.057c-.388,2.909.414,17.549.414,17.549a3.539,3.539,0,0,0,3.695-.155s3.565-19.388,3.565-22.332c0-1.959-.328-27.684-.328-27.684Z" transform="translate(-1.587 -340.996)" fill="#5856d6"/>
      <path id="_Контур_2" data-name="&lt;Контур&gt;" d="M17.081,349.35s.224,4.4.129,4.791-2.02,1.675-2.59,2.141,3.047,3.988,4.8,4.851,7.3-1.312,7.4-4.04-.95-5.015-1.8-5.136S17.081,349.35,17.081,349.35Z" transform="translate(-1.992 -335.569)" fill="#ffcea9"/>
      <path id="パス_4140" data-name="パス 4140" d="M31.388,357.965c.259-1.942-1.019-3.79.216-5.335,4.316,4.264,3.8,15.538,4.782,22.746,3.228,3.367,9.711,6.69,11.533,7.51.328.155.622.319.552.673a7.994,7.994,0,0,1-1.511,3.3c-4.316-1.847-7.381-2.909-12.741-8a11.73,11.73,0,0,1-1.355-1.787C31.336,372.475,30.947,361.314,31.388,357.965Z" transform="translate(-4.248 -336.017)" fill="#ffcea9"/>
      <path id="_Контур_3" data-name="&lt;Контур&gt;" d="M16.074,355.16s3.194,4.756,7.648,5.179c1.407-1.381,1.528-6.31-.414-7.89,0,0,1.787-1.442,3.013-1.165a6.345,6.345,0,0,1,2.78,3.539,28.935,28.935,0,0,1,1.571,10.186c-.078,4.67,0,18.939,0,18.939s-.622,3.013-4.653,5.257-7.027,2.469-9.763,1.83c-2.253-.527-4.118-1.321-4.894-2.952.207-3.28,1.666-11.818,1.122-15.935s-1.416-7.182-1.64-10.514.432-3.263,2.106-4.446a25.572,25.572,0,0,1,3.125-2.029Z" transform="translate(-1.477 -335.828)" fill="#f4f4f4"/>
      <path id="_Контур_4" data-name="&lt;Контур&gt;" d="M26.95,340.827h0c-.527-3.453-2.987-6.043-6.517-5.81a6.776,6.776,0,0,0-3.453,12.37,6.75,6.75,0,0,0,.544,1.493c1.243,1.459,5.015,2.357,6.094,2.2a3.228,3.228,0,0,0,2.831-2.27C27.624,346.1,27.252,342.51,26.95,340.827Z" transform="translate(-1.917 -333.606)" fill="#ffcea9"/>
      <path id="パス_4141" data-name="パス 4141" d="M16.812,347.166h0l.319-2.987s-2.46-6.3,3.323-5.084c3.8.8,4.748,1.148,5.9-1.4s-2.918-4.843-7.769-4.2a6.69,6.69,0,0,0-5.991,6.785C12.738,342.142,13.239,345.941,16.812,347.166Z" transform="translate(-1.723 -333.385)" fill="#2b2a30"/>
      <path id="パス_4142" data-name="パス 4142" d="M9.659,360.925c1.666-.475.4-.086,1.666-.475,4.316,4.256,3.807,11.559,4.791,18.766,2.4,3.979,11.3,9.331,11.3,9.331.112.768-.155.993-1.122,2.59A38.354,38.354,0,0,1,13.06,382.6c-.216-.2-.527-.259-.613-.526C10.919,377.447,9.219,364.283,9.659,360.925Z" transform="translate(-1.311 -337.087)" fill="#ffcea9"/>
      <path id="パス_4143" data-name="パス 4143" d="M52.276,371.31,45.81,393.426,31.61,399.1l5.179-21.546Z" transform="translate(-4.324 -338.572)" fill="#f4f4f4"/>
      <path id="パス_4144" data-name="パス 4144" d="M27.627,392.975c.207-.76.751-.57,1.373-.38a3.565,3.565,0,0,0,2.1.181,6.492,6.492,0,0,0,1.5-1.019,1.856,1.856,0,0,1,.95-.268,13.106,13.106,0,0,1-.328,1.312h3.453a.527.527,0,0,1,.492.863h.216c.63-.138.863.863.268.984l-.518.078c.414.164.518.863,0,.95h-.164a.672.672,0,0,1-.224,0h-.181a.544.544,0,0,1-.466.656c-1.519.2-3.755.8-5.128-.449a8.53,8.53,0,0,1-2.754-.742C27.394,394.727,27.368,393.872,27.627,392.975Z" transform="translate(-3.759 -341.332)" fill="#ffcea9"/>
      <path id="パス_4145" data-name="パス 4145" d="M45.549,390.644h.216a.518.518,0,0,1,.3-.941c.319,0,3.522-.673,3.522-.673l.388-1.312c0-.078.552.259.57.276a2.123,2.123,0,0,1,.967,1.6,3.453,3.453,0,0,1-.924,2.477,3.159,3.159,0,0,1-2.132.915,10.549,10.549,0,0,0-1.1.078.561.561,0,0,1-.6-.553h-.1a.407.407,0,0,1-.224,0h-.164a.489.489,0,0,1-.216-.915h-.527C44.841,391.654,44.9,390.636,45.549,390.644Z" transform="translate(-6.16 -340.815)" fill="#ffcea9"/>
      <path id="パス_4146" data-name="パス 4146" d="M32.889,360.669a3.453,3.453,0,0,0,2.313-1.036c-.121-1.64-2.21-7.847-6.422-8.313a7.846,7.846,0,0,1,2.59,3.177,41.883,41.883,0,0,1,1.519,6.172Z" transform="translate(-3.936 -335.838)" fill="#ededed"/>
      <path id="パス_4147" data-name="パス 4147" d="M8.692,369.875s4.187,1.45,7.139-.984c.328-.552-1.726-7.683-1.726-7.683s-1.726-3.643-4.506-2.193S8.692,369.875,8.692,369.875Z" transform="translate(-1.104 -336.844)" fill="#ededed"/>
    </g>
    <ellipse id="楕円形_412" data-name="楕円形 412" cx="105.046" cy="61.375" rx="105.046" ry="61.375" transform="translate(13970.069 4023.919)" fill="#d6d8e5" opacity="0.4"/>
    <g id="monitor" transform="translate(14068.692 3933.389)">
      <path id="パス_4301" data-name="パス 4301" d="M275.166,317.963l-21.184-12.25c-1.525-.879-1.335-2.42.422-3.438l13.72-7.925,26.714,15.422L281.113,317.7A6.562,6.562,0,0,1,275.166,317.963Z" transform="translate(-229.489 -178.195)" fill="#d6d8e5" opacity="0.4"/>
      <path id="パス_4302" data-name="パス 4302" d="M279.689,315.332,258.509,303.1c-1.529-.883-1.335-2.42.422-3.438l13.724-7.925,26.714,15.422-13.72,7.92A6.611,6.611,0,0,1,279.689,315.332Z" transform="translate(-232.103 -176.687)" fill="#b1b4c4"/>
      <path id="パス_4303" data-name="パス 4303" d="M354.973,327.147v-.807l-1.233.71Z" transform="translate(-287.703 -196.671)" fill="#b1b4c4"/>
      <path id="パス_4304" data-name="パス 4304" d="M257.48,314.069v-.819l1.267.524Z" transform="translate(-232.105 -189.111)" fill="#b1b4c4"/>
      <path id="パス_4305" data-name="パス 4305" d="M279.689,313.422l-21.18-12.229c-1.529-.883-1.335-2.425.422-3.443l13.724-7.92,26.714,15.422-13.724,7.92A6.615,6.615,0,0,1,279.689,313.422Z" transform="translate(-232.103 -175.584)" fill="#d6d8e5"/>
      <path id="パス_4306" data-name="パス 4306" d="M289.068,274.916,285.76,263.95l27.005,15.486,2.944,10.869Z" transform="translate(-248.439 -160.636)" fill="#9ea1af"/>
      <path id="パス_4307" data-name="パス 4307" d="M354.28,325.521l.786-.452-1.166-.929Z" transform="translate(-287.796 -195.401)" fill="#9ea1af"/>
      <path id="パス_4308" data-name="パス 4308" d="M287.053,275.89l-3.3-10.97,27.005,15.49,3.008,10.907Z" transform="translate(-247.278 -161.196)" fill="#b1b4c4"/>
      <path id="パス_4309" data-name="パス 4309" d="M307.3,167.978,202.773,107.627a6.353,6.353,0,0,1-2.653-5.069V21.7c0-1.956,1.187-2.856,2.653-2.006L307.3,80.044a6.345,6.345,0,0,1,2.657,5.069v80.859C309.957,167.928,308.77,168.823,307.3,167.978Z" transform="translate(-198.975 -19.373)" fill="#b1b4c4"/>
      <path id="パス_4310" data-name="パス 4310" d="M455.13,367.532l1.157-.667-.5-3.434Z" transform="translate(-346.264 -218.094)" fill="#b1b4c4"/>
      <path id="パス_4311" data-name="パス 4311" d="M199.67,20.409l1.141-.659,1.639.95s-1.745.266-1.787.258S199.67,20.409,199.67,20.409Z" transform="translate(-198.715 -19.591)" fill="#b1b4c4"/>
      <path id="パス_4312" data-name="パス 4312" d="M305.034,169.288,200.5,108.937a6.353,6.353,0,0,1-2.653-5.069V23.009c0-1.956,1.187-2.856,2.653-2.006L305.034,81.354a6.353,6.353,0,0,1,2.653,5.069v80.859C307.687,169.238,306.5,170.133,305.034,169.288Z" transform="translate(-197.664 -20.129)" fill="#e4e7f2"/>
      <path id="パス_4313" data-name="パス 4313" d="M307.251,86.675v80.868c0,1.96-1.191,2.86-2.657,2.006L200.063,109.19a6.353,6.353,0,0,1-2.653-5.069V23.262c0-1.956,1.187-2.851,2.653-2.006L304.594,81.606A6.357,6.357,0,0,1,307.251,86.675Z" transform="translate(-197.41 -20.276)" fill="#d6d8e5"/>
      <path id="パス_4314" data-name="パス 4314" d="M307.612,167,200.55,105.183l.059-79.216c0-.815.566-1.141,1.267-.735L306.408,85.578a2.818,2.818,0,0,1,1.267,2.205Z" transform="translate(-199.224 -22.656)" fill="#fff"/>
      <path id="パス_4315" data-name="パス 4315" d="M307.085,109.65l-94.913-54.8a2.572,2.572,0,0,1-1.081-2.061V45.937c0-.794.482-1.162,1.081-.815l94.913,54.788a2.6,2.6,0,0,1,1.081,2.066v6.852C308.166,109.625,307.68,110,307.085,109.65Z" transform="translate(-205.311 -34.169)" fill="#e9eaf2"/>
      <ellipse id="楕円形_413" data-name="楕円形 413" cx="1.698" cy="2.94" rx="1.698" ry="2.94" transform="translate(7.188 15.98) rotate(-30)" fill="#dadce5"/>
      <path id="パス_4316" data-name="パス 4316" d="M326.608,121.8l-8.208-4.744a.638.638,0,0,1-.27-.515v-1.086c0-.2.118-.291.27-.207l8.208,4.744a.638.638,0,0,1,.27.515v1.086C326.878,121.79,326.76,121.883,326.608,121.8Z" transform="translate(-267.136 -74.729)" fill="#dadce5"/>
      <path id="パス_4317" data-name="パス 4317" d="M358.068,140l-8.208-4.74a.642.642,0,0,1-.27-.515v-1.09c0-.2.118-.291.27-.2l8.208,4.74a.638.638,0,0,1,.27.515v1.09C358.338,140,358.212,140.069,358.068,140Z" transform="translate(-285.306 -85.245)" fill="#dadce5"/>
      <path id="パス_4318" data-name="パス 4318" d="M389.012,157.829l-8.212-4.74a.663.663,0,0,1-.27-.52v-1.086c0-.2.122-.291.27-.207l8.212,4.744a.638.638,0,0,1,.27.515v1.086C389.283,157.825,389.177,157.9,389.012,157.829Z" transform="translate(-303.177 -95.54)" fill="#dadce5"/>
      <path id="パス_4319" data-name="パス 4319" d="M420.472,176.013l-8.212-4.74a.655.655,0,0,1-.27-.515v-1.081c0-.2.122-.291.27-.2l8.212,4.74a.646.646,0,0,1,.27.515v1.09C420.743,176.013,420.62,176.1,420.472,176.013Z" transform="translate(-321.347 -106.049)" fill="#dadce5"/>
      <path id="パス_4320" data-name="パス 4320" d="M389.372,196.915,367.06,184.031a2.581,2.581,0,0,1-1.06-2.04V167.569c0-.794.482-1.157,1.077-.815l22.312,12.88a2.6,2.6,0,0,1,1.081,2.066v14.4C390.454,196.894,389.968,197.257,389.372,196.915Z" transform="translate(-294.785 -104.423)" fill="#e9eaf2"/>
      <path id="パス_4321" data-name="パス 4321" d="M274.5,199.761l-55.966-32.315a1.3,1.3,0,0,1-.541-1.031v-2.48c0-.4.245-.579.541-.422L274.5,195.824a1.288,1.288,0,0,1,.541,1.031v2.48C275.021,199.749,274.8,199.93,274.5,199.761Z" transform="translate(-209.297 -102.594)" fill="#e9eaf2"/>
      <path id="パス_4322" data-name="パス 4322" d="M269.214,212.289l-50.293-29.041a1.288,1.288,0,0,1-.541-1.031v-1.233c0-.4.241-.583.541-.422L269.214,209.6a1.3,1.3,0,0,1,.541,1.031v1.233C269.755,212.276,269.51,212.462,269.214,212.289Z" transform="translate(-209.522 -112.439)" fill="#e9eaf2"/>
      <path id="パス_4323" data-name="パス 4323" d="M269.214,223.367l-50.293-29.033a1.3,1.3,0,0,1-.541-1.035v-1.233c0-.4.241-.579.541-.422l50.293,29.033a1.31,1.31,0,0,1,.541,1.035v1.233C269.755,223.359,269.51,223.54,269.214,223.367Z" transform="translate(-209.522 -118.841)" fill="#e9eaf2"/>
      <path id="パス_4324" data-name="パス 4324" d="M256.355,227.023l-37.435-21.615a1.288,1.288,0,0,1-.541-1.031v-1.233c0-.4.241-.583.541-.422l37.435,21.628a1.267,1.267,0,0,1,.541,1.031v1.233C256.9,227.01,256.66,227.192,256.355,227.023Z" transform="translate(-209.522 -125.238)" fill="#e9eaf2"/>
      <path id="パス_4325" data-name="パス 4325" d="M389.89,230.265,366.5,216.748a1.288,1.288,0,0,1-.541-1.031v-1.233c0-.4.241-.583.541-.422l23.389,13.517a1.293,1.293,0,0,1,.541,1.035v1.233C390.431,230.257,390.19,230.438,389.89,230.265Z" transform="translate(-294.761 -131.788)" fill="#e9eaf2"/>
      <path id="パス_4326" data-name="パス 4326" d="M389.89,241.342,366.5,227.824a1.292,1.292,0,0,1-.541-1.035v-1.233c0-.4.241-.579.541-.422l23.389,13.517a1.288,1.288,0,0,1,.541,1.031v1.233C390.431,241.329,390.19,241.519,389.89,241.342Z" transform="translate(-294.761 -138.184)" fill="#e9eaf2"/>
      <path id="パス_4327" data-name="パス 4327" d="M383.765,248.9,366.5,238.928a1.288,1.288,0,0,1-.541-1.031v-1.233c0-.4.241-.583.541-.422l17.264,10a1.293,1.293,0,0,1,.541,1.035v1.229C384.306,248.888,384.065,249.07,383.765,248.9Z" transform="translate(-294.761 -144.599)" fill="#e9eaf2"/>
      <path id="パス_4328" data-name="パス 4328" d="M389.372,282.262,367.06,269.378a2.581,2.581,0,0,1-1.06-2.061v-14.4c0-.794.482-1.162,1.077-.815l22.312,12.88a2.6,2.6,0,0,1,1.081,2.066v14.4C390.454,282.241,389.968,282.6,389.372,282.262Z" transform="translate(-294.785 -153.717)" fill="#e9eaf2"/>
      <path id="パス_4329" data-name="パス 4329" d="M389.89,315.615,366.5,302.1a1.288,1.288,0,0,1-.541-1.031v-1.233c0-.4.241-.583.541-.422l23.389,13.517a1.292,1.292,0,0,1,.541,1.035V315.2C390.431,315.607,390.19,315.788,389.89,315.615Z" transform="translate(-294.761 -181.085)" fill="#e9eaf2"/>
      <path id="パス_4330" data-name="パス 4330" d="M377.879,196.051l-1.567-4.034-2.851,4.055,3.13,1.808,2.573,1.487,5.736,3.312-4.152-10.708Z" transform="translate(-299.093 -119.062)" fill="#dadce5"/>
      <ellipse id="楕円形_414" data-name="楕円形 414" cx="1.525" cy="2.644" rx="1.525" ry="2.644" transform="translate(87.702 75.651) rotate(-30)" fill="#dadce5"/>
      <path id="パス_4331" data-name="パス 4331" d="M378.264,282.661l-1.563-4.034-2.851,4.055,3.13,1.808,2.573,1.483,5.736,3.312-4.157-10.7Z" transform="translate(-299.319 -169.086)" fill="#dadce5"/>
      <ellipse id="楕円形_415" data-name="楕円形 415" cx="1.53" cy="2.653" rx="1.53" ry="2.653" transform="translate(88.547 112.709) rotate(-29.887)" fill="#dadce5"/>
      <path id="パス_4332" data-name="パス 4332" d="M274.763,143.787l-54.222-31.149a2.315,2.315,0,0,1-.972-1.85V85.523c0-.71.422-1.039.972-.731l54.222,31.149a2.323,2.323,0,0,1,.967,1.85v25.265C275.73,143.77,275.3,144.1,274.763,143.787Z" transform="translate(-210.209 -57.091)" fill="#e9eaf2"/>
      <path id="パス_4333" data-name="パス 4333" d="M247.2,139.758l-2.678-6.9L239.65,139.8,245,142.884l4.4,2.539,9.809,5.665L252.1,132.78Z" transform="translate(-221.807 -84.875)" fill="#dadce5"/>
      <ellipse id="楕円形_416" data-name="楕円形 416" cx="2.611" cy="4.52" rx="2.611" ry="4.52" transform="translate(50.599 59.777) rotate(-30)" fill="#dadce5"/>
    </g>
    <ellipse id="楕円形_411" data-name="楕円形 411" cx="75.696" cy="44.111" rx="75.696" ry="44.111" transform="translate(13780.16 4010.971)" fill="#d6d8e5" opacity="0.4"/>
    <g id="グループ_2366" data-name="グループ 2366" transform="translate(14068.526 4090.44) rotate(120)">
      <path id="パス_4234" data-name="パス 4234" d="M35.76,24.913.646,4.694A1.3,1.3,0,0,1,.7,2.419L5.117.144a1.3,1.3,0,0,1,1.24.028l36.294,20.9a1.3,1.3,0,0,1-.052,2.275L39.4,25a3.791,3.791,0,0,1-3.639-.084Z" transform="translate(0 92.418)" fill="#d6d8e5" opacity="0.4"/>
      <path id="パス_4235" data-name="パス 4235" d="M34.491,113.524,4.571,96.249C2.035,94.785,0,90.863,0,87.483V4.018C0,.639,2.055-.912,4.591.551l29.92,17.275c2.535,1.464,4.591,5.387,4.591,8.766v83.465C39.081,113.436,37.026,114.988,34.491,113.524Z" transform="translate(3.422 0)" fill="#b1b4c4"/>
      <path id="パス_4236" data-name="パス 4236" d="M0,5.1,2.371,3.9.1,0Z" transform="translate(38.428 109.933)" fill="#b1b4c4"/>
      <path id="パス_4237" data-name="パス 4237" d="M0,1.144,2.183,0l-.44,3.215Z" transform="translate(2.938 0.239)" fill="#b1b4c4"/>
      <path id="パス_4238" data-name="パス 4238" d="M34.511,113.528,4.591,96.252C2.055,94.789,0,90.862,0,87.483V4.022C0,.642,2.055-.913,4.591.551l29.92,17.275c2.535,1.464,4.591,5.391,4.591,8.77v83.461C39.117,113.436,37.046,114.991,34.511,113.528Z" transform="translate(1.494 0.952)" fill="#616e84"/>
      <path id="パス_4239" data-name="パス 4239" d="M39.1,26.594v83.461c0,3.383-2.051,4.935-4.587,3.471l-11.737-6.774-3.647-2.107-14.54-8.4C2.051,94.784,0,90.861,0,87.478V4.02C0,.637,2.051-.91,4.587.549L34.511,17.825C37.034,19.288,39.1,23.211,39.1,26.594Z" transform="translate(1.178 1.165)" fill="#20232d"/>
      <path id="パス_4240" data-name="パス 4240" d="M34.775,22.376v81.29c0,2.047-1.436,2.879-3.2,1.852l-9.353-5.4-.828-.476-.276-.164-2.031-1.156-5.854-3.371h0l-2.427-1.4-.976-.564L3.2,89.162A7.093,7.093,0,0,1,0,83.6V2.294C0,.246,1.436-.586,3.2.438L14.872,7.184v.032a5.531,5.531,0,0,0,2.507,4.331c1.384.8,2.5.148,2.5-1.444v-.036l11.685,6.746A7.125,7.125,0,0,1,34.775,22.376Z" transform="translate(3.345 4.536)" fill="#fff"/>
      <ellipse id="楕円形_393" data-name="楕円形 393" cx="0.778" cy="1.344" rx="0.778" ry="1.344" transform="translate(19.715 13.55) rotate(-29.887)" fill="#2b303f"/>
      <path id="パス_4241" data-name="パス 4241" d="M.4.973A.884.884,0,0,1,0,.285C0,.029.18-.071.4.053A.88.88,0,0,1,.8.745C.8,1,.62,1.1.4.973Z" transform="translate(20.328 13.567)" fill="#fff" opacity="0.1"/>
      <path id="パス_4242" data-name="パス 4242" d="M.444,4.79h0C.2,4.934,0,4.79,0,4.458V.9A1.056,1.056,0,0,1,.444.056h0c.244-.144.44,0,.44.332V3.947A1.052,1.052,0,0,1,.444,4.79Z" transform="translate(41.047 33.95)" fill="#757b89"/>
      <path id="パス_4243" data-name="パス 4243" d="M.444,4.79h0C.2,4.934,0,4.79,0,4.458V.9A1.056,1.056,0,0,1,.444.056h0c.244-.144.44,0,.44.332V3.947A1.052,1.052,0,0,1,.444,4.79Z" transform="translate(41.047 39.781)" fill="#757b89"/>
      <path id="パス_4244" data-name="パス 4244" d="M25.537,24.167,1.236,10.134A2.951,2.951,0,0,1,0,7.775V1.081C0,.173.552-.247,1.236.149l24.3,14.028a2.971,2.971,0,0,1,1.236,2.363v6.69C26.773,24.143,26.217,24.559,25.537,24.167Z" transform="translate(6.944 11.323)" fill="#e9eaf2"/>
      <path id="パス_4245" data-name="パス 4245" d="M0,0V6.182L3.431,4.359Z" transform="translate(6.944 18.366)" fill="#e9eaf2"/>
      <path id="パス_4246" data-name="パス 4246" d="M18.327,12.485,0,1.9V0L18.327,10.581Z" transform="translate(11.887 16.227)" fill="#d9dae2"/>
      <path id="パス_4247" data-name="パス 4247" d="M9.062,7.134,0,1.9V0L9.062,5.231Z" transform="translate(11.887 19.082)" fill="#d9dae2"/>
      <path id="パス_4248" data-name="パス 4248" d="M18.947,17.149,1.236,6.923A2.951,2.951,0,0,1,0,4.564V1.081C0,.173.552-.247,1.236.149L18.947,10.374a2.963,2.963,0,0,1,1.236,2.359v3.479C20.182,17.125,19.627,17.544,18.947,17.149Z" transform="translate(6.944 48.657)" fill="#e9eaf2"/>
      <path id="パス_4249" data-name="パス 4249" d="M0,0V6.182L3.431,4.359Z" transform="translate(6.944 52.373)" fill="#e9eaf2"/>
      <path id="パス_4250" data-name="パス 4250" d="M13.816,9.881,0,1.9V0L13.816,7.978Z" transform="translate(10.671 52.857)" fill="#d9dae2"/>
      <path id="パス_4251" data-name="パス 4251" d="M1.236,10.139l15.7,9.066c.68.4,1.236-.024,1.236-.932V11.567a2.959,2.959,0,0,0-1.236-2.359L1.236.15C.552-.25,0,.178,0,1.086V7.78A2.959,2.959,0,0,0,1.236,10.139Z" transform="translate(15.542 34.908)" fill="#e9eaf2"/>
      <path id="パス_4252" data-name="パス 4252" d="M3.435,0V6.182L0,.4Z" transform="translate(30.282 52.449)" fill="#e9eaf2"/>
      <path id="パス_4253" data-name="パス 4253" d="M0,1.9,10.373,7.89v-1.9L0,0Z" transform="translate(18.785 38.837)" fill="#d9dae2"/>
      <path id="パス_4254" data-name="パス 4254" d="M0,1.9,5.558,5.115v-1.9L0,0Z" transform="translate(18.785 41.688)" fill="#d9dae2"/>
      <path id="パス_4255" data-name="パス 4255" d="M1.236,10.14,25.393,24.088c.684.4,1.236-.024,1.236-.936v-6.69A2.959,2.959,0,0,0,25.393,14.1L1.236.151C.552-.249,0,.175,0,1.087V7.781A2.959,2.959,0,0,0,1.236,10.14Z" transform="translate(6.944 65.375)" fill="#e9eaf2"/>
      <path id="パス_4256" data-name="パス 4256" d="M3.431,0V6.182L0,.4Z" transform="translate(30.142 87.799)" fill="#e9eaf2"/>
      <path id="パス_4257" data-name="パス 4257" d="M0,1.9l17.091,9.869v-1.9L0,0Z" transform="translate(10.651 69.568)" fill="#d9dae2"/>
      <path id="パス_4258" data-name="パス 4258" d="M0,1.9,15.924,11.1v-1.9L0,0Z" transform="translate(10.651 72.424)" fill="#d9dae2"/>
      <path id="パス_4259" data-name="パス 4259" d="M25.745,20.892,1.444,6.855A3.2,3.2,0,0,1,0,4.356V1.029C0,.109.648-.263,1.444.2l24.3,14.028a3.2,3.2,0,0,1,1.44,2.5v3.327C27.185,20.971,26.537,21.343,25.745,20.892ZM1.444.673C.876.345.412.609.412,1.265V4.6A2.279,2.279,0,0,0,1.444,6.379l24.3,14.028c.568.328,1.028.064,1.028-.592V16.493a2.276,2.276,0,0,0-1.028-1.784Z" transform="translate(6.736 83.167)" fill="#e9eaf2"/>
      <path id="パス_4260" data-name="パス 4260" d="M.412,3.407,0,3.171V0L.412.236Z" transform="translate(8.728 85.504)" fill="#e9eaf2"/>
    </g>
    <g id="グループ_2364" data-name="グループ 2364" transform="translate(14044.116 3830.461)">
      <path id="パス_4291" data-name="パス 4291" d="M367.443,16.078,340.274.394a2.106,2.106,0,0,0-1.81-.286h0A1.243,1.243,0,0,0,338.14.3l-3.03,1.735,2.345,2.753V16.115a6.247,6.247,0,0,0,2.814,4.892l8.465,5.318,2.3,5.267-2.415,4.1,3.372-1.918,3.2-3.719,10.206,5.534.553,3.283,3.438-1.97.094-.052h.033a2.031,2.031,0,0,0,.755-1.778V21.007a6.247,6.247,0,0,0-2.823-4.929Z" transform="translate(-334.092 -0.018)" fill="#8c50ff"/>
      <path id="パス_4292" data-name="パス 4292" d="M367.443,16.078,340.274.394a2.106,2.106,0,0,0-1.81-.286h0A1.243,1.243,0,0,0,338.14.3l-3.03,1.735,2.345,2.753V16.115a6.247,6.247,0,0,0,2.814,4.892l8.465,5.318,2.3,5.267-2.415,4.1,3.372-1.918,3.2-3.719,10.206,5.534.553,3.283,3.438-1.97.094-.052h.033a2.031,2.031,0,0,0,.755-1.778V21.007a6.247,6.247,0,0,0-2.823-4.929Z" transform="translate(-334.092 -0.018)" opacity="0.2"/>
      <path id="パス_4293" data-name="パス 4293" d="M362.919,20.177,335.754,4.494c-1.557-.9-2.814-.169-2.814,1.632V20.2a6.247,6.247,0,0,0,2.814,4.892l8.47,5.337,3.25,7.443,3.2-3.719,12.25,6.641c1.562.9,2.814.174,2.814-1.627V25.092a6.243,6.243,0,0,0-2.819-4.915Z" transform="translate(-332.94 -2.19)" fill="#8c50ff"/>
      <ellipse id="楕円形_405" data-name="楕円形 405" cx="1.59" cy="2.753" rx="1.59" ry="2.753" transform="translate(4.808 13.379) rotate(-30)" fill="#fff"/>
      <ellipse id="楕円形_406" data-name="楕円形 406" cx="1.595" cy="2.763" rx="1.595" ry="2.763" transform="translate(13.536 18.101) rotate(-29.887)" fill="#fff"/>
      <ellipse id="楕円形_407" data-name="楕円形 407" cx="1.59" cy="2.753" rx="1.59" ry="2.753" transform="translate(20.922 22.687) rotate(-30)" fill="#fff"/>
    </g>
    <g id="グループ_2296" data-name="グループ 2296" transform="translate(13813.373 3949.394)">
      <path id="パス_3305" data-name="パス 3305" d="M222.572,436.9h0l-.108-21.314H192.107l.1,21.031a1.219,1.219,0,0,0,0,.283h0a2.268,2.268,0,0,0,1.239,1.54L204.77,445.1a5.588,5.588,0,0,0,5.11.216l11.819-6.953A1.493,1.493,0,0,0,222.572,436.9Z" transform="translate(-192.104 -406.736)" fill="#f66"/>
      <path id="パス_3306" data-name="パス 3306" d="M212.11,424.72v21.227a4.365,4.365,0,0,0,2.394-.42c2.885-1.483,9.023-5.3,12.006-7.053a1.574,1.574,0,0,0,.873-1.466c.174-5.1-.078-20.959-.078-20.959l-13.722,8.677Z" transform="translate(-196.915 -406.849)" fill="#a31074"/>
      <path id="パス_3307" data-name="パス 3307" d="M221.609,414.34l-11.82,6.952a5.584,5.584,0,0,1-5.109-.216l-11.327-6.662c-1.511-.89-1.676-2.235-.366-3.006l11.819-6.953a5.588,5.588,0,0,1,5.11.216l11.326,6.663C222.754,412.223,222.918,413.569,221.609,414.34Z" transform="translate(-192.103 -403.935)" fill="#ffc9c9"/>
      <g id="グループ_2294" data-name="グループ 2294" transform="translate(8.119 6.928)">
        <path id="パス_3308" data-name="パス 3308" d="M204.879,413.058c-2.782,1.637-2.782,4.29,0,5.927a10.949,10.949,0,0,0,10.075,0c2.783-1.637,2.783-4.29,0-5.927l-5.037,2.964Z" transform="translate(-202.793 -413.058)" fill="#f66"/>
      </g>
      <g id="グループ_2295" data-name="グループ 2295" transform="translate(10.204 4.455)">
        <path id="パス_3309" data-name="パス 3309" d="M205.538,411.029l5.037,2.964,5.038-2.964A10.949,10.949,0,0,0,205.538,411.029Z" transform="translate(-205.538 -409.802)" fill="#f66"/>
      </g>
    </g>
    <g id="グループ_2297" data-name="グループ 2297" transform="translate(13856.108 3880.34)">
      <path id="パス_3310" data-name="パス 3310" d="M290.725,335.466h0l-.079-13.982H268.569l.07,13.775a.893.893,0,0,0,0,.207h0a1.652,1.652,0,0,0,.9,1.12l8.237,4.845a4.062,4.062,0,0,0,3.715.157l8.6-5.057A1.085,1.085,0,0,0,290.725,335.466Z" transform="translate(-253.231 -315.051)" fill="#ff7038"/>
      <path id="パス_3311" data-name="パス 3311" d="M283.116,328.13v13.919a3.177,3.177,0,0,0,1.742-.305c2.1-1.078,6.562-3.854,8.732-5.13a1.145,1.145,0,0,0,.635-1.066c.126-3.709-.057-13.724-.057-13.724l-9.98,6.311Z" transform="translate(-256.73 -315.133)" fill="#a31010"/>
      <path id="パス_3312" data-name="パス 3312" d="M290.024,320.581l-8.6,5.057a4.062,4.062,0,0,1-3.716-.157l-8.237-4.846c-1.1-.646-1.219-1.625-.267-2.186l8.6-5.057a4.062,4.062,0,0,1,3.716.157l8.237,4.846C290.857,319.042,290.977,320.02,290.024,320.581Z" transform="translate(-253.23 -313.014)" fill="#ffd8c9"/>
      <path id="パス_3313" data-name="パス 3313" d="M270.533,349.083h0l-.079-8.666H248.376l.07,8.46a.889.889,0,0,0,0,.206h0a1.651,1.651,0,0,0,.9,1.12l8.237,4.845a4.062,4.062,0,0,0,3.716.157l8.6-5.057A1.086,1.086,0,0,0,270.533,349.083Z" transform="translate(-248.374 -319.605)" fill="#ff7038"/>
      <path id="パス_3314" data-name="パス 3314" d="M262.924,347.063v8.6a3.177,3.177,0,0,0,1.741-.305c2.1-1.078,6.561-3.853,8.732-5.13a1.145,1.145,0,0,0,.635-1.066c.126-3.71-.057-8.408-.057-8.408l-9.98,6.311Z" transform="translate(-251.873 -319.687)" fill="#a31010"/>
      <path id="パス_3315" data-name="パス 3315" d="M269.832,339.514l-8.6,5.057a4.061,4.061,0,0,1-3.716-.156l-8.237-4.845c-1.1-.647-1.219-1.626-.267-2.187l8.6-5.057a4.064,4.064,0,0,1,3.716.157l8.237,4.846C270.665,337.975,270.785,338.953,269.832,339.514Z" transform="translate(-248.373 -317.568)" fill="#ffd8c9"/>
    </g>
    <g id="グループ_2310" data-name="グループ 2310" transform="translate(13958.759 3838.371)">
      <path id="パス_3349" data-name="パス 3349" d="M398.608,280.167l8.524-12.134a27.062,27.062,0,0,0-8.2-8.338c-8.325-5.032-15.219.055-15.4,11.362s6.424,24.551,14.748,29.583c8.221,4.969,15.035.059,15.377-10.954Z" transform="translate(-383.531 -257.753)" fill="#f66"/>
      <path id="パス_3350" data-name="パス 3350" d="M418.407,269.71l-8.481,12.165,15.085,9.465c0-.139.019-.267.021-.408A39.3,39.3,0,0,0,418.407,269.71Z" transform="translate(-389.88 -260.629)" fill="#f66"/>
    </g>
    <g id="グループ_2311" data-name="グループ 2311" transform="translate(14006.928 3861.867)">
      <path id="パス_3351" data-name="パス 3351" d="M458.642,329.11V288.691l6.575,4.158v40.326Z" transform="translate(-449.765 -288.691)" fill="#6e96ff"/>
      <path id="パス_3352" data-name="パス 3352" d="M470,340.044V311.979l6.575,4.157v27.972Z" transform="translate(-452.498 -294.292)" fill="#6e96ff"/>
      <path id="パス_3353" data-name="パス 3353" d="M446.954,329.509V313.555l6.575,4.158v15.861Z" transform="translate(-446.954 -294.671)" fill="#6e96ff"/>
    </g>
    <path id="パス_3418" data-name="パス 3418" d="M465.226,361.582l-2.246-2.469a2.032,2.032,0,0,0-1.921-.629l-2.652.553a1.133,1.133,0,0,0-.756,1.634l.25.48a1.513,1.513,0,0,0,1.079.8l4.873.854Z" transform="translate(13557.433 3556.4)" fill="#ffd8c9"/>
    <path id="パス_3419" data-name="パス 3419" d="M466.453,364.211l-1.2-.517a.643.643,0,0,1-.327-.851l.427-.962a.944.944,0,0,1,1.26-.482l1,.463Z" transform="translate(13555.665 3555.71)" fill="#ffd8c9"/>
    <g id="グループ_2333" data-name="グループ 2333" transform="translate(13883.776 3972.289)">
      <path id="パス_3540" data-name="パス 3540" d="M316.524,440.739c7.1,3.333,13.466,13.427,14.069,22.755.242,3.734-.483,6.753-1.919,8.81l-10.226,19.759-4.9,2.439c-.441-1.018-7.6-35.723-7.924-36.768h0c-.766-2.439-6-3.972-6.039-6.347C299.436,442.7,309.6,437.489,316.524,440.739Zm.9,22.266c2.8,1.422,4.938-.323,4.763-3.868-.174-3.5-2.543-7.387-5.271-8.714-2.7-1.315-4.785.358-4.68,3.763C312.342,457.636,314.654,461.6,317.421,463Z" transform="translate(-299.579 -439.764)" fill="#ffdeb2"/>
      <path id="パス_3541" data-name="パス 3541" d="M313.982,490.18c1.517,7.162,2.844,13.322,3.026,13.743l4.9-2.439,10.226-19.759a10.005,10.005,0,0,0,1.324-2.792Z" transform="translate(-303.043 -449.185)" fill="#a33b10"/>
      <path id="パス_3542" data-name="パス 3542" d="M307.216,443.556a9.963,9.963,0,0,1,4.2,1.033c7,3.287,13.173,13.288,13.756,22.292.226,3.5-.4,6.425-1.821,8.455l-9.706,18.746L302.4,463.99a31.675,31.675,0,0,1-1.149-3.072,25.279,25.279,0,0,1-1.224-7.136c-.071-4.258,1.26-7.612,3.651-9.2A6.287,6.287,0,0,1,307.216,443.556Z" transform="translate(-299.687 -440.676)" fill="#ffaf40"/>
      <g id="グループ_2332" data-name="グループ 2332" transform="translate(6.061 14.586)">
        <path id="パス_3543" data-name="パス 3543" d="M321.372,459.11a2.256,2.256,0,0,1,1.019,1.772l-.036,12.831c0,.652-.464.916-1.026.591a2.257,2.257,0,0,1-1.025-1.775l.036-12.832C320.342,459.046,320.8,458.782,321.372,459.11Z" transform="translate(-310.625 -458.969)" fill="#fff"/>
        <path id="パス_3544" data-name="パス 3544" d="M314.989,460.346a2.259,2.259,0,0,1,1.025,1.77l-.026,9.1c0,.652-.464.915-1.031.588a2.258,2.258,0,0,1-1.025-1.775l.026-9.1C313.959,460.283,314.422,460.019,314.989,460.346Z" transform="translate(-309.093 -459.267)" fill="#fff"/>
        <path id="パス_3545" data-name="パス 3545" d="M308.6,464.848a2.259,2.259,0,0,1,1.025,1.774l-.008,2.887c0,.652-.464.915-1.031.587a2.257,2.257,0,0,1-1.025-1.774l.008-2.887C307.57,464.784,308.032,464.52,308.6,464.848Z" transform="translate(-307.56 -460.349)" fill="#fff"/>
      </g>
    </g>
    <g id="グループ_2335" data-name="グループ 2335" transform="translate(14129.2 3957.87)">
      <path id="パス_3550" data-name="パス 3550" d="M659.056,44.985,622.446,23.45a2.526,2.526,0,0,0-2.221-.349h0a1.631,1.631,0,0,0-.423.25l-7.141,4.223L619,32.75V49.1a7.823,7.823,0,0,0,3.447,6.083l17.285,10.168.742,1.315,2.619,16.249a.293.293,0,0,0,.439.21l5.8-3.462-.578-2.346.444.775c.649,1.133,1.746,1.239,1.746.167v-.5l3.149,3.6,7.213-4.3a1.628,1.628,0,0,0,.389-.232h0a2.646,2.646,0,0,0,.811-2.133V51.069A7.824,7.824,0,0,0,659.056,44.985Z" transform="translate(-611.672 -22.971)" fill="#ffdeb2"/>
      <path id="パス_3551" data-name="パス 3551" d="M648,74.225l.231.136.742,1.315,2.619,16.249a.293.293,0,0,0,.439.21l5.8-3.462-.578-2.346.443.775c.649,1.133,1.746,1.239,1.746.167v-.5l3.149,3.6,7.213-4.3a1.627,1.627,0,0,0,.389-.232h0A2.646,2.646,0,0,0,671,83.7V60.453Z" transform="translate(-620.172 -31.986)" fill="#a33b10"/>
      <path id="パス_3552" data-name="パス 3552" d="M651.416,50.719l-36.61-21.536c-1.9-1.119-3.446-.212-3.446,2.028V54.829a7.794,7.794,0,0,0,3.446,6.083l18.979,11.164a7.988,7.988,0,0,1,2.714,2.906l5.057,8.838c.649,1.133,1.746,1.239,1.746.167V79.261c0-.876.6-1.231,1.349-.793l6.765,3.98c1.9,1.12,3.447.213,3.447-2.028V56.8A7.794,7.794,0,0,0,651.416,50.719Z" transform="translate(-611.359 -24.35)" fill="#ffaf40"/>
      <path id="パス_3553" data-name="パス 3553" d="M631.018,50.952v14.2c0,1.494,1.357,3.243,2.474,3.188l11.126-.554c1.17-.058,1.17-2.032,0-3.465L633.492,50.675C632.375,49.306,631.018,49.458,631.018,50.952Z" transform="translate(-616.087 -29.408)" fill="#fff"/>
    </g>
    <g id="グループ_2341" data-name="グループ 2341" transform="translate(14082.429 4054.993)">
      <path id="パス_3567" data-name="パス 3567" d="M713.226,301.3h0l-.109-38.782H682.761l.1,38.5a1.263,1.263,0,0,0,0,.283h0a2.271,2.271,0,0,0,1.24,1.539l11.326,6.663a5.586,5.586,0,0,0,5.109.216l11.82-6.953A1.493,1.493,0,0,0,713.226,301.3Z" transform="translate(-682.757 -253.674)" fill="#f66"/>
      <path id="パス_3568" data-name="パス 3568" d="M702.763,271.657v38.695a4.368,4.368,0,0,0,2.395-.42c2.885-1.482,9.022-5.3,12.006-7.053a1.573,1.573,0,0,0,.873-1.465c.174-5.1-.078-38.428-.078-38.428l-13.722,8.677Z" transform="translate(-687.568 -253.786)" fill="#a31074"/>
      <path id="パス_3569" data-name="パス 3569" d="M712.263,261.277l-11.82,6.952a5.583,5.583,0,0,1-5.11-.216l-11.326-6.662c-1.512-.889-1.676-2.235-.367-3.006l11.82-6.953a5.586,5.586,0,0,1,5.109.216l11.326,6.663C713.408,259.161,713.572,260.506,712.263,261.277Z" transform="translate(-682.756 -250.872)" fill="#ffc9c9"/>
      <g id="グループ_2339" data-name="グループ 2339" transform="translate(7.038 3.992)">
        <path id="パス_3570" data-name="パス 3570" d="M699.427,260.408l.595-4.28c-.015.008-.032.014-.046.023l-7.77,4.57a1.339,1.339,0,0,0-.183.131Z" transform="translate(-692.023 -256.128)" fill="#f66"/>
      </g>
      <g id="グループ_2340" data-name="グループ 2340" transform="translate(7.035 3.843)">
        <path id="パス_3571" data-name="パス 3571" d="M701.03,261.285l-9.011.538a1.042,1.042,0,0,0,.11.08l6.262,3.683a2.275,2.275,0,0,0,2.091-.045l7.77-4.571c.6-.352.633-.9.076-1.23l-6.261-3.684a1.516,1.516,0,0,0-.292-.126Z" transform="translate(-692.019 -255.932)" fill="#f66"/>
      </g>
    </g>
    <g id="グループ_2344" data-name="グループ 2344" transform="translate(14062.198 4084.972)">
      <path id="パス_3572" data-name="パス 3572" d="M686.589,323.306h0l-.109-21.314H656.124l.1,21.03a1.263,1.263,0,0,0,0,.283h0a2.268,2.268,0,0,0,1.239,1.539l11.326,6.663a5.588,5.588,0,0,0,5.11.216l11.819-6.953A1.493,1.493,0,0,0,686.589,323.306Z" transform="translate(-656.12 -293.147)" fill="#ffaf40"/>
      <path id="パス_3573" data-name="パス 3573" d="M676.127,311.13v21.227a4.365,4.365,0,0,0,2.394-.42c2.885-1.482,9.023-5.3,12.006-7.053a1.573,1.573,0,0,0,.873-1.465c.174-5.1-.078-20.959-.078-20.959L677.6,311.136Z" transform="translate(-660.932 -293.259)" fill="#a33b10"/>
      <path id="パス_3574" data-name="パス 3574" d="M685.626,300.75l-11.82,6.952a5.581,5.581,0,0,1-5.109-.216l-11.327-6.662c-1.512-.889-1.676-2.235-.366-3.006l11.819-6.953a5.588,5.588,0,0,1,5.11.216l11.326,6.663C686.771,298.634,686.935,299.979,685.626,300.75Z" transform="translate(-656.119 -290.345)" fill="#ffdeb2"/>
      <g id="グループ_2342" data-name="グループ 2342" transform="translate(8.119 6.928)">
        <path id="パス_3575" data-name="パス 3575" d="M668.9,299.468c-2.782,1.637-2.782,4.29,0,5.927a10.949,10.949,0,0,0,10.075,0c2.783-1.637,2.783-4.29,0-5.927l-5.037,2.963Z" transform="translate(-666.81 -299.468)" fill="#ffaf40"/>
      </g>
      <g id="グループ_2343" data-name="グループ 2343" transform="translate(10.203 4.455)">
        <path id="パス_3576" data-name="パス 3576" d="M669.554,297.439l5.038,2.964,5.038-2.964A10.951,10.951,0,0,0,669.554,297.439Z" transform="translate(-669.554 -296.212)" fill="#ffaf40"/>
      </g>
    </g>
    <g id="グループ_2348" data-name="グループ 2348" transform="translate(14082.077 3910.11)">
      <path id="パス_3583" data-name="パス 3583" d="M604.57,134.269c0-10.02-7.375-22.352-16.086-26.343-3.231-1.48-5.9-1.622-8.146-.373l-.271.14-.01.006c-.02.011-.038.024-.058.034l-7.074,4.232a.653.653,0,0,0-.189.94l2.97,4.1c-.1,7.17,3.63,15.576,8.966,21.282v6.028c0,1.123,1.129,2.381,1.84,2.052l4.758-2.2,1.721,3.131a.686.686,0,0,0,.952.265l6.336-3.753V143.8C602.925,142.282,604.57,138.99,604.57,134.269Z" transform="translate(-568.728 -106.707)" fill="#ffc9c9"/>
      <g id="グループ_2347" data-name="グループ 2347" transform="translate(3.897 1.551)">
        <path id="パス_3584" data-name="パス 3584" d="M588.492,146.108v4.776c0,1.122,1.129,2.381,1.84,2.052l4.758-2.2,1.721,3.131a.686.686,0,0,0,.952.265l6.336-3.753v-.011c2.645-1.518,4.29-4.81,4.29-9.531a25.459,25.459,0,0,0-1-6.814Z" transform="translate(-576.444 -114.828)" fill="#a31074"/>
        <path id="パス_3585" data-name="パス 3585" d="M579.126,108.749l-6.2,3.707a.639.639,0,0,0-.3.447Z" transform="translate(-572.629 -108.749)" fill="#a31074"/>
      </g>
      <path id="パス_3586" data-name="パス 3586" d="M596.377,139.725c0-10.021-7.374-22.352-16.087-26.343-6.49-2.973-11.813.015-12.663,7.131-.9,7.545,3.025,17,8.851,23.229v6.028c0,1.123,1.129,2.381,1.841,2.053l5.635-2.6C590.971,152.191,596.377,148.3,596.377,139.725Z" transform="translate(-567.499 -108.038)" fill="#f66"/>
      <path id="パス_3587" data-name="パス 3587" d="M576.969,129.557c-.155-4.382,5.456-2.2,6.932,2.363,1.48-2.922,7.141.517,6.95,5.343-.137,3.469-6.232,6.154-6.916,6.444,0,0-.024.03-.034.014-.011,0-.034-.053-.034-.053C583.182,142.618,577.1,133.169,576.969,129.557Z" transform="translate(-569.776 -111.63)" fill="#fff"/>
    </g>
    <g id="グループ_2350" data-name="グループ 2350" transform="translate(14059.484 3994.287)">
      <path id="パス_3588" data-name="パス 3588" d="M787.765,106.8l-5.5,3.332.485,2.1,5.016-3.146Z" transform="translate(-757.12 -70.918)" fill="#fff"/>
      <path id="パス_3589" data-name="パス 3589" d="M768.6,80.632,765.113,61.5a8.919,8.919,0,0,0-6.619.264l0-.006-.175.095c-.087.046-.174.09-.259.14l-3.143,1.7.36,1.2a10.261,10.261,0,0,0-.656,1.361c-2.894,7.383,1.021,19.81,8.743,27.758,3.917,4.031,8.06,6.131,11.571,6.262l.715.911,2.853-1.566a7.03,7.03,0,0,0,.975-.535l.008,0v0a8.362,8.362,0,0,0,3.1-4.045,13.767,13.767,0,0,0,.808-3.286Z" transform="translate(-750.242 -59.901)" fill="#ffc9c9"/>
      <path id="パス_3590" data-name="パス 3590" d="M764.232,63.51l3.423-1.853,3.487,19.134-3.423,1.853Z" transform="translate(-752.783 -60.061)" fill="#a31074"/>
      <path id="パス_3591" data-name="パス 3591" d="M783.614,99.806l3.423-1.853-14.79-11.1L768.824,88.7Z" transform="translate(-753.888 -66.12)" fill="#ffc9c9"/>
      <path id="パス_3592" data-name="パス 3592" d="M789.506,85.583a32.609,32.609,0,0,0-3.727-12.07,35.48,35.48,0,0,0-5.883-8.192,21.321,21.321,0,0,0-8.726-5.766l-3.423,1.853,3.423,7.723,2.411,3.655,1.055,5.788a.09.09,0,0,0,.126.067l.027-.013a.067.067,0,0,0,0,.119h-.008a.014.014,0,0,0-.014.025l5.477,4.112,5.781,8.762,3.422-1.853A19.944,19.944,0,0,0,789.506,85.583Z" transform="translate(-753.629 -59.555)" fill="#c9d8ff"/>
      <path id="パス_3593" data-name="パス 3593" d="M791.626,84.72l-8.77,3.449,1.021.767,5.781,8.762,3.423-1.853a20,20,0,0,0,.059-4.209A29.5,29.5,0,0,0,791.626,84.72Z" transform="translate(-757.263 -65.608)" fill="#0f3299"/>
      <g id="グループ_2349" data-name="グループ 2349" transform="translate(14.118 1.853)">
        <path id="パス_3594" data-name="パス 3594" d="M776.474,67.761A21.3,21.3,0,0,0,767.747,62l3.466,19.018a.09.09,0,0,0,.126.067l.027-.013a.069.069,0,0,0,0,.124l14.716,6.832a32.608,32.608,0,0,0-3.727-12.071A35.459,35.459,0,0,0,776.474,67.761Z" transform="translate(-767.747 -61.995)" fill="#668cff"/>
        <path id="パス_3595" data-name="パス 3595" d="M787.22,94.1l-14.726-6.837a.014.014,0,0,0-.014.024l14.682,11.022A20.009,20.009,0,0,0,787.22,94.1Z" transform="translate(-768.884 -68.072)" fill="#668cff"/>
      </g>
      <path id="パス_3596" data-name="パス 3596" d="M780.157,110l.715.911,2.854-1.566a7.024,7.024,0,0,0,.975-.535l.008,0v0a8.362,8.362,0,0,0,3.1-4.045,13.759,13.759,0,0,0,.808-3.286l-13.228,7.286A12.573,12.573,0,0,0,780.157,110Z" transform="translate(-755.467 -69.636)" fill="#a31074"/>
      <path id="パス_3597" data-name="パス 3597" d="M764.094,83.07l-3.488-19.134c-4.655-1.418-8.688.134-10.5,4.744-2.894,7.384,1.021,19.81,8.743,27.758s16.328,8.4,19.222,1.021a13.727,13.727,0,0,0,.808-3.286Z" transform="translate(-749.158 -60.487)" fill="#f66"/>
    </g>
    <g id="グループ_2365" data-name="グループ 2365" transform="translate(13806.486 4022.354)">
      <path id="パス_3342" data-name="パス 3342" d="M67.126,545.882l0-6.025,98.243-1.937,0,5.205a2.491,2.491,0,0,1-1.427,2.961l-44.57,26.359c-2.308,1.365-6.365,1.239-9.062-.281L69.353,549.087C67.748,548.181,66.994,546.988,67.126,545.882Z" transform="translate(-67.105 -509.985)" fill="#ff7038"/>
      <g id="グループ_2326" data-name="グループ 2326" transform="translate(27.227 52.512)">
        <path id="パス_3526" data-name="パス 3526" d="M105.961,572.819l4.4-2.539,4.983,2.8-7.334,9.092a.133.133,0,0,1-.169.033l-4.884-2.742v-1.432A6.015,6.015,0,0,1,105.961,572.819Z" transform="translate(-102.953 -570.28)" fill="#ffd8c9"/>
        <path id="パス_3527" data-name="パス 3527" d="M109.649,583.066l7.27-4.2v-4.9l-4.4,2.539a6.016,6.016,0,0,0-3.008,5.209v1.276A.09.09,0,0,0,109.649,583.066Z" transform="translate(-104.531 -571.166)" fill="#a31010"/>
      </g>
      <g id="グループ_2327" data-name="グループ 2327" transform="translate(13.789 44.483)">
        <path id="パス_3528" data-name="パス 3528" d="M88.268,562.248l4.4-2.539,4.983,2.8L90.314,571.6a.133.133,0,0,1-.169.033l-4.884-2.742v-1.432A6.015,6.015,0,0,1,88.268,562.248Z" transform="translate(-85.26 -559.709)" fill="#ffd8c9"/>
        <path id="パス_3529" data-name="パス 3529" d="M91.956,572.495l7.27-4.2v-4.9l-4.4,2.539a6.017,6.017,0,0,0-3.008,5.209v1.276A.09.09,0,0,0,91.956,572.495Z" transform="translate(-86.838 -560.595)" fill="#a31010"/>
      </g>
      <g id="グループ_2328" data-name="グループ 2328" transform="translate(0.352 36.455)">
        <path id="パス_3530" data-name="パス 3530" d="M70.575,551.677l4.4-2.539,4.983,2.8-7.334,9.092a.133.133,0,0,1-.169.033l-4.884-2.743v-1.432A6.017,6.017,0,0,1,70.575,551.677Z" transform="translate(-67.567 -549.138)" fill="#ffd8c9"/>
        <path id="パス_3531" data-name="パス 3531" d="M74.263,561.924l7.27-4.2v-4.9l-4.4,2.539a6.017,6.017,0,0,0-3.008,5.21v1.275A.09.09,0,0,0,74.263,561.924Z" transform="translate(-69.145 -550.024)" fill="#a31010"/>
      </g>
      <path id="パス_3532" data-name="パス 3532" d="M180.748,543.125l0-5.205-49.7.98v34.47a7.885,7.885,0,0,0,3.7-.924l44.57-26.359A2.49,2.49,0,0,0,180.748,543.125Z" transform="translate(-82.485 -509.985)" fill="#a31010"/>
      <path id="パス_3533" data-name="パス 3533" d="M119.372,557.026l44.57-26.359c2.308-1.364,1.992-3.7-.7-5.222L122.28,502.366c-2.7-1.52-6.754-1.646-9.061-.281L68.648,528.444c-2.307,1.365-1.992,3.7.7,5.223l40.957,23.078C113.007,558.265,117.064,558.391,119.372,557.026Z" transform="translate(-67.105 -501.139)" fill="#ffd8c9"/>
      <g id="グループ_2329" data-name="グループ 2329" transform="translate(58.472 51.12)">
        <path id="パス_3534" data-name="パス 3534" d="M153.474,570.986l-4.4-2.539-4.983,2.8,7.334,9.092a.134.134,0,0,0,.17.033l4.883-2.742V576.2A6.015,6.015,0,0,0,153.474,570.986Z" transform="translate(-144.094 -568.447)" fill="#ffd8c9"/>
        <path id="パス_3535" data-name="パス 3535" d="M151.365,581.233l-7.271-4.2v-4.9l4.4,2.539a6.015,6.015,0,0,1,3.008,5.21v1.275A.089.089,0,0,1,151.365,581.233Z" transform="translate(-144.094 -569.333)" fill="#ff7038"/>
      </g>
      <g id="グループ_2330" data-name="グループ 2330" transform="translate(71.91 43.091)">
        <path id="パス_3536" data-name="パス 3536" d="M171.167,560.415l-4.4-2.539-4.983,2.8,7.334,9.092a.134.134,0,0,0,.17.033l4.883-2.742v-1.432A6.015,6.015,0,0,0,171.167,560.415Z" transform="translate(-161.787 -557.876)" fill="#ffd8c9"/>
        <path id="パス_3537" data-name="パス 3537" d="M169.058,570.662l-7.271-4.2v-4.9l4.4,2.539a6.015,6.015,0,0,1,3.008,5.21v1.275A.09.09,0,0,1,169.058,570.662Z" transform="translate(-161.787 -558.762)" fill="#ff7038"/>
      </g>
      <g id="グループ_2331" data-name="グループ 2331" transform="translate(85.348 35.063)">
        <path id="パス_3538" data-name="パス 3538" d="M188.86,549.844l-4.4-2.539-4.983,2.8,7.334,9.091a.133.133,0,0,0,.17.033l4.883-2.743v-1.431A6.015,6.015,0,0,0,188.86,549.844Z" transform="translate(-179.48 -547.305)" fill="#ffd8c9"/>
        <path id="パス_3539" data-name="パス 3539" d="M186.751,560.092l-7.271-4.2v-4.9l4.4,2.538a6.015,6.015,0,0,1,3.008,5.21v1.275A.09.09,0,0,1,186.751,560.092Z" transform="translate(-179.48 -548.191)" fill="#ff7038"/>
      </g>
      <g id="グループ_2352" data-name="グループ 2352" transform="translate(28.028 11.315)">
        <path id="パス_3599" data-name="パス 3599" d="M133.118,522.151c0,.01-.005.021-.008.03a.961.961,0,0,1-.1.2c-.009.014-.017.027-.027.04a1.289,1.289,0,0,1-.175.2,1.78,1.78,0,0,1-.271.2c-.45.278-.908.551-1.366.826-.272.162-.544.325-.818.486q-.5.29-1,.578c-.275.158-.55.316-.827.472q-.509.287-1.024.57c-.278.154-.556.308-.837.46q-.524.284-1.055.563c-.279.148-.556.3-.837.443-.366.19-.736.378-1.106.566-.273.14-.546.28-.822.418-.39.2-.785.388-1.18.58-.26.127-.518.255-.779.381-.44.211-.885.418-1.33.626-.222.1-.442.21-.665.313q-1,.463-2.026.914c-.106.044-.21.083-.311.115a3.3,3.3,0,0,1-.425.107c-.075.014-.148.024-.219.03-.055.005-.109.009-.16.011s-.09,0-.134,0l-.006,2.339c.043,0,.088,0,.134,0s.106-.005.16-.011c.071-.007.144-.017.219-.03a3.324,3.324,0,0,0,.425-.107c.1-.033.2-.071.311-.116q1.021-.451,2.026-.914c.225-.1.446-.21.669-.315.444-.207.887-.414,1.325-.624.264-.127.524-.256.786-.384.393-.192.785-.383,1.173-.577.278-.139.551-.28.827-.42.368-.188.736-.374,1.1-.564.281-.147.559-.295.838-.443.354-.188.706-.374,1.056-.564.28-.152.557-.305.834-.458q.515-.285,1.025-.571c.278-.157.553-.315.828-.473q.5-.287.994-.576c.275-.162.548-.324.82-.488.176-.105.355-.209.531-.315q.418-.254.833-.51a1.777,1.777,0,0,0,.271-.2h0a1.262,1.262,0,0,0,.143-.153c.013-.017.021-.033.033-.049s.018-.026.027-.04.022-.03.031-.046a.84.84,0,0,0,.061-.13c0-.009,0-.018.008-.027s.006-.021.009-.03.015-.048.02-.071a.856.856,0,0,0,.015-.131v-.021l.007-2.339A.808.808,0,0,1,133.118,522.151Z" transform="translate(-106.799 -517.454)" fill="#fff"/>
        <path id="パス_3600" data-name="パス 3600" d="M115.172,534.032c-.037,0-.073-.007-.109-.012s-.071-.011-.106-.018-.073-.017-.108-.027-.084-.026-.122-.041a1.08,1.08,0,0,1-.144-.069.6.6,0,0,1-.339-.513l-.007,2.339a.6.6,0,0,0,.339.513,1.088,1.088,0,0,0,.144.069c.04.015.08.029.123.042s.071.018.107.026.07.014.106.018.072.009.109.012l.117.007.006-2.339Z" transform="translate(-106.468 -520.202)" fill="#ff7038"/>
        <path id="パス_3601" data-name="パス 3601" d="M114.586,529.7c-.442-.255-.489-.748.086-1.183,1.113-.851,11.3-7.729,12.051-8.136-.947-.842-2.555-2.289-3.359-3.083-.881-.864.6-1.6,1.868-1.094.619.247,6.2,3,6.754,3.275l.117.059.048.027c.873.5.908,1.324.058,1.848a129.508,129.508,0,0,1-15.667,8.2A2.3,2.3,0,0,1,114.586,529.7Z" transform="translate(-106.471 -516.038)" fill="#fff"/>
        <path id="パス_3602" data-name="パス 3602" d="M138.639,528.327A123.882,123.882,0,0,1,115.9,542.618a2.4,2.4,0,0,1-.287.154,3.508,3.508,0,0,1-2.9-.114,1.962,1.962,0,0,1-.2-.135,76.072,76.072,0,0,1-8.174-5.689.552.552,0,0,1-.013-.994,2.063,2.063,0,0,1,1.88-.1c.85.38,4.46,2.107,7.871,3.755,3.327-2.1,21.527-11.776,22.69-12.264a2.43,2.43,0,0,1,2.032-.147C139.22,527.33,139.238,527.828,138.639,528.327Z" transform="translate(-104.01 -518.656)" fill="#fff"/>
        <path id="パス_3603" data-name="パス 3603" d="M142.295,527.932l-.009.032a.857.857,0,0,1-.075.166c-.007.012-.017.024-.024.036a1.336,1.336,0,0,1-.1.134c-.025.03-.055.06-.084.09a1.881,1.881,0,0,1-.147.141c-.747.6-1.513,1.193-2.288,1.782l-.358.272q-1.115.838-2.268,1.66l-.441.312q-1.167.824-2.367,1.63l-.331.218q-1.21.8-2.454,1.59l-.163.1c-.781.49-1.577.971-2.379,1.451-.346.207-.7.413-1.047.618q-.876.513-1.769,1.016c-.351.2-.7.4-1.056.592-.643.355-1.294.706-1.948,1.054-.31.165-.617.332-.929.5q-1.453.759-2.939,1.5a2.4,2.4,0,0,1-.287.154,2.683,2.683,0,0,1-.261.1,3.336,3.336,0,0,1-.413.1c-.094.017-.189.03-.285.039s-.164.014-.246.017-.151,0-.227,0l-.007,2.339c.076,0,.152,0,.227,0s.165-.008.247-.017.191-.023.284-.04a3.325,3.325,0,0,0,.414-.1,2.68,2.68,0,0,0,.26-.1,2.457,2.457,0,0,0,.255-.134l.033-.02q1.489-.736,2.938-1.5c.314-.163.62-.33.931-.5q.981-.522,1.947-1.053c.355-.2.7-.394,1.056-.592q.892-.5,1.768-1.015.527-.309,1.049-.619c.212-.127.429-.251.64-.378q.877-.532,1.737-1.072l.167-.106q1.244-.784,2.451-1.587l.331-.219q1.2-.805,2.367-1.629l.442-.314q1.152-.82,2.267-1.659c.121-.09.238-.182.358-.273.775-.588,1.54-1.18,2.288-1.781.03-.025.058-.049.084-.074s.04-.045.062-.067.059-.06.084-.09c.009-.011.022-.022.031-.033a1.112,1.112,0,0,0,.068-.1c.008-.012.017-.024.025-.036l.007-.011a.9.9,0,0,0,.058-.125c0-.01.005-.02.009-.03l.009-.032c0-.015.011-.031.014-.046a.642.642,0,0,0,.011-.1v-.014l.007-2.339A.6.6,0,0,1,142.295,527.932Z" transform="translate(-107.227 -518.86)" fill="#a31010"/>
        <path id="パス_3604" data-name="パス 3604" d="M113.962,546c-.073-.006-.145-.014-.216-.024s-.147-.024-.219-.038-.158-.036-.234-.058a2.647,2.647,0,0,1-.267-.09,2.211,2.211,0,0,1-.314-.15,1.931,1.931,0,0,1-.2-.135,76.082,76.082,0,0,1-8.174-5.689.622.622,0,0,1-.318-.5l-.007,2.339a.623.623,0,0,0,.318.5,76.065,76.065,0,0,0,8.174,5.689,1.932,1.932,0,0,0,.2.135,2.362,2.362,0,0,0,.314.151c.086.033.175.064.267.09.077.022.154.041.234.058s.146.027.219.038.144.018.216.024.146.01.219.011l.007-2.339C114.108,546.008,114.034,546,113.962,546Z" transform="translate(-104.008 -521.635)" fill="#ff7038"/>
        <path id="パス_3605" data-name="パス 3605" d="M153.081,535.225a94.677,94.677,0,0,1-24.027,14.061,2.387,2.387,0,0,1-1.989.089c-.44-.254-.476-.744.113-1.185A130.756,130.756,0,0,1,151.2,534.132a2.159,2.159,0,0,1,1.842-.023C153.473,534.357,153.577,534.806,153.081,535.225Z" transform="translate(-109.474 -520.338)" fill="#fff"/>
        <path id="パス_3606" data-name="パス 3606" d="M153.721,535.008l-.008.029a.641.641,0,0,1-.05.12l-.005.011a.875.875,0,0,1-.09.129c-.016.019-.036.039-.055.058a1.21,1.21,0,0,1-.1.1,82.113,82.113,0,0,1-9.77,6.9,105.758,105.758,0,0,1-14.257,7.166c-.1.039-.191.073-.284.1a3.671,3.671,0,0,1-.455.115c-.08.014-.157.025-.232.032-.058.006-.114.01-.168.011s-.094,0-.139,0l-.007,2.339c.046,0,.092,0,.139,0s.11-.005.168-.011c.075-.007.152-.018.232-.032a3.5,3.5,0,0,0,.455-.115c.093-.03.188-.064.284-.1a105.76,105.76,0,0,0,14.257-7.166,82.112,82.112,0,0,0,9.771-6.9l.047-.042c.022-.02.038-.041.057-.061s.038-.039.054-.059a.163.163,0,0,0,.015-.017.851.851,0,0,0,.074-.109l0,0,0-.009a.714.714,0,0,0,.039-.086c0-.012.007-.024.011-.036l.008-.027c0-.009.005-.018.008-.027a.583.583,0,0,0,.01-.088v-.013l.007-2.339A.525.525,0,0,1,153.721,535.008Z" transform="translate(-109.802 -520.57)" fill="#a31010"/>
        <path id="パス_3607" data-name="パス 3607" d="M127.653,554.28c-.038,0-.075-.008-.111-.013s-.072-.011-.107-.018-.074-.017-.109-.027-.083-.026-.122-.041a1.128,1.128,0,0,1-.143-.068.582.582,0,0,1-.33-.5l-.007,2.339a.582.582,0,0,0,.33.5,1.134,1.134,0,0,0,.142.068c.039.015.079.029.122.041s.071.019.108.027.071.014.107.019.073.009.112.012.079.005.12.006l.007-2.339C127.733,554.285,127.693,554.283,127.653,554.28Z" transform="translate(-109.472 -525.075)" fill="#ff7038"/>
        <path id="パス_3608" data-name="パス 3608" d="M133.118,522.151c0,.01-.005.021-.008.03a.961.961,0,0,1-.1.2c-.009.014-.017.027-.027.04a1.289,1.289,0,0,1-.175.2,1.78,1.78,0,0,1-.271.2c-.45.278-.908.551-1.366.826-.272.162-.544.325-.818.486q-.5.29-1,.578c-.275.158-.55.316-.827.472q-.509.287-1.024.57c-.278.154-.556.308-.837.46q-.524.284-1.055.563c-.279.148-.556.3-.837.443-.366.19-.736.378-1.106.566-.273.14-.546.28-.822.418-.39.2-.785.388-1.18.58-.26.127-.518.255-.779.381-.44.211-.885.418-1.33.626-.222.1-.442.21-.665.313q-1,.463-2.026.914c-.106.044-.21.083-.311.115a3.3,3.3,0,0,1-.425.107c-.075.014-.148.024-.219.03-.055.005-.109.009-.16.011s-.09,0-.134,0l-.006,2.339c.043,0,.088,0,.134,0s.106-.005.16-.011c.071-.007.144-.017.219-.03a3.324,3.324,0,0,0,.425-.107c.1-.033.2-.071.311-.116q1.021-.451,2.026-.914c.225-.1.446-.21.669-.315.444-.207.887-.414,1.325-.624.264-.127.524-.256.786-.384.393-.192.785-.383,1.173-.577.278-.139.551-.28.827-.42.368-.188.736-.374,1.1-.564.281-.147.559-.295.838-.443.354-.188.706-.374,1.056-.564.28-.152.557-.305.834-.458q.515-.285,1.025-.571c.278-.157.553-.315.828-.473q.5-.287.994-.576c.275-.162.548-.324.82-.488.176-.105.355-.209.531-.315q.418-.254.833-.51a1.777,1.777,0,0,0,.271-.2h0a1.262,1.262,0,0,0,.143-.153c.013-.017.021-.033.033-.049s.018-.026.027-.04.022-.03.031-.046a.84.84,0,0,0,.061-.13c0-.009,0-.018.008-.027s.006-.021.009-.03.015-.048.02-.071a.856.856,0,0,0,.015-.131v-.021l.007-2.339A.808.808,0,0,1,133.118,522.151Z" transform="translate(-106.799 -517.454)" fill="#a31010"/>
      </g>
    </g>
    <g id="グループ_2362" data-name="グループ 2362" transform="translate(13948.053 3808.368)">
      <path id="パス_3672" data-name="パス 3672" d="M321.469,379.072l-6.139-3.37,5.45-3.142,6.135,3.365Z" transform="translate(-261.325 -199.154)" fill="#d6d8e5" opacity="0.4"/>
      <path id="パス_3703" data-name="パス 3703" d="M333.521,374.855l4.054-2.313-4.855-5.092Z" transform="translate(-270.62 -196.423)" fill="#9ea2b2"/>
      <path id="パス_3671" data-name="パス 3671" d="M250.549,337.322l-6.139-3.365,5.45-3.146L256,334.175Z" transform="translate(-223.414 -176.836)" fill="#d6d8e5" opacity="0.4"/>
      <path id="パス_3673" data-name="パス 3673" d="M256.1,270.269l-5.79-3.342,18.441-58.907,5.79,3.342Z" transform="translate(-226.568 -111.198)" fill="#b1b4c4"/>
      <path id="パス_3674" data-name="パス 3674" d="M263.39,266.249l-5.79-3.342L276.041,204l5.785,3.342Z" transform="translate(-230.465 -109.049)" fill="#9ea2b2"/>
      <path id="パス_3675" data-name="パス 3675" d="M256.1,270.269l-5.79-3.342,18.441-58.907,5.79,3.342Z" transform="translate(-226.568 -111.198)" fill="#b1b4c4"/>
      <path id="パス_3676" data-name="パス 3676" d="M327.306,289.36l-5.832-3.37-7.964-74.15,5.79,3.347Z" transform="translate(-260.352 -113.24)" fill="#9ea2b2"/>
      <path id="パス_3677" data-name="パス 3677" d="M318.6,294.33l-5.832-3.37L304.8,216.81l5.79,3.342Z" transform="translate(-255.696 -115.897)" fill="#b1b4c4"/>
      <path id="パス_3678" data-name="パス 3678" d="M308.093,208.991,199.3,146.179l4.915-2.839,108.793,62.812Z" transform="translate(-199.3 -76.623)" fill="#d6d8e5"/>
      <path id="パス_3679" data-name="パス 3679" d="M308.093,217.9,199.3,155.088V149.41l108.793,62.812Z" transform="translate(-199.3 -79.868)" fill="#b1b4c4"/>
      <path id="パス_3680" data-name="パス 3680" d="M313.247,128.109,213.06,70.264V0L313.247,57.845Z" transform="translate(-206.656)" fill="#f4f4f4"/>
      <path id="パス_3681" data-name="パス 3681" d="M438.034,283.747l-4.994,2.881v-5.767l4.994-2.881Z" transform="translate(-324.247 -148.596)" fill="#9ea2b2"/>
      <path id="パス_3682" data-name="パス 3682" d="M237.209,35.812l-8.3-4.789V27.83l8.3,4.789Z" transform="translate(-215.128 -14.877)" fill="#d6d8e5"/>
      <path id="パス_3683" data-name="パス 3683" d="M268.926,54.122,254.33,45.7V42.5l14.6,8.429Z" transform="translate(-228.717 -22.719)" fill="#d6d8e5"/>
      <path id="パス_3684" data-name="パス 3684" d="M237.209,48.772l-8.3-4.789V40.79l8.3,4.789Z" transform="translate(-215.128 -21.804)" fill="#d6d8e5"/>
      <path id="パス_3685" data-name="パス 3685" d="M268.926,67.082l-14.6-8.425v-3.2l14.6,8.429Z" transform="translate(-228.717 -29.646)" fill="#d6d8e5"/>
      <path id="パス_3686" data-name="パス 3686" d="M237.209,63.637l-8.3-4.789v-3.2l8.3,4.794Z" transform="translate(-215.128 -29.748)" fill="#d6d8e5"/>
      <path id="パス_3687" data-name="パス 3687" d="M268.926,81.952l-14.6-8.429V70.33l14.6,8.429Z" transform="translate(-228.717 -37.595)" fill="#d6d8e5"/>
      <path id="パス_3688" data-name="パス 3688" d="M237.209,78.507l-8.3-4.794V70.52l8.3,4.789Z" transform="translate(-215.128 -37.697)" fill="#d6d8e5"/>
      <path id="パス_3689" data-name="パス 3689" d="M268.926,96.822l-14.6-8.429V85.2l14.6,8.429Z" transform="translate(-228.717 -45.544)" fill="#d6d8e5"/>
      <path id="パス_3690" data-name="パス 3690" d="M308.813,80.9c1.839-2.374,5.12-2.755,8.89-.586.363.209.721.438,1.07.68l-1.047,11.385L308.78,80.951Z" transform="translate(-257.823 -42.17)" fill="#9acc12"/>
      <path id="パス_3691" data-name="パス 3691" d="M337.7,96.159,327.93,94.8,329,83.42A23.865,23.865,0,0,1,337.7,96.159Z" transform="translate(-268.06 -44.593)" fill="#e8bc05"/>
      <path id="パス_3692" data-name="パス 3692" d="M338.426,113.912c0,5.12-2.793,7.913-6.689,7.405L328,107.88l9.774,1.354A17.4,17.4,0,0,1,338.426,113.912Z" transform="translate(-268.097 -57.668)" fill="#ef6848"/>
      <path id="パス_3693" data-name="パス 3693" d="M307.027,83.267a8.812,8.812,0,0,0-1.527,5.4c0,6.665,4.678,14.764,10.449,18.1a10.324,10.324,0,0,0,3.756,1.368L315.972,94.7l-8.89-11.478Z" transform="translate(-256.07 -44.486)" fill="#be4aed"/>
      <path id="パス_3694" data-name="パス 3694" d="M370.867,116.744c1.839-2.374,5.12-2.755,8.89-.591.363.209.717.438,1.071.684l-1.08,11.385-8.927-11.436Z" transform="translate(-290.987 -61.328)" fill="#543526"/>
      <path id="パス_3695" data-name="パス 3695" d="M399.774,131.995,390,130.645l1.071-11.385A23.861,23.861,0,0,1,399.774,131.995Z" transform="translate(-301.24 -63.751)" fill="#1b96ea"/>
      <path id="パス_3696" data-name="パス 3696" d="M400.459,149.752c0,5.12-2.793,7.913-6.688,7.4L390,143.72l9.774,1.35A17.644,17.644,0,0,1,400.459,149.752Z" transform="translate(-301.24 -76.826)" fill="#ff5050"/>
      <path id="パス_3697" data-name="パス 3697" d="M369.092,119.1a8.852,8.852,0,0,0-1.522,5.4c0,6.665,4.678,14.769,10.449,18.1a10.24,10.24,0,0,0,3.756,1.364l-3.765-13.428-8.89-11.478Z" transform="translate(-289.25 -63.644)" fill="#32cec3"/>
      <path id="パス_3698" data-name="パス 3698" d="M308.78,184.812s7.079-13.5,25.06,3.724,22.518,3.863,22.518,3.863" transform="translate(-257.823 -96.102)" fill="none" stroke="#d6d8e5" stroke-miterlimit="10" stroke-width="1.42"/>
      <ellipse id="楕円形_355" data-name="楕円形 355" cx="1.224" cy="2.118" rx="1.224" ry="2.118" transform="translate(64.137 83.95) rotate(-30)" fill="#d6d8e5"/>
      <ellipse id="楕円形_356" data-name="楕円形 356" cx="1.224" cy="2.118" rx="1.224" ry="2.118" transform="translate(51.423 83.925) rotate(-30)" fill="#d6d8e5"/>
      <ellipse id="楕円形_357" data-name="楕円形 357" cx="1.228" cy="2.125" rx="1.228" ry="2.125" transform="translate(78.408 94.609) rotate(-29.887)" fill="#d6d8e5"/>
      <ellipse id="楕円形_358" data-name="楕円形 358" cx="1.224" cy="2.118" rx="1.224" ry="2.118" transform="translate(93.032 98.899) rotate(-30)" fill="#d6d8e5"/>
      <path id="パス_3699" data-name="パス 3699" d="M231.749,136.142,228.91,134.5V124.65l2.839,1.643Z" transform="translate(-215.128 -66.632)" fill="#d6d8e5"/>
      <path id="パス_3700" data-name="パス 3700" d="M248.644,141.92l-2.844-1.643V126.97l2.844,1.643Z" transform="translate(-224.157 -67.873)" fill="#d6d8e5"/>
      <path id="パス_3701" data-name="パス 3701" d="M265.534,145.052l-2.844-1.638V124.34l2.844,1.638Z" transform="translate(-233.186 -66.466)" fill="#d6d8e5"/>
      <path id="パス_3702" data-name="パス 3702" d="M282.424,149.5l-2.844-1.638V124.18l2.844,1.638Z" transform="translate(-242.215 -66.381)" fill="#d6d8e5"/>
      <path id="パス_3704" data-name="パス 3704" d="M262.75,334.094l3.393-1.871-1.3-4.8Z" transform="translate(-233.218 -175.024)" fill="#9ea2b2"/>
    </g>
    <g id="Men_2" transform="translate(13920.7 3907.824)">
      <ellipse id="楕円形_395" data-name="楕円形 395" cx="19.013" cy="10.975" rx="19.013" ry="10.975" transform="translate(0 97.161)" fill="#d6d8e5" opacity="0.4"/>
      <path id="_Контур_5" data-name="&lt;Контур&gt;" d="M7.577,330.53c-.214,1.847-2.414,9.815-1.941,12.547s8,7.3,8,7.3L14.68,345.7l-4.173-4.085,1.127-7.742Z" transform="translate(-2.507 -304.599)" fill="#ffcea9"/>
      <path id="_Контур_6" data-name="&lt;Контур&gt;" d="M14.444,315.992a3.3,3.3,0,0,0-4.19,1.27c-1.1,1.836-2.26,8.126-2.364,9.2a4.444,4.444,0,0,0,3.887,1.787Z" transform="translate(-3.552 -297.918)" fill="#ededed"/>
      <path id="パス_4271" data-name="パス 4271" d="M34.866,476.291a6.455,6.455,0,0,0,4.871-.588c1.177.038,7.549-2.689,8.412-.4.759,2.007-2,3.849-3.475,4.223-3.216.775-5.6,2.381-6.889,2.656a3.27,3.27,0,0,1-2.98-.423C33.887,480.849,33.964,477.473,34.866,476.291Z" transform="translate(-15.374 -369.359)" fill="#2b2a30"/>
      <path id="パス_4272" data-name="パス 4272" d="M37.978,482.7c1.292-.275,3.673-1.88,6.889-2.656,1.237-.3,3.365-1.649,3.579-3.266.286,1.847-2.2,3.486-3.579,3.849-3.216.775-5.6,2.381-6.889,2.656a3.271,3.271,0,0,1-2.98-.423,1.837,1.837,0,0,1-.418-.764,3.849,3.849,0,0,0,3.4.6Z" transform="translate(-15.567 -370.436)" fill="#bf4b4b"/>
      <path id="パス_4273" data-name="パス 4273" d="M16.071,467.851a6.455,6.455,0,0,0,4.871-.588c1.171.038,7.544-2.689,8.412-.4.759,2.007-2,3.849-3.475,4.223-3.217.781-5.6,2.381-6.895,2.656a3.257,3.257,0,0,1-2.975-.423C15.086,472.409,15.158,469.049,16.071,467.851Z" transform="translate(-6.911 -365.559)" fill="#2b2a30"/>
      <path id="パス_4274" data-name="パス 4274" d="M19.218,474.262c1.292-.275,3.678-1.88,6.895-2.656,1.232-.3,3.365-1.649,3.579-3.266.286,1.847-2.2,3.486-3.579,3.849-3.216.781-5.6,2.381-6.895,2.656a3.257,3.257,0,0,1-2.975-.423,1.908,1.908,0,0,1-.423-.764,3.849,3.849,0,0,0,3.4.6Z" transform="translate(-7.122 -366.637)" fill="#bf4b4b"/>
      <path id="_Контур_7" data-name="&lt;Контур&gt;" d="M15.947,408.4a38.489,38.489,0,0,1,1.468-6.977s-.434-6.021-.654-11.733c-.253-6.477-2.5-12.179-.726-17.353l20.019,4.448s-1.21,25.842-1.479,28.96a58.2,58.2,0,0,1-.9,7.252c-.913,5.014-2.4,16.94-2.4,16.94a7.448,7.448,0,0,1-4.888.55s.154-15.087.291-18.694c.165-4.4.3-4.074.3-4.074l-.66-11-.429-5.465s-.55,4.014-.913,7.6c-.319,3.123-1.1,5.949-1.913,11.766-.731,5.047-1.919,15.186-1.919,15.186-2.111,1.226-4.981.209-4.981.209S15.376,412.78,15.947,408.4Z" transform="translate(-6.914 -323.421)" fill="#e26161"/>
      <path id="_Контур_8" data-name="&lt;Контур&gt;" d="M21.043,302.416c1.523.077,2.656.467,2.843,0a19.987,19.987,0,0,0,.352-2.381c-.176-.445-.33-.918-.33-.918-1.908-1.177-2.513-3.244-2.749-5.647-.429-4.113,1.792-7.7,5.905-8.143,3.849-.407,6.713,2.315,7.472,6.048.407,1.842,1.221,5.322.121,8.352-.616,1.693-1.408,3.041-2.2,3.3a20.16,20.16,0,0,1-2.287-.2h0s-.2,1.138-.346,1.875-.082,1.1,1.375,2.018-2.2,2.749-4.6,2.568-5.091-1.649-5.834-3.178C19.927,304.4,20,302.366,21.043,302.416Z" transform="translate(-9.09 -284.232)" fill="#ffcea9"/>
      <path id="_Контур_9" data-name="&lt;Контур&gt;" d="M19.227,316.56c-.418,1.056.654,2.342,3.513,3.238s3.118-.258,3.118-.258a56.841,56.841,0,0,1,5.553,2.865c1.721,1.2,2.48,4.674,2.711,10.535.269,6.779.291,16.841.066,18.579,0,0-3.206,3.195-7.313,2.859s-11-3.97-12.685-6.774c.044-5.949.742-6.917-.22-10.342-2.2-7.841-3.365-11.052-2.3-16.264.885-4.294,2.122-4.828,3.849-4.789a35.9,35.9,0,0,1,3.706.352Z" transform="translate(-5.074 -298.151)" fill="#f4f4f4"/>
      <path id="_Контур_10" data-name="&lt;Контур&gt;" d="M53.956,342.461c-3.365.847-4.157-1.276-4.6-3.035-1.067-4.261-1.649-8.1-2.447-10.524-.94-2.848-1.924-3.3-3.3-3.849-1.649-.649-3.024.726-2.485,4.355a73.536,73.536,0,0,0,3.085,12.382c.423,1.325,1.364,3.678,2.749,4.817,1.737,1.408,4.355,1.347,8.313.363,1.688-.423,3.541-1.43,6.735-2.92.869-.4,1.54-.676,3.189-1.446a11.232,11.232,0,0,0,4.223-3.3c.863-1.248.709-2.045.55-2.326s-.346-.072-.808.451a9.116,9.116,0,0,1-2.425,2.243s1.067-1.1,1.649-1.814a9.193,9.193,0,0,0,1.276-2.078c.3-.731-.324-1.721-.8-1.2s-.7,1.045-1.573,2.089a9.236,9.236,0,0,1-1.589,1.479,16.853,16.853,0,0,0,1.435-2.315c.55-1.127-1.292-.55-2.348.55-.77.8-1.424,1.259-1.446,1.039s-1.518,1.391-2.282,2.2S57.161,341.652,53.956,342.461Z" transform="translate(-18.459 -302.064)" fill="#ffcea9"/>
      <path id="_Контур_11" data-name="&lt;Контур&gt;" d="M41.492,324.06c2.249-.335,3.849.676,4.833,4.085s1.688,6.208,1.688,6.208a6.114,6.114,0,0,1-3.766,2.5c-2.694.649-3.662-.632-3.662-.632s-.748-3.574-1.21-6S38.71,324.467,41.492,324.06Z" transform="translate(-17.602 -301.659)" fill="#ededed"/>
      <path id="パス_4275" data-name="パス 4275" d="M34.763,289.984s3.552-5.4-4.146-6.5c-5.553-.792-9.122,2.777-9.534,6.647-.4,3.7,1.88,7.538,3.53,9.067a6.686,6.686,0,0,0,4.8-.583,27.491,27.491,0,0,0,.1-3.03S26.812,289.885,34.763,289.984Z" transform="translate(-9.47 -283.368)" fill="#2b2a30"/>
    </g>
    <g id="Girl_8" transform="translate(14006.619 3899.718)">
      <ellipse id="楕円形_386" data-name="楕円形 386" cx="19.587" cy="11.308" rx="19.587" ry="11.308" transform="translate(0 95.656)" fill="#d6d8e5" opacity="0.4"/>
      <path id="_Контур_12" data-name="&lt;Контур&gt;" d="M453.743,237.539c.786-1.26,6.785-2.089,8.762,3,.742,1.925.63,6.854,1.26,9.944s2.1,4.851,2.59,7.363-.328,6.716-6.379,7.467-10.7-1.381-12.137-3.315-1.459-6.043,0-8.227,2.59-4,2.59-6.906Z" transform="translate(-435.019 -236.319)" fill="#3a2c6d"/>
      <path id="パス_4118" data-name="パス 4118" d="M446.47,262.1s-1.424,10.074,1.269,17.161,1.942-1.839,1.942-1.839l-.647-2.124s-.535-8.2-.311-10.212.173-3.738.311-3.9-.527-.483-.811-.527S446.47,262.1,446.47,262.1Z" transform="translate(-434.929 -239.612)" fill="#ffcea9"/>
      <path id="_Контур_13" data-name="&lt;Контур&gt;" d="M457.948,236.625s-4.515-1.3-7.251,1.139a6.707,6.707,0,0,0-1.934,6.69c.363,1.424,1.1,3.375,2.227,3.453S457.948,236.625,457.948,236.625Z" transform="translate(-435.262 -236.278)" fill="#3a2c6d"/>
      <path id="_Контур_14" data-name="&lt;Контур&gt;" d="M459.967,251s-.293,5.033-.2,5.4,1.968.725,2.5,1.165-2.736,5.542-4.4,6.3-6.8-1.174-7.156-3.738c-.328-2.348,1.468-4.178,2.167-4.817a10.705,10.705,0,0,1,1.416,0l.147-2.434C456.7,252.079,459.967,251,459.967,251Z" transform="translate(-435.556 -238.291)" fill="#ffcea9"/>
      <path id="_Контур_15" data-name="&lt;Контур&gt;" d="M460.121,257.509c1.416.224,3.03.975,3.254,1.726a16.686,16.686,0,0,1-.406,8.4c-1.226,3.237-2.046,5.3-2.754,6.7,0,0-6.12,2.59-11.049-.44,0,0-.345-3.453-.363-5.326-4.558-3.971-.665-8.874,3.194-12.681a9.368,9.368,0,0,1,1.39,0s-3.453,4.074-1.044,6.388C457.462,260.729,458.481,258.432,460.121,257.509Z" transform="translate(-435.018 -238.956)" fill="#f4f4f4"/>
      <path id="_Контур_16" data-name="&lt;Контур&gt;" d="M450.508,242.85h0c.509-3.237,2.84-5.68,6.181-5.481a6.414,6.414,0,0,1,3.22,11.766,6.509,6.509,0,0,1-.509,1.407c-1.183,1.381-4.316,2.253-5.361,2.262-.863,0-1.666-.82-2.5-2.21A11.184,11.184,0,0,1,450.508,242.85Z" transform="translate(-435.497 -236.425)" fill="#ffcea9"/>
      <path id="パス_4119" data-name="パス 4119" d="M457.8,237.415c2.339.457,4.264,1.114,4.9,3.41.432,1.588,1,4.6.458,5.87l-.328.924-2.84,1.5s-1.321-1.1-.906-4.316a2.417,2.417,0,0,0-.4-1.226,3.557,3.557,0,0,1-.4-.975,3.669,3.669,0,0,0-1.83-1.985,6.322,6.322,0,0,0-5.628.268,6.138,6.138,0,0,1,6.966-3.47Z" transform="translate(-435.577 -236.412)" fill="#3a2c6d"/>
      <path id="_Контур_17" data-name="&lt;Контур&gt;" d="M465.635,281.431c.527-3.28,1.511-5.4,1.053-7.208a65.483,65.483,0,0,0-3.988-10.618c-1.036-2.037-.717-3.453.354-4.264,1.209-.863,2.357-.509,3.453,1.727a35.51,35.51,0,0,1,3.66,9.987,22.253,22.253,0,0,1-.1,8.261c-.466,2.944-1.4,4.6-2.512,7.363C467.24,287.474,465.186,284.228,465.635,281.431Z" transform="translate(-437.114 -239.373)" fill="#ffcea9"/>
      <path id="パス_4120" data-name="パス 4120" d="M462.382,355.83c-1.183.958-3.03.293-3.116.38a47.9,47.9,0,0,1-4.316,3.315c-.742.578-1.891,1.355-1.683,2.477.371,1.994,3.565,1.381,4.774.768s2.184-1.623,3.323-2.331c.82-.509,1.614-.768,1.726-1.8A6.414,6.414,0,0,0,462.382,355.83Z" transform="translate(-435.907 -252.63)" fill="#38226d"/>
      <path id="パス_4121" data-name="パス 4121" d="M463.08,358.61c-.155.984-.941,1.26-1.726,1.726-1.157.716-2.175,1.726-3.384,2.365s-3.893,1.122-4.67-.3c.423,1.925,3.565,1.321,4.756.716s2.184-1.623,3.323-2.331c.82-.509,1.614-.768,1.726-1.8a2.479,2.479,0,0,0-.026-.38Z" transform="translate(-435.915 -253.01)" fill="#9c73ff"/>
      <path id="パス_4122" data-name="パス 4122" d="M452.881,353.9c-1.079.863-2.719.388-2.8.475a45.232,45.232,0,0,1-3.962,3.021c-.682.527-1.727,1.243-1.545,2.262.345,1.83,3.272,1.269,4.377.708s2-1.485,3.047-2.132c.742-.466,1.476-.708,1.6-1.649A6.245,6.245,0,0,0,452.881,353.9Z" transform="translate(-434.719 -252.366)" fill="#38226d"/>
      <path id="パス_4123" data-name="パス 4123" d="M453.571,356.57c-.147.906-.863,1.148-1.606,1.614-1.062.656-1.994,1.606-3.1,2.167s-3.565,1.027-4.316-.276c.388,1.726,3.263,1.208,4.316.656s2-1.485,3.047-2.132c.742-.466,1.476-.708,1.6-1.649a2.075,2.075,0,0,0,.06-.38Z" transform="translate(-434.718 -252.731)" fill="#9c73ff"/>
      <path id="パス_4124" data-name="パス 4124" d="M446.732,288.513c.527-4.083,2.029-10.013,2.029-10.013a12.085,12.085,0,0,0,4.532,1.131,37.586,37.586,0,0,0,6.845-.673,41.145,41.145,0,0,0,2.417,3.738c1.174,1.632,3.453,5.179,2.909,11.472-.354,4.083-2.65,21.443-2.65,21.443a32.343,32.343,0,0,1,1.407,9,72.5,72.5,0,0,1-1.433,10.782l-1.364,9.858s-1.821,1.312-3.116.38l.164-9.642c-.155-2.357-.388-5.835-.544-8.063-.242-3.617-.863-9.366-1.079-10.807s-.647-3.945-.863-6.759-1.278-17.092-1.278-17.092l-.147,2.676s-.147,4.316-.768,9.7-.863,7.769-.863,7.769a11.515,11.515,0,0,1,1.226,3.453c.112,1.157,1.433,10.359.639,14.986l-1.606,11.818a3.116,3.116,0,0,1-2.805.371l-.958-11.947c-.639-4.549-1.994-14.183-2.2-15.434a51.335,51.335,0,0,1-.811-7.639A164.1,164.1,0,0,1,446.732,288.513Z" transform="translate(-434.949 -242.053)" fill="#ffcea9"/>
      <path id="パス_4125" data-name="パス 4125" d="M460.018,277.2l3.513,7.061s5.369,7.855-.19,28.037l1.044,6.224s-10.523,6.759-17.567,0c0,0-2.443-18.654-1.139-27.252a97.764,97.764,0,0,1,3.28-14.614s1.726,1.908,10.592.647" transform="translate(-434.82 -241.801)" fill="#ff6200"/>
      <path id="パス_4126" data-name="パス 4126" d="M468.565,265.027s-2.443,2.434-5.343,2.132l-1.39-4.765s-.863-2.477,1.208-3.565S467.348,260.176,468.565,265.027Z" transform="translate(-437.057 -239.327)" fill="#ededed"/>
      <path id="パス_4127" data-name="パス 4127" d="M451.918,255.914s-2.8-.863-5.758,5.343l1.105.665a47.179,47.179,0,0,1,4.653-6.008Z" transform="translate(-434.938 -238.958)" fill="#ededed"/>
    </g>
    <g id="グループ_2322" data-name="グループ 2322" transform="translate(13814.182 3982.994)">
      <path id="パス_3506" data-name="パス 3506" d="M160.908,460.963c0-10.021-7.375-22.353-16.087-26.343-3.232-1.479-5.9-1.622-8.147-.373l-.271.14-.01.006-.058.034-7.074,4.232a.653.653,0,0,0-.189.94l2.97,4.1c-.1,7.17,3.631,15.575,8.966,21.281v6.028c0,1.122,1.129,2.381,1.841,2.052l4.757-2.2,1.721,3.131a.686.686,0,0,0,.953.265l6.336-3.753v-.011C159.262,468.976,160.908,465.685,160.908,460.963Z" transform="translate(-125.065 -433.402)" fill="#c9d8ff"/>
      <g id="グループ_2321" data-name="グループ 2321" transform="translate(3.897 1.55)">
        <path id="パス_3507" data-name="パス 3507" d="M144.829,472.8v4.776c0,1.122,1.129,2.381,1.841,2.052l4.757-2.2,1.721,3.131a.686.686,0,0,0,.953.265l6.336-3.753v-.011c2.645-1.518,4.29-4.809,4.29-9.531a25.5,25.5,0,0,0-1-6.814Z" transform="translate(-132.781 -441.522)" fill="#0f3299"/>
        <path id="パス_3508" data-name="パス 3508" d="M135.464,435.443l-6.2,3.708a.637.637,0,0,0-.3.447Z" transform="translate(-128.966 -435.443)" fill="#0f3299"/>
      </g>
      <path id="パス_3509" data-name="パス 3509" d="M152.714,466.419c0-10.021-7.375-22.352-16.087-26.343-6.49-2.972-11.813.015-12.663,7.132-.9,7.544,3.025,17,8.852,23.229v6.028c0,1.123,1.129,2.382,1.841,2.053l5.635-2.6C147.308,478.885,152.714,474.993,152.714,466.419Z" transform="translate(-123.835 -434.732)" fill="#6e96ff"/>
      <path id="パス_3510" data-name="パス 3510" d="M146.056,470.483c.314.549.312,1.135,0,1.315a.58.58,0,0,1-.573-.057,1.618,1.618,0,0,1-.571-.6L142.5,466.96a4.464,4.464,0,0,1-3.447-.656,12.6,12.6,0,0,1-5.713-9.889c.011-3.633,2.589-5.1,5.75-3.277a12.6,12.6,0,0,1,5.708,9.892,4.4,4.4,0,0,1-1.155,3.273Zm-7-6.035c2.269,1.31,4.118.257,4.126-2.351a9.048,9.048,0,0,0-4.1-7.1c-2.269-1.31-4.122-.254-4.13,2.354a9.048,9.048,0,0,0,4.1,7.1" transform="translate(-126.121 -437.96)" fill="#fff"/>
    </g>
  </g>
</svg>
