<svg width="62" height="62" fill="none" xmlns="http://www.w3.org/2000/svg"><g clip-path="url(#clip0)"><path d="M13 50C.4 52 1 61 1 61h30L20.8 47.7c-1.4.9-3.8 1.7-7.8 2.3zm36 0c-4.4-.7-6.9-1.7-8.3-2.8L31 61h30s0-9-12-11z" fill="#78D1F4"/><path d="M45 19v-2s-.5-8-8-8-9 8-21 8v2c-2 0-3 3-3 5 0 4 1.4 7 4.4 7 .8 3.5 2.7 6.7 5.6 8.9v3c0 1.3.4 3.1-2.2 4.7L31 61l9.7-13.8c-2-1.5-1.7-3.1-1.7-4.2v-3.8c2.3-2.3 4-5.2 4.8-8.3 3 0 4.2-2.9 4.2-6.9 0-2.1 0-5-3-5z" fill="#FFEDED"/><path d="M45 17v-2C45 4.6 37.6 1 31 1S16 4.5 16 14.9V17c12 0 13-8 21-8s8 8 8 8z" fill="#A06B5F"/><path opacity=".15" d="M21.4 29c1 4.2 5 7 7.6 8.9v3c0 1.3.4 3.1-2.2 4.7-1.9 1-3.9 1.7-6 2 2.6-1.5 2.2-3.3 2.2-4.6v-3h.1c-2.9-2.2-4.9-5.4-5.7-9-3 0-4.4-3-4.4-7 0-2 1-5 3-5v-4.1c0-9 6.3-12.9 12.4-13.7C24.8 3.3 22 7 22 12.9V17s-2.1 9-.6 12zM37 59H9c-.9-3.6.8-7.2 4-9C.4 52 1 61 1 61h60c0-.7-.1-1.3-.3-2H37z" fill="#000064"/><path d="M40.7 47.2c-2-1.5-1.7-3.1-1.7-4.2v-4m-16 1v3c0 1.3.4 3.1-2.2 4.7" stroke="#2E4369" stroke-width="2" stroke-linecap="round" stroke-linejoin="round"/><path d="M36.6 41c3.6-2.3 6.2-5.9 7.2-10.1 3 0 4.2-2.9 4.2-6.9 0-2 0-4.9-3-4.9V17m-29 0v2c-2 0-3 3-3 5 0 4 1.4 7 4.4 7 .9 4.2 3.5 7.8 7.2 10M45 17v-2C45 4.6 37.6 1 31 1S16 4.5 16 14.9V17c12 0 13-8 21-8s8 8 8 8zM13 50C.4 52 1 61 1 61h30L20.8 47.7c-1.4.9-3.8 1.7-7.8 2.3zm36 0c-4.4-.7-6.9-1.7-8.3-2.8L31 61h30s0-9-12-11z" stroke="#2E4369" stroke-width="2" stroke-linecap="round" stroke-linejoin="round"/></g><defs><clipPath id="clip0"><path fill="#fff" d="M0 0h62v62H0z"/></clipPath></defs></svg>