<svg width="62" height="62" fill="none" xmlns="http://www.w3.org/2000/svg"><path d="M61 61s-2.5-10.1-12.4-11l-4.1-.6L35 61h26zM12.6 50C2.6 50.8 1 61 1 61h26l-9.8-11.7c-1.5.3-3.1.6-4.6.7z" fill="#F27E7C"/><path d="M25 2.8c.1 3 .3 16.2-8 16.2v6c0 6.7 2.9 12.6 7.2 15.7l-.2.3v2c0 1.7 0 4.8-6.8 6.3L27 61h8l9.5-11.6C38 47.8 38 44.7 38 43v-2l-.3-.2C42 37.7 45 31.8 45 25v-8C27.4 17 25.3 5.6 25 2.8z" fill="#FFEDED"/><path d="M31 1c-2.1 0-4.1.4-6 1.2v.6C25.3 5.6 27.4 17 45 17v-1.6C45 5 37.6 1 31 1z" fill="#E59A55"/><path d="M25 2.8v-.6c-4.4 1.8-8 6-8 13.2V19c8.3 0 8.2-13.2 8-16.2zM24 43v-2l.2-.3c-4.3-3.1-7.2-8.9-7.2-15.6-.1 1.2-1.2 16.1-5 19.9 4 4 4.9 4.4 4.9 4.4h.4v-.2C24 47.8 24 44.7 24 43zm13.7-2.2l.3.2v2c0 1.6 0 4.6 5.9 6.2.3 0 2.3-.5 6.1-4.2-3.8-3.8-4.9-18.7-5-19.9 0 6.8-3 12.6-7.3 15.7z" fill="#E59A55"/><path opacity=".15" d="M29 41c-5-2-5-9-5-24-.1-3 .2-6 .8-9l3.6-6.8c-1.2.2-2.3.5-3.4 1-4.4 1.8-8 6-8 13.2V25s-1 16-5 20c3.8 3.8 4.8 4.4 4.9 4.4l-4.3.6C2.6 50.8 1 61 1 61h7.1c.6-6.2 6.3-8 13.9-9 7.6-1 12-10 12-10-1.7-.1-3.4-.4-5-1z" fill="#000064"/><path d="M31 1c-6.6 0-14 4-14 14.4V25c0 7.2 3.3 13.4 8 16.3m12 0c4.7-2.9 8-9.1 8-16.3v-9.6C45 5 37.6 1 31 1" stroke="#2E4369" stroke-width="2" stroke-linecap="round" stroke-linejoin="round"/><path d="M45 17C25 17 25 2.2 25 2.2S26.4 19 17 19m27.5 30.4C38 47.8 38 44.7 38 43v-2M27 61h8M24 41v2c0 1.7 0 4.8-6.8 6.3M17 25s-1 16-5 20c4 4 4.9 4.4 4.9 4.4" stroke="#2E4369" stroke-width="2" stroke-linecap="round" stroke-linejoin="round"/><path d="M45 25s1 16 5 20c-4 4-6.1 4.2-6.1 4.2M61 61s-2.5-10.1-12.4-11l-4.1-.6L35 61h26zM12.6 50C2.6 50.8 1 61 1 61h26l-9.8-11.7c-1.5.3-3.1.6-4.6.7z" stroke="#2E4369" stroke-width="2" stroke-linecap="round" stroke-linejoin="round"/></svg>