<svg width="62" height="62" fill="none" xmlns="http://www.w3.org/2000/svg"><path d="M22.6 44.2c-.1 1.8-1.1 4.1-10 5.8C1 52.2 1 61 1 61h60s0-8.6-12.4-11c-8.5-1.6-9.8-3.8-10-5.7" fill="#BDE5FF"/><path d="M37 61l-6-12-6 12h12z" fill="#DD5169"/><path d="M44.6 16c-.3-4.1-3.9-7.2-8-7-7.5 0-8 7.8-19.6 8v2c-3 0-3.1 3.8-3.1 4.7 0 .9.6 7.3 3.7 7.3.8 3.5 2.7 6.7 5.4 9.1V43c0 .4-.2.8-.2 1.2l8.4 4.8 7.4-4.7v-4.6c2.5-2.4 4.3-5.4 5.2-8.7 3 0 3.9-6.3 3.9-7.3S48 19.1 45 19v-3.1l-.4.1z" fill="#FFEDED"/><path d="M44.6 16h.4v-.5C45 5 37.6 1 31 1S17 5 17 15.4V17c11.6-.2 11.7-8 19.6-8 7.9 0 8 7 8 7z" fill="#A06B5F"/><path opacity=".15" d="M22 51l3-5 3 1c2.5-1.4 4.6-3.5 6-6-14 3-14-18-12-23 0-5 0-17 9-17-6.6 0-14 4-14 14.4V19c-3 0-3.1 3.8-3.1 4.7 0 .9.6 7.3 3.7 7.3.8 3.5 2.7 6.7 5.4 9.1V43c0 .3-.1.7-.2 1h-.2c-.1 2-1.1 4.2-10 5.9C1 52.1 1 61 1 61h7c0-2 1-6 5-6 2 .1 4.1-.2 6-1l6 7 2-5-5-5z" fill="#000064"/><path d="M30.6 1c-6.6 0-14 4-14 14.4V19c-3 0-2.9 3.8-2.9 4.7 0 .9.7 7.3 3.8 7.3 1 4.2 3.6 7.9 7.2 10.3m11.9 0c3.6-2.4 6.2-6.1 7.2-10.3 3 0 3.7-6.3 3.7-7.3s.1-4.7-2.9-4.7v-3.6C44.6 5 37.2 1 30.6 1m-8 43.2c-.1 1.8-1.1 4.1-10 5.8C1 52.2 1 61 1 61h60s0-8.6-12.4-11c-8.5-1.6-9.8-3.8-10-5.7" stroke="#2E4369" stroke-width="2" stroke-linecap="round" stroke-linejoin="round"/><path d="M25 61l6-12 6 12m-10-4.2l-8-8.6m15.9 8.6l8.1-8.3M16.6 17c12 0 12-8 20-8s8 7 8 7M23 40v3c0 .4-.2.8-.2 1.2l8.4 4.8 7.4-4.7v-4.4" stroke="#2E4369" stroke-width="2" stroke-linecap="round" stroke-linejoin="round"/></svg>