<svg width="100" height="62" fill="none" xmlns="http://www.w3.org/2000/svg"><path d="M20.002 21.098h59.996v31.997a3.994 3.994 0 01-1.142 2.743 4.005 4.005 0 01-2.721 1.198H24.003a4.004 4.004 0 01-2.81-1.151A3.994 3.994 0 0120 53.095V21.098z" fill="#fff"/><path d="M20.002 13.106a3.992 3.992 0 012.444-3.792A4.006 4.006 0 0124.003 9h52.132a4.004 4.004 0 012.78 1.257 3.993 3.993 0 011.083 2.85v7.992H20.001v-7.993z" fill="#FF8B76"/><path opacity=".15" d="M20.002 21.099h4.001v35.827a4.005 4.005 0 01-2.773-1.112 3.994 3.994 0 01-1.229-2.719V21.099zm0-7.993a3.992 3.992 0 012.444-3.792A4.006 4.006 0 0124.003 9v12.099h-4.002v-7.993z" fill="#003B85"/><path d="M79.998 20.988v32.107a3.993 3.993 0 01-1.142 2.743 4.004 4.004 0 01-2.721 1.198H24.003a4.004 4.004 0 01-2.81-1.15A3.993 3.993 0 0120 53.094V21.099m59.997 0v-7.993a3.993 3.993 0 00-1.084-2.849A4.004 4.004 0 0076.134 9h-52.13c-1.061 0-2.08.421-2.83 1.17a3.993 3.993 0 00-1.172 2.826v7.992l59.997.11zm0-.11H20.001h59.997z" stroke="#2D4267" stroke-width="2" stroke-linecap="round" stroke-linejoin="round"/><circle cx="28.566" cy="15" r="1" transform="rotate(-180 28.566 15)" stroke="#2E4369" stroke-width="2"/><circle cx="35.77" cy="15" r="1" transform="rotate(-180 35.77 15)" stroke="#2E4369" stroke-width="2"/><circle cx="42.975" cy="15" r="1" transform="rotate(-180 42.975 15)" stroke="#2E4369" stroke-width="2"/><path d="M59.85 38.376a44.238 44.238 0 01-10.541 10.43c-.815.56-1.286-.21-.797-.834a60.74 60.74 0 0110.54-10.43c.68-.459 1.223.22.797.834zm-3.804-3.988c.507-.715.045-1.439-.797-.834-.507.357-8.476 7.535-9.96 9.093-1.45-1.265-2.98-2.585-3.342-2.878a.575.575 0 00-.815.064.6.6 0 000 .752 40.61 40.61 0 003.513 4.326.96.96 0 001.34.21l.127-.11a61.296 61.296 0 009.934-10.623zm-10.63 2.75a56.355 56.355 0 006.854-6.077 1.005 1.005 0 000-1.412l-.054-.046c-.245-.174-2.617-2.282-2.88-2.475-.543-.384-1.186.156-.824.816.362.66 1.014 1.705 1.413 2.338-.335.302-4.809 5.426-5.28 6.059-.47.632 0 1.393.797.834l-.027-.037z" fill="#2E4369"/><path d="M79 5.5V2m4 5.182l2.5-2.5M84 12h3.5" stroke="#2E4369" stroke-width="2" stroke-linecap="round"/></svg>