<svg width="100" height="62" fill="none" xmlns="http://www.w3.org/2000/svg"><path d="M64.3 17V1h-24a4 4 0 00-4 4v56h40a4 4 0 004-4V17h-16z" fill="#fff"/><path d="M80.3 17l-16-16v16h16z" fill="#fff"/><path opacity=".15" d="M59.4 1v23h20.9v-7h-16V1h-4.9z" fill="#000064"/><path d="M71.1 36.1c-.1 7.1-5.9 12.9-13 12.8-7.1-.1-12.9-5.9-12.8-13 .1-7.1 5.8-12.8 12.9-12.8h1.1v13h11.8z" fill="#FF8B76"/><path d="M59.3 36.1h14c0-7.9-6.1-14.5-14-15.1v15.1z" fill="#61E0B2"/><path d="M36.3 61h40a4 4 0 004-4V17l-16-16h-24a4 4 0 00-4 4v27.7" stroke="#2E4369" stroke-width="2" stroke-miterlimit="10" stroke-linecap="round" stroke-linejoin="round"/><path d="M71.1 35.9c0 7.1-5.8 12.9-12.9 12.9-7.1 0-12.9-5.8-12.9-12.9C45.3 28.8 51 23 58.2 23h1.1m5-22v16h16l-16-16z" stroke="#2E4369" stroke-width="2" stroke-miterlimit="10" stroke-linecap="round" stroke-linejoin="round"/><path d="M59.3 35.9h14c0-7.9-6.1-14.4-14-15v15z" stroke="#2E4369" stroke-width="2" stroke-miterlimit="10" stroke-linecap="round" stroke-linejoin="round"/><path d="M11 61h14M13 33h12m0 9h6m5.3 0h.01m-.01 9h.01M17 51h11" stroke="#2E4369" stroke-width="2" stroke-linecap="round" stroke-linejoin="round"/></svg>