<svg width="100" height="62" viewBox="0 0 100 62" fill="none" xmlns="http://www.w3.org/2000/svg">
<path d="M52 32C52 31.4477 52.4477 31 53 31H66C66.5523 31 67 31.4477 67 32V56H53C52.4477 56 52 55.5523 52 55V32Z" fill="#D7ECFF" stroke="#2E4369" stroke-width="2"/>
<path d="M67 25C67 24.4477 67.4477 24 68 24H81C81.5523 24 82 24.4477 82 25V56H67V25Z" fill="#FFE8AD" stroke="#2E4369" stroke-width="2"/>
<path d="M82 36C82 35.4477 82.4477 35 83 35H96C96.5523 35 97 35.4477 97 36V55C97 55.5523 96.5523 56 96 56H82V36Z" fill="#FFBAA4" stroke="#2E4369" stroke-width="2"/>
<path d="M74.6895 35.0923C75.0806 35.0923 75.3442 34.8286 75.3442 34.4287V29.3047C75.3442 28.8477 75.063 28.562 74.5928 28.562C74.3203 28.562 74.1094 28.6016 73.8018 28.8125L72.5449 29.6826C72.3384 29.8276 72.2593 29.9771 72.2593 30.1792C72.2593 30.4604 72.457 30.6538 72.7251 30.6538C72.8613 30.6538 72.9536 30.623 73.0767 30.5352L74.0039 29.8892H74.0303V34.4287C74.0303 34.8286 74.2983 35.0923 74.6895 35.0923Z" fill="#2E4369"/>
<path d="M58.0635 41H61.5747C61.9175 41 62.124 40.7847 62.124 40.4727C62.124 40.1519 61.9175 39.9453 61.5747 39.9453H59.1841V39.9189L60.5552 38.6006C61.5923 37.6206 61.9702 37.1372 61.9702 36.3638C61.9702 35.2739 61.0649 34.5181 59.7202 34.5181C58.5205 34.5181 57.7251 35.1729 57.5098 35.876C57.479 35.9683 57.4614 36.0605 57.4614 36.1616C57.4614 36.4912 57.6724 36.7021 58.0283 36.7021C58.314 36.7021 58.4678 36.5791 58.6172 36.3154C58.8457 35.8057 59.1973 35.5508 59.707 35.5508C60.2739 35.5508 60.6782 35.9243 60.6782 36.4473C60.6782 36.9043 60.4761 37.2119 59.6938 37.9634L57.8042 39.7695C57.5361 40.0156 57.4395 40.1826 57.4395 40.4331C57.4395 40.7671 57.646 41 58.0635 41Z" fill="#2E4369"/>
<path d="M89.8037 45.1406C91.2759 45.1406 92.2734 44.376 92.2734 43.2246C92.2734 42.3501 91.6626 41.7964 90.7178 41.7085V41.6821C91.4648 41.5283 92.0405 41.001 92.0405 40.1968C92.0405 39.1816 91.1353 38.5181 89.7949 38.5181C88.6743 38.5181 87.9536 39.0366 87.6724 39.6562C87.6064 39.8057 87.5757 39.9331 87.5757 40.0825C87.5757 40.4033 87.7646 40.6187 88.1338 40.6187C88.4326 40.6187 88.5864 40.5088 88.7314 40.21C88.938 39.7617 89.2632 39.5376 89.7993 39.5376C90.4409 39.5376 90.7837 39.876 90.7837 40.3857C90.7837 40.9043 90.353 41.2646 89.6895 41.2646H89.4302C89.1094 41.2646 88.9248 41.458 88.9248 41.7349C88.9248 42.0205 89.1094 42.2095 89.4302 42.2095H89.707C90.4761 42.2095 90.9287 42.5522 90.9243 43.1675C90.9243 43.6948 90.4761 44.0728 89.8257 44.0728C89.1665 44.0728 88.8237 43.8091 88.5996 43.3652C88.4678 43.1235 88.3008 43.0181 88.0371 43.0181C87.6724 43.0181 87.4526 43.2334 87.4526 43.5762C87.4526 43.708 87.4834 43.8486 87.5537 43.9937C87.8525 44.6177 88.5952 45.1406 89.8037 45.1406Z" fill="#2E4369"/>
<path d="M64 31H67V56H64V31Z" fill="#003B85" fill-opacity="0.15"/>
<path d="M82 35H86V56H82V35Z" fill="#003B85" fill-opacity="0.15"/>
<path d="M61 32V28H52V36H57C59.2091 36 61 34.2091 61 32Z" fill="#003B85" fill-opacity="0.15"/>
<rect x="2.37762" y="16" width="57.7312" height="14.4328" rx="3" fill="#F0F4F5" stroke="#2E4369" stroke-width="2"/>
<path d="M41.6685 21.8887C37.1156 21.8887 33.4246 25.5796 33.4246 30.1326H49.9125C49.9125 25.5796 46.2215 21.8887 41.6685 21.8887Z" fill="#003B85" fill-opacity="0.15"/>
<path d="M38.3897 35.5217C42.3367 35.5217 45.5363 32.3265 45.5363 28.385C45.5363 24.4435 42.3367 21.2483 38.3897 21.2483C34.4428 21.2483 31.2432 24.4435 31.2432 28.385C31.2432 32.3265 34.4428 35.5217 38.3897 35.5217Z" fill="white" stroke="#2D4267" stroke-width="2" stroke-linecap="round" stroke-linejoin="round"/>
<path d="M49.0028 39.0001L43.8464 33.8508" stroke="#2D4267" stroke-width="2" stroke-linecap="round" stroke-linejoin="round"/>
<rect x="7" y="19" width="1" height="8" rx="0.5" fill="#2E4369"/>
</svg>
