<svg width="100" height="62" fill="none" xmlns="http://www.w3.org/2000/svg"><path d="M26 1c14 0 24 5.2 24 16v10c.7 2.9 2.1 5.7 4 8 .9.9 1.2 2.5-.9 3.1-1.9.5-2.5.4-2.7 1.7-.2 1.3.6 2.8-.6 3.2-1.2.4-.1 1.7-1.3 2.7-.8.7 1 5.2-3.4 5.2h-4.7c-2.3 0-2.4 1.7-2.4 4s2 6 2 6H12s4-4.1 4-8c0-6-12-15.5-12-32C4 5.2 16 1 26 1z" fill="#fff"/><path d="M35.5 13.2C31.7 8.4 24.8 7.6 20 11.4c-.7.5-1.2 1.1-1.8 1.8-4.3.7-7.2 4.8-6.4 9.2.7 3.8 4 6.6 7.9 6.6.3 0 .5-.1.7-.1 3.8 2.8 9 2.8 12.9 0h.4c4.4 0 8-3.6 8-8 0-3.7-2.6-6.9-6.2-7.7z" fill="#99DDC9"/><path opacity=".25" d="M35.5 13.2C31.7 8.4 24.8 7.6 20 11.4c-.7.5-1.2 1.1-1.8 1.8-2.1.4-4 1.6-5.2 3.3 1-.7 2-1.1 3.2-1.3 3.8-4.7 10.7-5.5 15.4-1.7.7.5 1.2 1.1 1.8 1.8 4.3 1 7 5.2 6 9.5-.2 1-.6 2-1.2 2.8 3.6-2.5 4.5-7.5 2-11.1-1.1-1.7-2.8-2.9-4.7-3.3z" fill="#fff"/><path opacity=".14" d="M16 59s4-4.1 4-8c0-6-12-15.5-12-32 0-8.3 3.3-13.3 7.8-16.3C9.3 5.1 4 10.5 4 21c0 16.5 12 26 12 32 0 3.9-4 8-4 8h28s-.5-.9-.9-2H16z" fill="#000064"/><path d="M27 15l-5.3 8h10l-5 7.4" stroke="#2E4369" stroke-width="2" stroke-linecap="round" stroke-linejoin="round"/><path d="M35.5 13.2C31.7 8.4 24.8 7.6 20 11.4c-.7.5-1.2 1.1-1.8 1.8-4.3.7-7.2 4.8-6.4 9.2.7 3.8 4 6.6 7.9 6.6.3 0 .5-.1.7-.1 3.8 2.8 9 2.8 12.9 0h.4c4.4 0 8-3.6 8-8 0-3.7-2.6-6.9-6.2-7.7z" stroke="#2E4369" stroke-width="2" stroke-linecap="round" stroke-linejoin="round"/><path d="M60.3 41.3l12.5-4.6c1.8.4 3.6.6 5.4.6 11 0 19.9-7.1 19.9-15.9S89.2 5.6 78.2 5.6c-11 0-19.9 7.1-19.9 15.9 0 4.4 2.3 8.5 6 11.4l-4 8.4z" fill="#fff"/><path opacity=".14" d="M82.2 34c-11 0-19.9-7.4-19.9-16.6 0-2.6.8-5.2 2.2-7.5-3.8 2.8-6.2 7-6.2 11.5s2.3 8.5 6 11.4l-4 8.5 12.5-4.6c1.8.4 3.6.6 5.4.6 6.8 0 12.9-2.8 16.5-7-3.7 2.5-8.1 3.8-12.5 3.7z" fill="#000064"/><path opacity=".4" d="M85.5 18.1c7.9 2.6 7.8-.5 6.9-2.5-.5-.9-1.1-1.8-1.9-2.6-3.7-3.6-7.8-3.4-10.4-2.3-2.6 1.1-2.6 4.8 5.4 7.4z" fill="#fff"/><path d="M70.2 22.8a1.3 1.3 0 100-2.6 1.3 1.3 0 000 2.6zm8 0a1.3 1.3 0 100-2.6 1.3 1.3 0 000 2.6zm7.9 0a1.3 1.3 0 100-2.6 1.3 1.3 0 000 2.6z" fill="#2E4369"/><path d="M60.3 41.3l12.5-4.6c1.8.4 3.6.6 5.4.6 11 0 19.9-7.1 19.9-15.9S89.2 5.6 78.2 5.6c-11 0-19.9 7.1-19.9 15.9 0 4.4 2.3 8.5 6 11.4l-4 8.4z" stroke="#2E4369" stroke-width="2" stroke-miterlimit="10" stroke-linecap="round" stroke-linejoin="round"/><path d="M70.2 22.8a1.3 1.3 0 100-2.6 1.3 1.3 0 000 2.6zm8 0a1.3 1.3 0 100-2.6 1.3 1.3 0 000 2.6zm7.9 0a1.3 1.3 0 100-2.6 1.3 1.3 0 000 2.6z" stroke="#2E4369" stroke-width="2" stroke-miterlimit="10" stroke-linecap="round" stroke-linejoin="round"/><path d="M26 1c14 0 24 5.2 24 16v10c.7 2.9 2.1 5.7 4 8 .9.9 1.2 2.5-.9 3.1-1.9.5-2.5.4-2.7 1.7-.2 1.3.6 2.8-.6 3.2-1.2.4-.1 1.7-1.3 2.7-.8.7 1 5.2-3.4 5.2h-4.7c-2.3 0-2.4 1.7-2.4 4s2 6 2 6H12s4-4.1 4-8c0-6-12-15.5-12-32C4 5.2 16 1 26 1z" stroke="#2E4369" stroke-width="2" stroke-linecap="round" stroke-linejoin="round"/></svg>