<svg width="100" height="62" fill="none" xmlns="http://www.w3.org/2000/svg"><path d="M2.42 20.863l49.863-3.164 1.685 26.546a3.326 3.326 0 01-.825 2.41 3.335 3.335 0 01-2.29 1.122L7.756 50.512A3.336 3.336 0 014.45 48.69a3.325 3.325 0 01-.346-1.28L2.42 20.862z" fill="#fff"/><path d="M2.006 14.335a3.324 3.324 0 011.901-3.34c.414-.194.864-.3 1.321-.314l43.097-2.735a3.336 3.336 0 013.241 1.933c.187.406.29.845.303 1.292l.421 6.642-49.863 3.165-.421-6.643z" fill="#F2A89C"/><path opacity=".15" d="M2.42 20.863l3.44-.218L7.75 50.42a3.338 3.338 0 01-3.275-1.76 3.324 3.324 0 01-.37-1.25L2.42 20.862zm-.414-6.528a3.324 3.324 0 011.901-3.34c.414-.194.864-.3 1.321-.314l.632 9.964-3.44.218-.414-6.528z" fill="#003B85"/><path d="M52.29 17.813l1.678 26.432a3.326 3.326 0 01-3.115 3.532L7.756 50.512A3.336 3.336 0 014.45 48.69a3.325 3.325 0 01-.346-1.28L2.42 20.862m49.863-3.164l-.414-6.528a3.325 3.325 0 00-2.227-3.044 3.336 3.336 0 00-1.317-.18L5.228 10.68a3.335 3.335 0 00-3.078 2.306c-.14.435-.19.894-.144 1.348l.421 6.643 49.856-3.28zm.007.114L2.427 20.978l49.863-3.165z" stroke="#2D4267" stroke-width="2" stroke-linecap="round" stroke-linejoin="round"/><path d="M46.475 31.406l-3.326.21-5.294-4.677-4.368 10.281-9.04-11.085-7.355 15.46-3.852-8.08-3.325.21" stroke="#2D4267" stroke-width="2" stroke-linecap="round" stroke-linejoin="round"/><circle cx="9.103" cy="15.668" r="1" transform="rotate(176.369 9.103 15.668)" stroke="#2E4369" stroke-width="2"/><circle cx="15.091" cy="15.289" r="1" transform="rotate(176.369 15.091 15.289)" stroke="#2E4369" stroke-width="2"/><circle cx="21.079" cy="14.908" r="1" transform="rotate(176.369 21.079 14.908)" stroke="#2E4369" stroke-width="2"/><path d="M47.854 20.941l49.822 3.765-2.008 26.57a3.326 3.326 0 01-3.456 3.03l-43.29-3.271a3.335 3.335 0 01-2.261-1.132 3.325 3.325 0 01-.815-2.392l2.008-26.57z" fill="#fff"/><path d="M48.356 14.305a3.325 3.325 0 012.268-2.996 3.336 3.336 0 011.313-.163l43.29 3.271a3.326 3.326 0 012.95 3.652l-.501 6.637-49.822-3.765.502-6.636z" fill="#9BC3E8"/><path opacity=".15" d="M47.854 20.941l3.323.251-2.248 29.751a3.326 3.326 0 01-3.083-3.432l2.008-26.57zm.502-6.636a3.325 3.325 0 012.268-2.996 3.336 3.336 0 011.313-.163l-.76 10.046-3.323-.25.502-6.637z" fill="#003B85"/><path d="M97.683 24.615l-2.015 26.661a3.326 3.326 0 01-3.456 3.03l-43.29-3.271a3.335 3.335 0 01-2.261-1.132 3.325 3.325 0 01-.815-2.392l2.008-26.57m49.822 3.765l.501-6.636a3.325 3.325 0 00-.721-2.434 3.334 3.334 0 00-2.23-1.219l-43.29-3.271a3.335 3.335 0 00-2.422.794 3.325 3.325 0 00-1.151 2.273l-.502 6.637 49.815 3.856zm.007-.091L47.86 20.85l49.822 3.765z" stroke="#2D4267" stroke-width="2" stroke-linecap="round" stroke-linejoin="round"/><path d="M70.211 41.366a5.443 5.443 0 005.842-5.014 5.443 5.443 0 00-5.022-5.834 5.443 5.443 0 00-5.841 5.014 5.443 5.443 0 005.021 5.834zm7.572 2.896l-3.624-4.21" stroke="#2D4267" stroke-width="2" stroke-linecap="round" stroke-linejoin="round"/><circle cx="55.161" cy="16.684" r="1" transform="rotate(-175.678 55.16 16.684)" stroke="#2E4369" stroke-width="2"/><circle cx="61.144" cy="17.137" r="1" transform="rotate(-175.678 61.144 17.137)" stroke="#2E4369" stroke-width="2"/><circle cx="67.126" cy="17.589" r="1" transform="rotate(-175.678 67.126 17.589)" stroke="#2E4369" stroke-width="2"/></svg>