<svg width="100" height="62" fill="none" xmlns="http://www.w3.org/2000/svg"><path d="M17 18h60v36H21a4 4 0 01-4-4V18z" fill="#fff"/><path d="M17 10a4 4 0 014-4h52a4 4 0 014 4v8H17v-8z" fill="#A6B1C9"/><path d="M23 13a1 1 0 100-2 1 1 0 000 2zm7 0a1 1 0 100-2 1 1 0 000 2zm7 0a1 1 0 100-2 1 1 0 000 2z" fill="#F27E7C"/><path opacity=".15" d="M17 18h4v36a4 4 0 01-4-4V18zm0-8a4 4 0 014-4v12h-4v-8z" fill="#000064"/><path d="M77 18v-8a4 4 0 00-4-4H21a4 4 0 00-4 4v8m60 0H17m60 0v36H21a4 4 0 01-4-4V18" stroke="#2E4369" stroke-width="2" stroke-linecap="round" stroke-linejoin="round"/><path d="M69 34h-4l-6-6-6 12-10-14-10 18-4-10h-4m-2-21a1 1 0 100-2 1 1 0 000 2zm7 0a1 1 0 100-2 1 1 0 000 2zm7 0a1 1 0 100-2 1 1 0 000 2z" stroke="#2E4369" stroke-width="2" stroke-linecap="round" stroke-linejoin="round"/><circle cx="76" cy="50" r="9" fill="#FF8B76" stroke="#2E4369" stroke-width="2"/><path d="M71.5 49.5L75 53l5.5-5.5" stroke="#fff" stroke-width="2" stroke-linecap="round" stroke-linejoin="round"/></svg>