<svg width="100" height="62" fill="none" xmlns="http://www.w3.org/2000/svg"><path d="M14 15h55v33H18a4 4 0 01-4-4V15z" fill="#fff"/><path d="M14 8a4 4 0 014-4h47a4 4 0 014 4v7H14V8z" fill="#A6B1C9"/><path opacity=".15" d="M14 15h3.667v33A3.667 3.667 0 0114 44.333V15zm0-7.333A3.667 3.667 0 0117.667 4v11H14V7.667z" fill="#000064"/><path d="M69 15V8a4 4 0 00-4-4H18a4 4 0 00-4 4v7m55 0H14m55 0v33H18a4 4 0 01-4-4V15" stroke="#2E4369" stroke-width="2" stroke-linecap="round" stroke-linejoin="round"/><path d="M19.583 10.583a1 1 0 100-2 1 1 0 000 2zm6.417 0a1 1 0 100-2 1 1 0 000 2zm6.417 0a1 1 0 100-2 1 1 0 000 2z" stroke="#2E4369" stroke-width="2" stroke-linecap="round" stroke-linejoin="round"/><path d="M18 19h55v33H22a4 4 0 01-4-4V19z" fill="#fff"/><path d="M18 12a4 4 0 014-4h47a4 4 0 014 4v7H18v-7z" fill="#A6B1C9"/><path opacity=".15" d="M18 19h3.667v33A3.667 3.667 0 0118 48.333V19zm0-7.333A3.667 3.667 0 0121.667 8v11H18v-7.333z" fill="#000064"/><path d="M73 19v-7a4 4 0 00-4-4H22a4 4 0 00-4 4v7m55 0H18m55 0v33H22a4 4 0 01-4-4V19" stroke="#2E4369" stroke-width="2" stroke-linecap="round" stroke-linejoin="round"/><path d="M23.583 14.583a1 1 0 100-2 1 1 0 000 2zm6.417 0a1 1 0 100-2 1 1 0 000 2zm6.417 0a1 1 0 100-2 1 1 0 000 2z" stroke="#2E4369" stroke-width="2" stroke-linecap="round" stroke-linejoin="round"/><path d="M22 23h55v33H26a4 4 0 01-4-4V23z" fill="#fff"/><path d="M22 16a4 4 0 014-4h47a4 4 0 014 4v7H22v-7z" fill="#A6B1C9"/><path opacity=".15" d="M22 23h3.667v33A3.667 3.667 0 0122 52.333V23zm0-7.333A3.667 3.667 0 0125.667 12v11H22v-7.333z" fill="#000064"/><path d="M77 23v-7a4 4 0 00-4-4H26a4 4 0 00-4 4v7m55 0H22m55 0v33H26a4 4 0 01-4-4V23" stroke="#2E4369" stroke-width="2" stroke-linecap="round" stroke-linejoin="round"/><path d="M27.583 18.583a1 1 0 100-2 1 1 0 000 2zm6.417 0a1 1 0 100-2 1 1 0 000 2zm6.417 0a1 1 0 100-2 1 1 0 000 2z" stroke="#2E4369" stroke-width="2" stroke-linecap="round" stroke-linejoin="round"/><circle cx="74" cy="50" r="9" fill="#FF8B76" stroke="#2E4369" stroke-width="2"/><path d="M69.5 49.5L73 53l5.5-5.5" stroke="#fff" stroke-width="2" stroke-linecap="round" stroke-linejoin="round"/></svg>