<svg width="100" height="62" viewBox="0 0 100 62" fill="none" xmlns="http://www.w3.org/2000/svg">
<path d="M57 59H93C95.2091 59 97 57.2091 97 55V19L81 3H57C54.7909 3 53 4.79086 53 7V55C53 57.2091 54.7909 59 57 59Z" fill="white" stroke="#2E4369" stroke-width="2" stroke-linejoin="round"/>
<path d="M97 19L81 3V19H97Z" fill="#FF8C8C"/>
<path opacity="0.15" d="M76 4V24C76 24.5523 76.4477 25 77 25H96V19.3043H80.689V4H76Z" fill="#000064"/>
<path d="M81 3V19H97L81 3Z" stroke="#2E4369" stroke-width="2" stroke-miterlimit="10" stroke-linecap="round" stroke-linejoin="round"/>
<path d="M60.3818 41.167C61.2168 41.167 61.709 40.6572 61.709 39.7871V37.001H64.082C66.7539 37.001 68.6084 35.2607 68.6084 32.6592C68.6084 30.0488 66.8154 28.3174 64.2139 28.3174H60.3818C59.5469 28.3174 59.0547 28.8271 59.0547 29.6973V39.7871C59.0547 40.6572 59.5469 41.167 60.3818 41.167ZM61.709 34.9268V30.418H63.5107C65.0312 30.418 65.9102 31.2266 65.9102 32.668C65.9102 34.1182 65.0225 34.9268 63.502 34.9268H61.709Z" fill="#2E4369"/>
<path d="M71.5088 41H75.0244C78.8301 41 81.0713 38.6357 81.0713 34.6104C81.0713 30.585 78.8301 28.3174 75.0244 28.3174H71.5088C70.6738 28.3174 70.1816 28.8271 70.1816 29.6973V39.6113C70.1816 40.4902 70.6738 41 71.5088 41ZM72.8359 38.8027V30.5059H74.708C77.0459 30.5059 78.3643 31.9648 78.3643 34.6191C78.3643 37.3613 77.0811 38.8027 74.708 38.8027H72.8359Z" fill="#2E4369"/>
<path d="M84.1123 41.167C84.9473 41.167 85.4395 40.6572 85.4395 39.7871V36.0078H89.6143C90.3086 36.0078 90.748 35.6123 90.748 34.9531C90.748 34.3027 90.2998 33.9072 89.6143 33.9072H85.4395V30.5146H90.0449C90.7656 30.5146 91.249 30.1016 91.249 29.416C91.249 28.7305 90.7744 28.3174 90.0449 28.3174H84.1123C83.2773 28.3174 82.7852 28.8271 82.7852 29.6973V39.7871C82.7852 40.6572 83.2773 41.167 84.1123 41.167Z" fill="#2E4369"/>
<path d="M7 59H43C45.2091 59 47 57.2091 47 55V19L31 3H7C4.79086 3 3 4.79086 3 7V55C3 57.2091 4.79086 59 7 59Z" fill="white" stroke="#2E4369" stroke-width="2" stroke-linejoin="round"/>
<path d="M8.11719 40.5H13.4766C14.125 40.5 14.5469 40.1328 14.5469 39.5234C14.5469 38.9141 14.1172 38.5469 13.4766 38.5469H9.29688V35.7031H13.2734C13.8672 35.7031 14.2578 35.3594 14.2578 34.7969C14.2578 34.2344 13.8594 33.8906 13.2734 33.8906H9.29688V31.1797H13.4766C14.1172 31.1797 14.5469 30.8125 14.5469 30.2031C14.5469 29.5938 14.125 29.2266 13.4766 29.2266H8.11719C7.375 29.2266 6.9375 29.6797 6.9375 30.4531V39.2656C6.9375 40.0469 7.375 40.5 8.11719 40.5Z" fill="#2E4369"/>
<path d="M16.4144 40.6641C16.8206 40.6641 17.0472 40.5312 17.3597 40.0469L18.9925 37.5938H19.0394L20.7034 40.0859C20.9613 40.4766 21.18 40.6641 21.6253 40.6641C22.2425 40.6641 22.7113 40.2734 22.7113 39.6562C22.7113 39.4062 22.6331 39.1875 22.4613 38.9531L20.5159 36.2656L22.43 33.7109C22.6488 33.4297 22.7347 33.2031 22.7347 32.9219C22.7347 32.3438 22.305 31.9531 21.6644 31.9531C21.2425 31.9531 21.0003 32.1406 20.6956 32.6172L19.1644 34.9531H19.1175L17.555 32.6016C17.2503 32.1172 17.0081 31.9531 16.5472 31.9531C15.9222 31.9531 15.4534 32.3828 15.4534 32.9531C15.4534 33.2188 15.5316 33.4453 15.6956 33.6641L17.6488 36.3281L15.6878 38.9531C15.4691 39.2422 15.3831 39.4609 15.3831 39.7344C15.3831 40.2812 15.8128 40.6641 16.4144 40.6641Z" fill="#2E4369"/>
<path d="M27.3131 40.6797C28.9147 40.6797 30.3444 39.8828 30.8444 38.7422C30.9459 38.5156 30.9928 38.3281 30.9928 38.1484C30.9928 37.5859 30.5631 37.2344 30.0319 37.2344C29.5475 37.2344 29.2975 37.4297 28.9928 37.9062C28.6413 38.5 28.1491 38.8906 27.3522 38.8906C26.2116 38.8906 25.5006 37.9531 25.5006 36.3047C25.5006 34.6875 26.2116 33.7344 27.3678 33.7344C28.0944 33.7344 28.6022 34.0703 29.0163 34.8047C29.2506 35.2188 29.5241 35.3984 29.9772 35.3984C30.5163 35.3984 30.9538 35.0703 30.9538 34.5078C30.9538 34.3438 30.9069 34.1406 30.8288 33.9453C30.3756 32.7578 28.9772 31.9453 27.2975 31.9453C24.7819 31.9453 23.1881 33.6328 23.1881 36.3125C23.1881 39.0234 24.7897 40.6797 27.3131 40.6797Z" fill="#2E4369"/>
<path d="M35.7431 40.6797C37.3603 40.6797 38.6572 40.0703 39.2119 39.0391C39.3134 38.8516 39.3681 38.6641 39.3681 38.4844C39.3681 37.9609 38.9697 37.6484 38.4775 37.6484C38.1806 37.6484 37.9775 37.7344 37.7353 37.9844C37.1181 38.7109 36.5713 38.9922 35.7353 38.9922C34.5791 38.9922 33.8291 38.1797 33.8291 36.9375V36.8359H38.6103C39.2431 36.8359 39.6025 36.4766 39.6025 35.8438C39.6025 33.5703 38.0088 31.9453 35.6338 31.9453C33.1572 31.9453 31.5869 33.6562 31.5869 36.3516C31.5869 39.0625 33.1259 40.6797 35.7431 40.6797ZM33.8525 35.4375C33.9306 34.3672 34.6572 33.6328 35.6572 33.6328C36.6572 33.6328 37.3603 34.3438 37.4072 35.4375H33.8525Z" fill="#2E4369"/>
<path d="M41.6575 40.6641C42.3294 40.6641 42.7981 40.2578 42.7981 39.4766V30.25C42.7981 29.4688 42.3294 29.0547 41.6575 29.0547C40.9934 29.0547 40.5169 29.4688 40.5169 30.25V39.4766C40.5169 40.2578 40.9934 40.6641 41.6575 40.6641Z" fill="#2E4369"/>
<path d="M47 19L31 3V19H47Z" fill="#56BD9E"/>
<path opacity="0.15" d="M26 4V24C26 24.5523 26.4477 25 27 25H46V19.3043H30.689V4H26Z" fill="#000064"/>
<path d="M31 3V19H47L31 3Z" stroke="#2E4369" stroke-width="2" stroke-miterlimit="10" stroke-linecap="round" stroke-linejoin="round"/>
</svg>
