<svg xmlns="http://www.w3.org/2000/svg" width="400" height="338.302"><g data-name="グループ 2371" transform="translate(-13780.16 -3808.368)"><g transform="translate(13903.462 3837.718)"><ellipse data-name="楕円形 388" cx="19.587" cy="11.308" rx="19.587" ry="11.308" transform="translate(0 93.595)" fill="#d6d8e5" opacity=".4"/><path data-name="パス 4136" d="M10.359 102.063c1.338 1.088 3.306.095 3.4.2a62.343 62.343 0 004.929 4.1c.863.656 2.132 1.528 1.89 2.788-.414 2.244-4.014 1.554-5.378.863s-2.469-1.821-3.755-2.59c-.915-.57-1.813-.863-1.96-2.02-.119-.734.606-3.367.874-3.341z" fill="#2b2a30"/><path data-name="パス 4137" d="M9.499 104.903c.181 1.1 1.07 1.416 1.977 1.977 1.312.811 2.46 1.985 3.815 2.667s4.385 1.269 5.266-.337c-.475 2.167-4.014 1.485-5.361.8s-2.469-1.821-3.755-2.59c-.915-.57-1.813-.863-1.96-2.02a3.108 3.108 0 01.017-.5z" fill="#bf4b4b"/><path data-name="パス 4138" d="M21.908 97.756c1.338 1.088 3.669-.095 3.772 0a51.773 51.773 0 004.394 3.979c.863.647 2.132 1.528 1.9 2.788-.423 2.244-4.023 1.554-5.378.863s-2.469-1.83-3.755-2.59c-.915-.57-1.821-.863-1.96-2.02a6.183 6.183 0 011.027-3.02z" fill="#2b2a30"/><path data-name="パス 4139" d="M20.916 100.432c.181 1.1 1.07 1.416 1.977 1.977 1.312.811 2.46 1.985 3.815 2.676s4.385 1.26 5.266-.345c-.475 2.167-4.014 1.493-5.361.811s-2.46-1.83-3.746-2.633c-.924-.57-1.821-.863-1.968-2.02a3.107 3.107 0 01.017-.466z" fill="#bf4b4b"/><path data-name="&lt;Контур&gt;" d="M10.247 52.79c.069 2.02.691 10.79.975 15.426s.345 10.359.345 10.359-.8 3.375-1.321 7.355 0 16.513 0 16.513a3.168 3.168 0 003.453 0s2.141-10.039 3.125-14.563 1.165-7.13 1.675-9.927c.622-3.392 1.96-19.215 1.96-19.215h.535l1.433 17.86a19.993 19.993 0 00-.906 4.057c-.388 2.909.414 17.549.414 17.549a3.539 3.539 0 003.695-.155s3.565-19.388 3.565-22.332c0-1.959-.328-27.684-.328-27.684z" fill="#5856d6"/><path data-name="&lt;Контур&gt;" d="M15.089 13.781s.224 4.4.129 4.791-2.02 1.675-2.59 2.141 3.047 3.988 4.8 4.851 7.3-1.312 7.4-4.04-.95-5.015-1.8-5.136-7.939-2.607-7.939-2.607z" fill="#ffcea9"/><path data-name="パス 4140" d="M27.14 21.948c.259-1.942-1.019-3.79.216-5.335 4.316 4.264 3.8 15.538 4.782 22.746 3.228 3.367 9.711 6.69 11.533 7.51.328.155.622.319.552.673a7.994 7.994 0 01-1.511 3.3c-4.316-1.847-7.381-2.909-12.741-8a11.73 11.73 0 01-1.355-1.787c-1.528-4.597-1.917-15.758-1.476-19.107z" fill="#ffcea9"/><path data-name="&lt;Контур&gt;" d="M14.597 19.332s3.194 4.756 7.648 5.179c1.407-1.381 1.528-6.31-.414-7.89 0 0 1.787-1.442 3.013-1.165a6.345 6.345 0 012.78 3.539 28.935 28.935 0 011.571 10.186c-.078 4.67 0 18.939 0 18.939s-.622 3.013-4.653 5.257-7.027 2.469-9.763 1.83c-2.253-.527-4.118-1.321-4.894-2.952.207-3.28 1.666-11.818 1.122-15.935s-1.416-7.182-1.64-10.514.432-3.263 2.106-4.446a25.572 25.572 0 013.125-2.029z" fill="#f4f4f4"/><path data-name="&lt;Контур&gt;" d="M25.033 7.221c-.527-3.453-2.987-6.043-6.517-5.81a6.776 6.776 0 00-3.453 12.37 6.75 6.75 0 00.544 1.493c1.243 1.459 5.015 2.357 6.094 2.2a3.228 3.228 0 002.831-2.27c1.175-2.71.803-6.3.501-7.983z" fill="#ffcea9"/><path data-name="パス 4141" d="M15.089 13.781l.319-2.987s-2.46-6.3 3.323-5.084c3.8.8 4.748 1.148 5.9-1.4S21.713-.533 16.862.11a6.69 6.69 0 00-5.991 6.785c.144 1.862.645 5.661 4.218 6.886z" fill="#2b2a30"/><path data-name="パス 4142" d="M8.348 23.838c1.666-.475.4-.086 1.666-.475 4.316 4.256 3.807 11.559 4.791 18.766 2.4 3.979 11.3 9.331 11.3 9.331.112.768-.155.993-1.122 2.59a38.354 38.354 0 01-13.234-8.537c-.216-.2-.527-.259-.613-.526-1.528-4.627-3.228-17.791-2.788-21.149z" fill="#ffcea9"/><path data-name="パス 4143" d="M47.952 32.738l-6.466 22.116-14.2 5.674 5.179-21.546z" fill="#f4f4f4"/><path data-name="パス 4144" d="M23.868 51.643c.207-.76.751-.57 1.373-.38a3.565 3.565 0 002.1.181 6.492 6.492 0 001.5-1.019 1.856 1.856 0 01.95-.268 13.106 13.106 0 01-.328 1.312h3.453a.527.527 0 01.492.863h.216c.63-.138.863.863.268.984l-.518.078c.414.164.518.863 0 .95h-.164a.672.672 0 01-.224 0h-.181a.544.544 0 01-.466.656c-1.519.2-3.755.8-5.128-.449a8.53 8.53 0 01-2.754-.742c-.822-.414-.848-1.269-.589-2.166z" fill="#ffcea9"/><path data-name="パス 4145" d="M39.389 49.829h.216a.518.518 0 01.3-.941c.319 0 3.522-.673 3.522-.673l.388-1.312c0-.078.552.259.57.276a2.123 2.123 0 01.967 1.6 3.453 3.453 0 01-.924 2.477 3.159 3.159 0 01-2.132.915 10.549 10.549 0 00-1.1.078.561.561 0 01-.6-.553h-.1a.407.407 0 01-.224 0h-.164a.489.489 0 01-.216-.915h-.527c-.684.058-.625-.96.024-.952z" fill="#ffcea9"/><path data-name="パス 4146" d="M28.953 24.831a3.453 3.453 0 002.313-1.036c-.121-1.64-2.21-7.847-6.422-8.313a7.846 7.846 0 012.59 3.177 41.883 41.883 0 011.519 6.172z" fill="#ededed"/><path data-name="パス 4147" d="M7.588 33.031s4.187 1.45 7.139-.984c.328-.552-1.726-7.683-1.726-7.683s-1.726-3.643-4.506-2.193-.907 10.86-.907 10.86z" fill="#ededed"/></g><ellipse data-name="楕円形 412" cx="105.046" cy="61.375" rx="105.046" ry="61.375" transform="translate(13970.069 4023.919)" fill="#d6d8e5" opacity=".4"/><g transform="translate(14068.692 3933.389)"><path data-name="パス 4301" d="M45.677 139.768l-21.184-12.25c-1.525-.879-1.335-2.42.422-3.438l13.72-7.925 26.714 15.422-13.725 7.928a6.562 6.562 0 01-5.947.263z" fill="#d6d8e5" opacity=".4"/><path data-name="パス 4302" d="M47.586 138.645l-21.18-12.232c-1.529-.883-1.335-2.42.422-3.438l13.724-7.925 26.714 15.422-13.72 7.92a6.611 6.611 0 01-5.96.253z" fill="#b1b4c4"/><path data-name="パス 4303" d="M67.27 130.476v-.807l-1.233.71z" fill="#b1b4c4"/><path data-name="パス 4304" d="M25.375 124.958v-.819l1.267.524z" fill="#b1b4c4"/><path data-name="パス 4305" d="M47.586 137.838l-21.18-12.229c-1.529-.883-1.335-2.425.422-3.443l13.724-7.92 26.714 15.422-13.724 7.92a6.615 6.615 0 01-5.956.25z" fill="#d6d8e5"/><path data-name="パス 4306" d="M40.629 114.28l-3.308-10.966L64.326 118.8l2.944 10.869z" fill="#9ea1af"/><path data-name="パス 4307" d="M66.484 130.12l.786-.452-1.166-.929z" fill="#9ea1af"/><path data-name="パス 4308" d="M39.775 114.694l-3.3-10.97 27.005 15.49 3.008 10.907z" fill="#b1b4c4"/><path data-name="パス 4309" d="M108.325 148.605L3.798 88.254a6.353 6.353 0 01-2.653-5.069V2.327C1.145.371 2.332-.529 3.798.321l104.527 60.35a6.345 6.345 0 012.657 5.069v80.859c0 1.956-1.187 2.851-2.657 2.006z" fill="#b1b4c4"/><path data-name="パス 4310" d="M108.866 149.438l1.157-.667-.5-3.434z" fill="#b1b4c4"/><path data-name="パス 4311" d="M.955.818L2.096.159l1.639.95s-1.745.266-1.787.258S.955.818.955.818z" fill="#b1b4c4"/><path data-name="パス 4312" d="M107.37 149.159L2.836 88.808a6.353 6.353 0 01-2.653-5.069V2.88C.183.924 1.37.024 2.836.874L107.37 61.225a6.353 6.353 0 012.653 5.069v80.859c0 1.956-1.187 2.851-2.653 2.006z" fill="#e4e7f2"/><path data-name="パス 4313" d="M109.841 66.399v80.868c0 1.96-1.191 2.86-2.657 2.006L2.653 88.914A6.353 6.353 0 010 83.845V2.986C0 1.03 1.187.135 2.653.98l104.531 60.35a6.357 6.357 0 012.657 5.069z" fill="#d6d8e5"/><path data-name="パス 4314" d="M108.388 144.344L1.326 82.527l.059-79.216c0-.815.566-1.141 1.267-.735l104.532 60.346a2.818 2.818 0 011.267 2.205z" fill="#fff"/><path data-name="パス 4315" d="M101.774 75.481l-94.913-54.8A2.572 2.572 0 015.78 18.62v-6.852c0-.794.482-1.162 1.081-.815l94.913 54.788a2.6 2.6 0 011.081 2.066v6.852c0 .797-.486 1.172-1.081.822z" fill="#e9eaf2"/><ellipse data-name="楕円形 413" cx="1.698" cy="2.94" rx="1.698" ry="2.94" transform="rotate(-30 33.413 -5.423)" fill="#dadce5"/><path data-name="パス 4316" d="M59.472 47.071l-8.208-4.744a.638.638 0 01-.27-.515v-1.086c0-.2.118-.291.27-.207l8.208 4.744a.638.638 0 01.27.515v1.086c0 .197-.118.29-.27.207z" fill="#dadce5"/><path data-name="パス 4317" d="M72.762 54.755l-8.208-4.74a.642.642 0 01-.27-.515v-1.09c0-.2.118-.291.27-.2l8.208 4.74a.638.638 0 01.27.515v1.09c0 .2-.126.269-.27.2z" fill="#dadce5"/><path data-name="パス 4318" d="M85.835 62.289l-8.212-4.74a.663.663 0 01-.27-.52v-1.086c0-.2.122-.291.27-.207l8.212 4.744a.638.638 0 01.27.515v1.086c.001.204-.105.279-.27.208z" fill="#dadce5"/><path data-name="パス 4319" d="M99.125 69.964l-8.212-4.74a.655.655 0 01-.27-.515v-1.081c0-.2.122-.291.27-.2l8.212 4.74a.646.646 0 01.27.515v1.09c.001.191-.122.278-.27.191z" fill="#dadce5"/><path data-name="パス 4320" d="M94.587 92.492L72.275 79.608a2.581 2.581 0 01-1.06-2.04V63.146c0-.794.482-1.157 1.077-.815l22.312 12.88a2.6 2.6 0 011.081 2.066v14.4c-.016.794-.502 1.157-1.098.815z" fill="#e9eaf2"/><path data-name="パス 4321" d="M65.203 97.167L9.237 64.852a1.3 1.3 0 01-.541-1.031v-2.48c0-.4.245-.579.541-.422L65.203 93.23a1.288 1.288 0 01.541 1.031v2.48c-.02.414-.241.595-.541.426z" fill="#e9eaf2"/><path data-name="パス 4322" d="M59.692 99.85L9.399 70.809a1.288 1.288 0 01-.541-1.031v-1.233c0-.4.241-.583.541-.422l50.293 29.038a1.3 1.3 0 01.541 1.031v1.233c0 .412-.245.598-.541.425z" fill="#e9eaf2"/><path data-name="パス 4323" d="M59.692 104.526L9.399 75.493a1.3 1.3 0 01-.541-1.035v-1.233c0-.4.241-.579.541-.422l50.293 29.033a1.31 1.31 0 01.541 1.035v1.233c0 .414-.245.595-.541.422z" fill="#e9eaf2"/><path data-name="パス 4324" d="M46.833 101.785L9.398 80.17a1.288 1.288 0 01-.541-1.031v-1.233c0-.4.241-.583.541-.422l37.435 21.628a1.267 1.267 0 01.541 1.031v1.233c.004.396-.236.578-.541.409z" fill="#e9eaf2"/><path data-name="パス 4325" d="M95.129 98.477L71.739 84.96a1.288 1.288 0 01-.541-1.031v-1.233c0-.4.241-.583.541-.422l23.389 13.517a1.293 1.293 0 01.541 1.035v1.233c.001.41-.24.591-.54.418z" fill="#e9eaf2"/><path data-name="パス 4326" d="M95.129 103.158L71.739 89.64a1.292 1.292 0 01-.541-1.035v-1.233c0-.4.241-.579.541-.422l23.389 13.517a1.288 1.288 0 01.541 1.031v1.233c.001.414-.24.604-.54.427z" fill="#e9eaf2"/><path data-name="パス 4327" d="M89.004 104.301l-17.265-9.972a1.288 1.288 0 01-.541-1.031v-1.233c0-.4.241-.583.541-.422l17.264 10a1.293 1.293 0 01.541 1.035v1.229c.001.382-.24.564-.54.394z" fill="#e9eaf2"/><path data-name="パス 4328" d="M94.587 128.545l-22.312-12.884a2.581 2.581 0 01-1.06-2.061V99.2c0-.794.482-1.162 1.077-.815l22.312 12.88a2.6 2.6 0 011.081 2.066v14.4c-.016.793-.502 1.152-1.098.814z" fill="#e9eaf2"/><path data-name="パス 4329" d="M95.129 134.53l-23.39-13.515a1.288 1.288 0 01-.541-1.031v-1.233c0-.4.241-.583.541-.422l23.389 13.517a1.292 1.292 0 01.541 1.035v1.234c.001.407-.24.588-.54.415z" fill="#e9eaf2"/><path data-name="パス 4330" d="M78.786 76.989l-1.567-4.034-2.851 4.055 3.13 1.808 2.573 1.487 5.736 3.312-4.152-10.708z" fill="#dadce5"/><ellipse data-name="楕円形 414" cx="1.525" cy="2.644" rx="1.525" ry="2.644" transform="rotate(-30 185.018 -125.829)" fill="#dadce5"/><path data-name="パス 4331" d="M78.945 113.575l-1.563-4.034-2.851 4.055 3.13 1.808 2.573 1.483 5.736 3.312-4.157-10.7z" fill="#dadce5"/><ellipse data-name="楕円形 415" cx="1.53" cy="2.653" rx="1.53" ry="2.653" transform="rotate(-29.887 255.424 -109.53)" fill="#dadce5"/><path data-name="パス 4332" d="M64.554 86.696L10.332 55.547a2.315 2.315 0 01-.972-1.85V28.432c0-.71.422-1.039.972-.731L64.554 58.85a2.323 2.323 0 01.967 1.85v25.265c0 .714-.43 1.044-.967.731z" fill="#e9eaf2"/><path data-name="パス 4333" d="M25.393 54.883l-2.678-6.9-4.872 6.942 5.35 3.084 4.4 2.539 9.809 5.665-7.109-18.308z" fill="#dadce5"/><ellipse data-name="楕円形 416" cx="2.611" cy="4.52" rx="2.611" ry="4.52" transform="rotate(-30 136.845 -64.53)" fill="#dadce5"/></g><ellipse data-name="楕円形 411" cx="75.696" cy="44.111" rx="75.696" ry="44.111" transform="translate(13780.16 4010.971)" fill="#d6d8e5" opacity=".4"/><g data-name="グループ 2366" transform="rotate(120 5853.455 6106.454)"><path data-name="パス 4234" d="M35.76 117.331L.646 97.112A1.3 1.3 0 01.7 94.837l4.417-2.275a1.3 1.3 0 011.24.028l36.294 20.9a1.3 1.3 0 01-.052 2.275l-3.199 1.653a3.791 3.791 0 01-3.639-.084z" fill="#d6d8e5" opacity=".4"/><path data-name="パス 4235" d="M37.913 113.524L7.993 96.249c-2.536-1.464-4.571-5.386-4.571-8.766V4.018c0-3.379 2.055-4.93 4.591-3.467l29.92 17.275c2.535 1.464 4.591 5.387 4.591 8.766v83.465c-.021 3.379-2.076 4.931-4.611 3.467z" fill="#b1b4c4"/><path data-name="パス 4236" d="M38.428 115.033l2.371-1.2-2.271-3.9z" fill="#b1b4c4"/><path data-name="パス 4237" d="M2.938 1.383L5.121.239l-.44 3.215z" fill="#b1b4c4"/><path data-name="パス 4238" d="M36.005 114.48L6.085 97.204c-2.536-1.463-4.591-5.39-4.591-8.769V4.974c0-3.38 2.055-4.935 4.591-3.471l29.92 17.275c2.535 1.464 4.591 5.391 4.591 8.77v83.461c.015 3.379-2.056 4.934-4.591 3.471z" fill="#616e84"/><path data-name="パス 4239" d="M40.278 27.759v83.461c0 3.383-2.051 4.935-4.587 3.471l-11.737-6.774-3.647-2.107-14.54-8.4c-2.538-1.461-4.589-5.384-4.589-8.767V5.185c0-3.383 2.051-4.93 4.587-3.471L35.689 18.99c2.523 1.463 4.589 5.386 4.589 8.769z" fill="#20232d"/><path data-name="パス 4240" d="M38.12 26.912v81.29c0 2.047-1.436 2.879-3.2 1.852l-9.353-5.4-.828-.476-.276-.164-2.031-1.156-5.854-3.371-2.427-1.4-.976-.564-6.63-3.825a7.093 7.093 0 01-3.2-5.562V6.83c0-2.048 1.436-2.88 3.2-1.856l11.672 6.746v.032a5.531 5.531 0 002.507 4.331c1.384.8 2.5.148 2.5-1.444v-.036l11.685 6.746a7.125 7.125 0 013.211 5.563z" fill="#fff"/><ellipse data-name="楕円形 393" cx=".778" cy="1.344" rx=".778" ry="1.344" transform="rotate(-29.887 35.242 -30.16)" fill="#2b303f"/><path data-name="パス 4241" d="M20.728 14.54a.884.884 0 01-.4-.688c0-.256.18-.356.4-.232a.88.88 0 01.4.692c0 .255-.18.355-.4.228z" fill="#fff" opacity=".1"/><path data-name="パス 4242" d="M41.491 38.74c-.244.144-.444 0-.444-.332V34.85a1.056 1.056 0 01.444-.844c.244-.144.44 0 .44.332v3.559a1.052 1.052 0 01-.44.843z" fill="#757b89"/><path data-name="パス 4243" d="M41.491 44.571c-.244.144-.444 0-.444-.332v-3.558a1.056 1.056 0 01.444-.844c.244-.144.44 0 .44.332v3.559a1.052 1.052 0 01-.44.843z" fill="#757b89"/><path data-name="パス 4244" d="M32.481 35.49L8.18 21.457a2.951 2.951 0 01-1.236-2.359v-6.694c0-.908.552-1.328 1.236-.932L32.48 25.5a2.971 2.971 0 011.236 2.363v6.69c.001.913-.555 1.329-1.235.937z" fill="#e9eaf2"/><path data-name="パス 4245" d="M6.944 18.366v6.182l3.431-1.823z" fill="#e9eaf2"/><path data-name="パス 4246" d="M30.214 28.712L11.887 18.127v-1.9l18.327 10.581z" fill="#d9dae2"/><path data-name="パス 4247" d="M20.949 26.216l-9.062-5.234v-1.9l9.062 5.231z" fill="#d9dae2"/><path data-name="パス 4248" d="M25.891 65.806L8.18 55.58a2.951 2.951 0 01-1.236-2.359v-3.483c0-.908.552-1.328 1.236-.932l17.711 10.225a2.963 2.963 0 011.236 2.359v3.479c-.001.913-.556 1.332-1.236.937z" fill="#e9eaf2"/><path data-name="パス 4249" d="M6.944 52.373v6.182l3.431-1.823z" fill="#e9eaf2"/><path data-name="パス 4250" d="M24.487 62.738l-13.816-7.981v-1.9l13.816 7.978z" fill="#d9dae2"/><path data-name="パス 4251" d="M16.778 45.047l15.7 9.066c.68.4 1.236-.024 1.236-.932v-6.706a2.959 2.959 0 00-1.236-2.359l-15.7-9.058c-.684-.4-1.236.028-1.236.936v6.694a2.959 2.959 0 001.236 2.359z" fill="#e9eaf2"/><path data-name="パス 4252" d="M33.717 52.449v6.182l-3.435-5.782z" fill="#e9eaf2"/><path data-name="パス 4253" d="M18.785 40.737l10.373 5.99v-1.9l-10.373-5.99z" fill="#d9dae2"/><path data-name="パス 4254" d="M18.785 43.588l5.558 3.215v-1.9l-5.558-3.215z" fill="#d9dae2"/><path data-name="パス 4255" d="M8.18 75.515l24.157 13.948c.684.4 1.236-.024 1.236-.936v-6.69a2.959 2.959 0 00-1.236-2.362L8.18 65.526c-.684-.4-1.236.024-1.236.936v6.694a2.959 2.959 0 001.236 2.359z" fill="#e9eaf2"/><path data-name="パス 4256" d="M33.573 87.799v6.182l-3.431-5.782z" fill="#e9eaf2"/><path data-name="パス 4257" d="M10.651 71.468l17.091 9.869v-1.9l-17.091-9.869z" fill="#d9dae2"/><path data-name="パス 4258" d="M10.651 74.324l15.924 9.2v-1.9l-15.924-9.2z" fill="#d9dae2"/><path data-name="パス 4259" d="M32.481 104.059L8.18 90.022a3.2 3.2 0 01-1.444-2.499v-3.327c0-.92.648-1.292 1.444-.829l24.3 14.028a3.2 3.2 0 011.44 2.5v3.327c.001.916-.647 1.288-1.439.837zM8.18 83.84c-.568-.328-1.032-.064-1.032.592v3.335a2.279 2.279 0 001.032 1.779l24.3 14.028c.568.328 1.028.064 1.028-.592V99.66a2.276 2.276 0 00-1.028-1.784z" fill="#e9eaf2"/><path data-name="パス 4260" d="M9.14 88.911l-.412-.236v-3.171l.412.236z" fill="#e9eaf2"/></g><g data-name="グループ 2364" transform="translate(14044.116 3830.461)"><path data-name="パス 4291" d="M33.351 16.06L6.182.376A2.106 2.106 0 004.372.09a1.243 1.243 0 00-.324.192l-3.03 1.735L3.363 4.77v11.327a6.247 6.247 0 002.814 4.892l8.465 5.318 2.3 5.267-2.415 4.1 3.372-1.918 3.2-3.719 10.206 5.534.553 3.283 3.438-1.97.094-.052h.033a2.031 2.031 0 00.755-1.778V20.989a6.247 6.247 0 00-2.823-4.929z" fill="#8c50ff"/><path data-name="パス 4292" d="M33.351 16.06L6.182.376A2.106 2.106 0 004.372.09a1.243 1.243 0 00-.324.192l-3.03 1.735L3.363 4.77v11.327a6.247 6.247 0 002.814 4.892l8.465 5.318 2.3 5.267-2.415 4.1 3.372-1.918 3.2-3.719 10.206 5.534.553 3.283 3.438-1.97.094-.052h.033a2.031 2.031 0 00.755-1.778V20.989a6.247 6.247 0 00-2.823-4.929z" opacity=".2"/><path data-name="パス 4293" d="M29.979 17.987L2.814 2.304C1.257 1.404 0 2.135 0 3.936V18.01a6.247 6.247 0 002.814 4.892l8.47 5.337 3.25 7.443 3.2-3.719 12.25 6.641c1.562.9 2.814.174 2.814-1.627V22.902a6.243 6.243 0 00-2.819-4.915z" fill="#8c50ff"/><ellipse data-name="楕円形 405" cx="1.59" cy="2.753" rx="1.59" ry="2.753" transform="rotate(-30 27.37 -2.282)" fill="#fff"/><ellipse data-name="楕円形 406" cx="1.595" cy="2.763" rx="1.595" ry="2.763" transform="rotate(-29.887 40.679 -16.308)" fill="#fff"/><ellipse data-name="楕円形 407" cx="1.59" cy="2.753" rx="1.59" ry="2.753" transform="rotate(-30 52.796 -27.697)" fill="#fff"/></g><g data-name="グループ 2296"><path data-name="パス 3305" d="M13843.841 3979.558l-.108-21.314h-30.357l.1 21.031a1.219 1.219 0 000 .283 2.268 2.268 0 001.239 1.54l11.324 6.66a5.588 5.588 0 005.11.216l11.819-6.953a1.493 1.493 0 00.873-1.463z" fill="#f66"/><path data-name="パス 3306" d="M13828.568 3967.265v21.227a4.365 4.365 0 002.394-.42c2.885-1.483 9.023-5.3 12.006-7.053a1.574 1.574 0 00.873-1.466c.174-5.1-.078-20.959-.078-20.959l-13.722 8.677z" fill="#a31074"/><path data-name="パス 3307" d="M13842.879 3959.799l-11.82 6.952a5.584 5.584 0 01-5.109-.216l-11.327-6.662c-1.511-.89-1.676-2.235-.366-3.006l11.819-6.953a5.588 5.588 0 015.11.216l11.326 6.663c1.512.889 1.676 2.235.367 3.006z" fill="#ffc9c9"/><g data-name="グループ 2294"><path data-name="パス 3308" d="M13823.578 3956.322c-2.782 1.637-2.782 4.29 0 5.927a10.949 10.949 0 0010.075 0c2.783-1.637 2.783-4.29 0-5.927l-5.037 2.964z" fill="#f66"/></g><g data-name="グループ 2295"><path data-name="パス 3309" d="M13823.577 3955.076l5.037 2.964 5.038-2.964a10.949 10.949 0 00-10.075 0z" fill="#f66"/></g></g><g data-name="グループ 2297"><path data-name="パス 3310" d="M13893.602 3900.755l-.079-13.982h-22.077l.07 13.775a.893.893 0 000 .207 1.652 1.652 0 00.9 1.12l8.237 4.845a4.062 4.062 0 003.715.157l8.6-5.057a1.085 1.085 0 00.634-1.065z" fill="#ff7038"/><path data-name="パス 3311" d="M13882.494 3893.337v13.919a3.177 3.177 0 001.742-.305c2.1-1.078 6.562-3.854 8.732-5.13a1.145 1.145 0 00.635-1.066c.126-3.709-.057-13.724-.057-13.724l-9.98 6.311z" fill="#a31010"/><path data-name="パス 3312" d="M13892.902 3887.907l-8.6 5.057a4.062 4.062 0 01-3.716-.157l-8.237-4.846c-1.1-.646-1.219-1.625-.267-2.186l8.6-5.057a4.062 4.062 0 013.716.157l8.237 4.846c1.1.647 1.22 1.625.267 2.186z" fill="#ffd8c9"/><path data-name="パス 3313" d="M13878.267 3909.818l-.079-8.666h-22.078l.07 8.46a.889.889 0 000 .206 1.651 1.651 0 00.9 1.12l8.237 4.845a4.062 4.062 0 003.716.157l8.6-5.057a1.086 1.086 0 00.634-1.065z" fill="#ff7038"/><path data-name="パス 3314" d="M13867.159 3907.716v8.6a3.177 3.177 0 001.741-.305c2.1-1.078 6.561-3.853 8.732-5.13a1.145 1.145 0 00.635-1.066c.126-3.71-.057-8.408-.057-8.408l-9.98 6.311z" fill="#a31010"/><path data-name="パス 3315" d="M13877.567 3902.286l-8.6 5.057a4.061 4.061 0 01-3.716-.156l-8.237-4.845c-1.1-.647-1.219-1.626-.267-2.187l8.6-5.057a4.064 4.064 0 013.716.157l8.237 4.846c1.1.646 1.22 1.624.267 2.185z" fill="#ffd8c9"/></g><g data-name="グループ 2310" fill="#f66"><path data-name="パス 3349" d="M13973.836 3860.785l8.524-12.134a27.062 27.062 0 00-8.2-8.338c-8.325-5.032-15.219.055-15.4 11.362s6.424 24.551 14.748 29.583c8.221 4.969 15.035.059 15.377-10.954z"/><path data-name="パス 3350" d="M13987.286 3847.452l-8.481 12.165 15.085 9.465c0-.139.019-.267.021-.408a39.3 39.3 0 00-6.625-21.222z"/></g><g data-name="グループ 2311" fill="#6e96ff"><path data-name="パス 3351" d="M14015.805 3902.286v-40.419l6.575 4.158v40.326z"/><path data-name="パス 3352" d="M14024.43 3907.619v-28.065l6.575 4.157v27.972z"/><path data-name="パス 3353" d="M14006.928 3896.705v-15.954l6.575 4.158v15.861z"/></g><path data-name="パス 3418" d="M14022.659 3917.982l-2.246-2.469a2.032 2.032 0 00-1.921-.629l-2.652.553a1.133 1.133 0 00-.756 1.634l.25.48a1.513 1.513 0 001.079.8l4.873.854z" fill="#ffd8c9"/><path data-name="パス 3419" d="M14022.118 3919.921l-1.2-.517a.643.643 0 01-.327-.851l.427-.962a.944.944 0 011.26-.482l1 .463z" fill="#ffd8c9"/><g data-name="グループ 2333"><path data-name="パス 3540" d="M13900.721 3973.264c7.1 3.333 13.466 13.427 14.069 22.755.242 3.734-.483 6.753-1.919 8.81l-10.226 19.759-4.9 2.439c-.441-1.018-7.6-35.723-7.924-36.768-.766-2.439-6-3.972-6.039-6.347-.149-8.687 10.015-13.898 16.939-10.648zm.9 22.266c2.8 1.422 4.938-.323 4.763-3.868-.174-3.5-2.543-7.387-5.271-8.714-2.7-1.315-4.785.358-4.68 3.763.106 3.45 2.418 7.414 5.185 8.814z" fill="#ffdeb2"/><path data-name="パス 3541" d="M13894.715 4013.284c1.517 7.162 2.844 13.322 3.026 13.743l4.9-2.439 10.226-19.759a10.005 10.005 0 001.324-2.792z" fill="#a33b10"/><path data-name="パス 3542" d="M13891.305 3975.169a9.963 9.963 0 014.2 1.033c7 3.287 13.173 13.288 13.756 22.292.226 3.5-.4 6.425-1.821 8.455l-9.706 18.746-11.245-30.092a31.675 31.675 0 01-1.149-3.072 25.279 25.279 0 01-1.224-7.136c-.071-4.258 1.26-7.612 3.651-9.2a6.287 6.287 0 013.538-1.026z" fill="#ffaf40"/><g data-name="グループ 2332" fill="#fff"><path data-name="パス 3543" d="M13900.584 3987.016a2.256 2.256 0 011.019 1.772l-.036 12.831c0 .652-.464.916-1.026.591a2.257 2.257 0 01-1.025-1.775l.036-12.832c.002-.651.46-.915 1.032-.587z"/><path data-name="パス 3544" d="M13895.733 3987.954a2.259 2.259 0 011.025 1.77l-.026 9.1c0 .652-.464.915-1.031.588a2.258 2.258 0 01-1.025-1.775l.026-9.1c.001-.646.464-.91 1.031-.583z"/><path data-name="パス 3545" d="M13890.877 3991.374a2.259 2.259 0 011.025 1.774l-.008 2.887c0 .652-.464.915-1.031.587a2.257 2.257 0 01-1.025-1.774l.008-2.887c.001-.651.463-.915 1.031-.587z"/></g></g><g data-name="グループ 2335"><path data-name="パス 3550" d="M14176.584 3979.884l-36.61-21.535a2.526 2.526 0 00-2.221-.349 1.631 1.631 0 00-.423.25l-7.141 4.223 6.339 5.176v16.35a7.823 7.823 0 003.447 6.083l17.285 10.168.742 1.315 2.619 16.249a.293.293 0 00.439.21l5.8-3.462-.578-2.346.444.775c.649 1.133 1.746 1.239 1.746.167v-.5l3.149 3.6 7.213-4.3a1.628 1.628 0 00.389-.232 2.646 2.646 0 00.811-2.133v-23.625a7.824 7.824 0 00-3.45-6.084z" fill="#ffdeb2"/><path data-name="パス 3551" d="M14157.028 4000.109l.231.136.742 1.315 2.619 16.249a.293.293 0 00.439.21l5.8-3.462-.578-2.346.443.775c.649 1.133 1.746 1.239 1.746.167v-.5l3.149 3.6 7.213-4.3a1.627 1.627 0 00.389-.232 2.646 2.646 0 00.807-2.137v-23.247z" fill="#a33b10"/><path data-name="パス 3552" d="M14169.257 3984.239l-36.61-21.536c-1.9-1.119-3.446-.212-3.446 2.028v23.618a7.794 7.794 0 003.446 6.083l18.979 11.164a7.988 7.988 0 012.714 2.906l5.057 8.838c.649 1.133 1.746 1.239 1.746.167v-4.726c0-.876.6-1.231 1.349-.793l6.765 3.98c1.9 1.12 3.447.213 3.447-2.028v-23.62a7.794 7.794 0 00-3.447-6.081z" fill="#ffaf40"/><path data-name="パス 3553" d="M14144.131 3979.414v14.2c0 1.494 1.357 3.243 2.474 3.188l11.126-.554c1.17-.058 1.17-2.032 0-3.465l-11.126-13.646c-1.117-1.369-2.474-1.217-2.474.277z" fill="#fff"/></g><g data-name="グループ 2341"><path data-name="パス 3567" d="M14112.898 4102.619l-.109-38.782h-30.356l.1 38.5a1.263 1.263 0 000 .283 2.271 2.271 0 001.24 1.539l11.326 6.663a5.586 5.586 0 005.109.216l11.82-6.953a1.493 1.493 0 00.87-1.466z" fill="#f66"/><path data-name="パス 3568" d="M14097.624 4072.864v38.695a4.368 4.368 0 002.395-.42c2.885-1.482 9.022-5.3 12.006-7.053a1.573 1.573 0 00.873-1.465c.174-5.1-.078-38.428-.078-38.428l-13.722 8.677z" fill="#a31074"/><path data-name="パス 3569" d="M14111.936 4065.398l-11.82 6.952a5.583 5.583 0 01-5.11-.216l-11.326-6.662c-1.512-.889-1.676-2.235-.367-3.006l11.82-6.953a5.586 5.586 0 015.109.216l11.326 6.663c1.513.89 1.677 2.235.368 3.006z" fill="#ffc9c9"/><g data-name="グループ 2339"><path data-name="パス 3570" d="M14096.871 4063.265l.595-4.28c-.015.008-.032.014-.046.023l-7.77 4.57a1.339 1.339 0 00-.183.131z" fill="#f66"/></g><g data-name="グループ 2340"><path data-name="パス 3571" d="M14098.475 4064.189l-9.011.538a1.042 1.042 0 00.11.08l6.262 3.683a2.275 2.275 0 002.091-.045l7.77-4.571c.6-.352.633-.9.076-1.23l-6.261-3.684a1.516 1.516 0 00-.292-.126z" fill="#f66"/></g></g><g data-name="グループ 2344"><path data-name="パス 3572" d="M14092.667 4115.131l-.109-21.314h-30.356l.1 21.03a1.263 1.263 0 000 .283 2.268 2.268 0 001.239 1.539l11.326 6.663a5.588 5.588 0 005.11.216l11.819-6.953a1.493 1.493 0 00.871-1.464z" fill="#ffaf40"/><path data-name="パス 3573" d="M14077.393 4102.843v21.227a4.365 4.365 0 002.394-.42c2.885-1.482 9.023-5.3 12.006-7.053a1.573 1.573 0 00.873-1.465c.174-5.1-.078-20.959-.078-20.959l-13.722 8.676z" fill="#a33b10"/><path data-name="パス 3574" d="M14091.705 4095.377l-11.82 6.952a5.581 5.581 0 01-5.109-.216l-11.327-6.662c-1.512-.889-1.676-2.235-.366-3.006l11.819-6.953a5.588 5.588 0 015.11.216l11.326 6.663c1.512.89 1.676 2.235.367 3.006z" fill="#ffdeb2"/><g data-name="グループ 2342"><path data-name="パス 3575" d="M14072.407 4091.9c-2.782 1.637-2.782 4.29 0 5.927a10.949 10.949 0 0010.075 0c2.783-1.637 2.783-4.29 0-5.927l-5.037 2.963z" fill="#ffaf40"/></g><g data-name="グループ 2343"><path data-name="パス 3576" d="M14072.401 4090.654l5.038 2.964 5.038-2.964a10.951 10.951 0 00-10.076 0z" fill="#ffaf40"/></g></g><g data-name="グループ 2348"><path data-name="パス 3583" d="M14117.919 3937.672c0-10.02-7.375-22.352-16.086-26.343-3.231-1.48-5.9-1.622-8.146-.373l-.271.14-.01.006c-.02.011-.038.024-.058.034l-7.074 4.232a.653.653 0 00-.189.94l2.97 4.1c-.1 7.17 3.63 15.576 8.966 21.282v6.028c0 1.123 1.129 2.381 1.84 2.052l4.758-2.2 1.721 3.131a.686.686 0 00.952.265l6.336-3.753v-.01c2.646-1.518 4.291-4.81 4.291-9.531z" fill="#ffc9c9"/><g data-name="グループ 2347" fill="#a31074"><path data-name="パス 3584" d="M14098.022 3942.941v4.776c0 1.122 1.129 2.381 1.84 2.052l4.758-2.2 1.721 3.131a.686.686 0 00.952.265l6.336-3.753v-.011c2.645-1.518 4.29-4.81 4.29-9.531a25.459 25.459 0 00-1-6.814z"/><path data-name="パス 3585" d="M14092.471 3911.661l-6.2 3.707a.639.639 0 00-.3.447z"/></g><path data-name="パス 3586" d="M14110.955 3941.797c0-10.021-7.374-22.352-16.087-26.343-6.49-2.973-11.813.015-12.663 7.131-.9 7.545 3.025 17 8.851 23.229v6.028c0 1.123 1.129 2.381 1.841 2.053l5.635-2.6c7.017 2.968 12.423-.923 12.423-9.498z" fill="#f66"/><path data-name="パス 3587" d="M14089.27 3928.037c-.155-4.382 5.456-2.2 6.932 2.363 1.48-2.922 7.141.517 6.95 5.343-.137 3.469-6.232 6.154-6.916 6.444 0 0-.024.03-.034.014-.011 0-.034-.053-.034-.053-.685-1.05-6.767-10.499-6.898-14.111z" fill="#fff"/></g><g data-name="グループ 2350"><path data-name="パス 3588" d="M14090.129 4030.169l-5.5 3.332.485 2.1 5.016-3.146z" fill="#fff"/><path data-name="パス 3589" d="M14077.842 4015.018l-3.487-19.132a8.919 8.919 0 00-6.619.264v-.006l-.175.095c-.087.046-.174.09-.259.14l-3.143 1.7.36 1.2a10.261 10.261 0 00-.656 1.361c-2.894 7.383 1.021 19.81 8.743 27.758 3.917 4.031 8.06 6.131 11.571 6.262l.715.911 2.853-1.566a7.03 7.03 0 00.975-.535h.008a8.362 8.362 0 003.1-4.045 13.767 13.767 0 00.808-3.286z" fill="#ffc9c9"/><path data-name="パス 3590" d="M14070.933 3997.736l3.423-1.853 3.487 19.134-3.423 1.853z" fill="#a31074"/><path data-name="パス 3591" d="M14089.21 4027.973l3.423-1.853-14.79-11.1-3.423 1.847z" fill="#ffc9c9"/><path data-name="パス 3592" d="M14095.361 4020.315a32.609 32.609 0 00-3.727-12.07 35.48 35.48 0 00-5.883-8.192 21.321 21.321 0 00-8.726-5.766l-3.423 1.853 3.423 7.723 2.411 3.655 1.055 5.788a.09.09 0 00.126.067l.027-.013a.067.067 0 000 .119h-.008a.014.014 0 00-.014.025l5.477 4.112 5.781 8.762 3.422-1.853a19.944 19.944 0 00.059-4.21z" fill="#c9d8ff"/><path data-name="パス 3593" d="M14093.847 4013.399l-8.77 3.449 1.021.767 5.781 8.762 3.423-1.853a20 20 0 00.059-4.209 29.5 29.5 0 00-1.514-6.916z" fill="#0f3299"/><g data-name="グループ 2349" fill="#668cff"><path data-name="パス 3594" d="M14082.329 4001.906a21.3 21.3 0 00-8.727-5.761l3.466 19.018a.09.09 0 00.126.067l.027-.013a.069.069 0 000 .124l14.716 6.832a32.608 32.608 0 00-3.727-12.071 35.459 35.459 0 00-5.881-8.196z"/><path data-name="パス 3595" d="M14091.938 4022.168l-14.726-6.837a.014.014 0 00-.014.024l14.682 11.022a20.009 20.009 0 00.058-4.209z"/></g><path data-name="パス 3596" d="M14084.174 4034.651l.715.911 2.854-1.566a7.024 7.024 0 00.975-.535h.008a8.362 8.362 0 003.1-4.045 13.759 13.759 0 00.808-3.286l-13.228 7.286a12.573 12.573 0 004.768 1.235z" fill="#a31074"/><path data-name="パス 3597" d="M14074.42 4016.87l-3.488-19.134c-4.655-1.418-8.688.134-10.5 4.744-2.894 7.384 1.021 19.81 8.743 27.758s16.328 8.4 19.222 1.021a13.727 13.727 0 00.808-3.286z" fill="#f66"/></g><g data-name="グループ 2365"><path data-name="パス 3342" d="M13806.507 4058.251v-6.025l98.243-1.937v5.205a2.491 2.491 0 01-1.427 2.961l-44.57 26.359c-2.308 1.365-6.365 1.239-9.062-.281l-40.957-23.077c-1.605-.906-2.359-2.099-2.227-3.205z" fill="#ff7038"/><g data-name="グループ 2326"><path data-name="パス 3526" d="M13836.721 4077.405l4.4-2.539 4.983 2.8-7.334 9.092a.133.133 0 01-.169.033l-4.884-2.742v-1.432a6.015 6.015 0 013.004-5.212z" fill="#ffd8c9"/><path data-name="パス 3527" d="M13838.831 4086.766l7.27-4.2v-4.9l-4.4 2.539a6.016 6.016 0 00-3.008 5.209v1.276a.09.09 0 00.138.076z" fill="#a31010"/></g><g data-name="グループ 2327"><path data-name="パス 3528" d="M13823.283 4069.376l4.4-2.539 4.983 2.8-7.337 9.091a.133.133 0 01-.169.033l-4.884-2.742v-1.432a6.015 6.015 0 013.007-5.211z" fill="#ffd8c9"/><path data-name="パス 3529" d="M13825.393 4078.737l7.27-4.2v-4.9l-4.4 2.539a6.017 6.017 0 00-3.008 5.209v1.276a.09.09 0 00.138.076z" fill="#a31010"/></g><g data-name="グループ 2328"><path data-name="パス 3530" d="M13809.846 4061.348l4.4-2.539 4.983 2.8-7.334 9.092a.133.133 0 01-.169.033l-4.884-2.743v-1.432a6.017 6.017 0 013.004-5.211z" fill="#ffd8c9"/><path data-name="パス 3531" d="M13811.956 4070.709l7.27-4.2v-4.9l-4.4 2.539a6.017 6.017 0 00-3.008 5.21v1.275a.09.09 0 00.138.076z" fill="#a31010"/></g><path data-name="パス 3532" d="M13904.749 4055.494v-5.205l-49.7.98v34.47a7.885 7.885 0 003.7-.924l44.57-26.359a2.49 2.49 0 001.43-2.962z" fill="#a31010"/><path data-name="パス 3533" d="M13858.753 4078.241l44.57-26.359c2.308-1.364 1.992-3.7-.7-5.222l-40.962-23.079c-2.7-1.52-6.754-1.646-9.061-.281l-44.571 26.359c-2.307 1.365-1.992 3.7.7 5.223l40.957 23.078c2.702 1.52 6.759 1.646 9.067.281z" fill="#ffd8c9"/><g data-name="グループ 2329"><path data-name="パス 3534" d="M13874.338 4076.013l-4.4-2.539-4.983 2.8 7.334 9.092a.134.134 0 00.17.033l4.883-2.742v-1.43a6.015 6.015 0 00-3.004-5.214z" fill="#ffd8c9"/><path data-name="パス 3535" d="M13872.229 4085.374l-7.271-4.2v-4.9l4.4 2.539a6.015 6.015 0 013.008 5.21v1.275a.089.089 0 01-.137.076z" fill="#ff7038"/></g><g data-name="グループ 2330"><path data-name="パス 3536" d="M13887.776 4067.984l-4.4-2.539-4.983 2.8 7.334 9.092a.134.134 0 00.17.033l4.883-2.742v-1.432a6.015 6.015 0 00-3.004-5.212z" fill="#ffd8c9"/><path data-name="パス 3537" d="M13885.667 4077.345l-7.271-4.2v-4.9l4.4 2.539a6.015 6.015 0 013.008 5.21v1.275a.09.09 0 01-.137.076z" fill="#ff7038"/></g><g data-name="グループ 2331"><path data-name="パス 3538" d="M13901.214 4059.956l-4.4-2.539-4.983 2.8 7.334 9.091a.133.133 0 00.17.033l4.883-2.743v-1.431a6.015 6.015 0 00-3.004-5.211z" fill="#ffd8c9"/><path data-name="パス 3539" d="M13899.105 4069.318l-7.271-4.2v-4.9l4.4 2.538a6.015 6.015 0 013.008 5.21v1.275a.09.09 0 01-.137.077z" fill="#ff7038"/></g><g data-name="グループ 2352"><path data-name="パス 3599" d="M13860.833 4038.366c0 .01-.005.021-.008.03a.961.961 0 01-.1.2c-.009.014-.017.027-.027.04a1.289 1.289 0 01-.175.2 1.78 1.78 0 01-.271.2c-.45.278-.908.551-1.366.826-.272.162-.544.325-.818.486l-1 .578c-.275.158-.55.316-.827.472q-.509.287-1.024.57c-.278.154-.556.308-.837.46q-.524.284-1.055.563c-.279.148-.556.3-.837.443-.366.19-.736.378-1.106.566-.273.14-.546.28-.822.418-.39.2-.785.388-1.18.58-.26.127-.518.255-.779.381-.44.211-.885.418-1.33.626-.222.1-.442.21-.665.313q-1 .463-2.026.914a3.85 3.85 0 01-.311.115 3.3 3.3 0 01-.425.107 3.153 3.153 0 01-.379.041c-.051.002-.09 0-.134 0l-.006 2.339h.134a3.015 3.015 0 00.379-.041 3.324 3.324 0 00.425-.107c.1-.033.2-.071.311-.116q1.021-.451 2.026-.914c.225-.1.446-.21.669-.315.444-.207.887-.414 1.325-.624.264-.127.524-.256.786-.384.393-.192.785-.383 1.173-.577.278-.139.551-.28.827-.42.368-.188.736-.374 1.1-.564.281-.147.559-.295.838-.443.354-.188.706-.374 1.056-.564.28-.152.557-.305.834-.458q.515-.285 1.025-.571c.278-.157.553-.315.828-.473q.5-.287.994-.576c.275-.162.548-.324.82-.488.176-.105.355-.209.531-.315q.418-.254.833-.51a1.777 1.777 0 00.271-.2 1.262 1.262 0 00.143-.153c.013-.017.021-.033.033-.049l.027-.04c.009-.014.022-.03.031-.046a.84.84 0 00.061-.13c0-.009 0-.018.008-.027s.006-.021.009-.03.015-.048.02-.071a.856.856 0 00.015-.131v-.021l.007-2.339a.808.808 0 01-.031.229z" fill="#fff"/><path data-name="パス 3600" d="M13843.218 4047.499c-.037 0-.073-.007-.109-.012a1.802 1.802 0 01-.214-.045 1.459 1.459 0 01-.122-.041 1.08 1.08 0 01-.144-.069.6.6 0 01-.339-.513l-.007 2.339a.6.6 0 00.339.513 1.088 1.088 0 00.144.069c.04.015.08.029.123.042s.071.018.107.026.07.014.106.018.072.009.109.012l.117.007.006-2.339z" fill="#ff7038"/><path data-name="パス 3601" d="M13842.629 4047.331c-.442-.255-.489-.748.086-1.183 1.113-.851 11.3-7.729 12.051-8.136-.947-.842-2.555-2.289-3.359-3.083-.881-.864.6-1.6 1.868-1.094.619.247 6.2 3 6.754 3.275l.117.059.048.027c.873.5.908 1.324.058 1.848a129.508 129.508 0 01-15.667 8.2 2.3 2.3 0 01-1.956.087z" fill="#fff"/><path data-name="パス 3602" d="M13869.143 4043.34a123.882 123.882 0 01-22.739 14.291 2.4 2.4 0 01-.287.154 3.508 3.508 0 01-2.9-.114 1.962 1.962 0 01-.2-.135 76.072 76.072 0 01-8.174-5.689.552.552 0 01-.013-.994 2.063 2.063 0 011.88-.1c.85.38 4.46 2.107 7.871 3.755 3.327-2.1 21.527-11.776 22.69-12.264a2.43 2.43 0 012.032-.147c.421.246.439.744-.16 1.243z" fill="#fff"/><path data-name="パス 3603" d="M13869.582 4042.741l-.009.032a.857.857 0 01-.075.166l-.024.036a1.336 1.336 0 01-.1.134c-.025.03-.055.06-.084.09a1.881 1.881 0 01-.147.141c-.747.6-1.513 1.193-2.288 1.782l-.358.272q-1.115.838-2.268 1.66l-.441.312q-1.167.824-2.367 1.63l-.331.218q-1.21.8-2.454 1.59l-.163.1c-.781.49-1.577.971-2.379 1.451-.346.207-.7.413-1.047.618q-.876.513-1.769 1.016c-.351.2-.7.4-1.056.592-.643.355-1.294.706-1.948 1.054-.31.165-.617.332-.929.5q-1.453.759-2.939 1.5a2.4 2.4 0 01-.287.154 2.683 2.683 0 01-.261.1 3.336 3.336 0 01-.413.1 4.03 4.03 0 01-.531.056c-.082.003-.151 0-.227 0l-.007 2.339h.227a4.29 4.29 0 00.531-.057 3.325 3.325 0 00.414-.1 2.68 2.68 0 00.26-.1 2.457 2.457 0 00.255-.134l.033-.02q1.489-.736 2.938-1.5c.314-.163.62-.33.931-.5q.981-.522 1.947-1.053c.355-.2.7-.394 1.056-.592q.892-.5 1.768-1.015.527-.309 1.049-.619c.212-.127.429-.251.64-.378q.877-.532 1.737-1.072l.167-.106q1.244-.784 2.451-1.587l.331-.219q1.2-.805 2.367-1.629l.442-.314q1.152-.82 2.267-1.659c.121-.09.238-.182.358-.273.775-.588 1.54-1.18 2.288-1.781.03-.025.058-.049.084-.074s.04-.045.062-.067.059-.06.084-.09l.031-.033a1.112 1.112 0 00.068-.1l.025-.036.007-.011a.9.9 0 00.058-.125c0-.01.005-.02.009-.03l.009-.032c0-.015.011-.031.014-.046a.642.642 0 00.011-.1v-.014l.007-2.339a.6.6 0 01-.024.162z" fill="#a31010"/><path data-name="パス 3604" d="M13844.468 4058.034a3.752 3.752 0 01-.435-.062 2.848 2.848 0 01-.234-.058 2.647 2.647 0 01-.267-.09 2.211 2.211 0 01-.314-.15 1.931 1.931 0 01-.2-.135 76.082 76.082 0 01-8.174-5.689.622.622 0 01-.318-.5l-.007 2.339a.623.623 0 00.318.5 76.065 76.065 0 008.174 5.689 1.932 1.932 0 00.2.135 2.362 2.362 0 00.314.151 3.096 3.096 0 00.72.186 3.241 3.241 0 00.435.035l.007-2.339c-.073-.004-.147-.012-.219-.012z" fill="#ff7038"/><path data-name="パス 3605" d="M13878.121 4048.556a94.677 94.677 0 01-24.027 14.061 2.387 2.387 0 01-1.989.089c-.44-.254-.476-.744.113-1.185a130.756 130.756 0 0124.022-14.058 2.159 2.159 0 011.842-.023c.431.248.535.697.039 1.116z" fill="#fff"/><path data-name="パス 3606" d="M13878.433 4048.107l-.008.029a.641.641 0 01-.05.12l-.005.011a.875.875 0 01-.09.129.978.978 0 01-.055.058 1.21 1.21 0 01-.1.1 82.113 82.113 0 01-9.77 6.9 105.758 105.758 0 01-14.257 7.166 3.36 3.36 0 01-.284.1 3.671 3.671 0 01-.455.115 2.925 2.925 0 01-.4.043h-.139l-.007 2.339h.139a2.925 2.925 0 00.4-.043 3.5 3.5 0 00.455-.115 6.48 6.48 0 00.284-.1 105.76 105.76 0 0014.257-7.166 82.112 82.112 0 009.771-6.9l.047-.042c.022-.02.038-.041.057-.061s.038-.039.054-.059a.163.163 0 00.015-.017.851.851 0 00.074-.109v-.009a.714.714 0 00.039-.086c0-.012.007-.024.011-.036l.008-.027c0-.009.005-.018.008-.027a.583.583 0 00.01-.088v-.013l.007-2.339a.525.525 0 01-.016.127z" fill="#a31010"/><path data-name="パス 3607" d="M13852.695 4062.874c-.038 0-.075-.008-.111-.013a1.836 1.836 0 01-.216-.045 1.593 1.593 0 01-.122-.041 1.128 1.128 0 01-.143-.068.582.582 0 01-.33-.5l-.007 2.339a.582.582 0 00.33.5 1.134 1.134 0 00.142.068 1.341 1.341 0 00.23.068 1.417 1.417 0 00.219.031c.039.003.079.005.12.006l.007-2.339a2.43 2.43 0 01-.119-.006z" fill="#ff7038"/><path data-name="パス 3608" d="M13860.833 4038.366c0 .01-.005.021-.008.03a.961.961 0 01-.1.2c-.009.014-.017.027-.027.04a1.289 1.289 0 01-.175.2 1.78 1.78 0 01-.271.2c-.45.278-.908.551-1.366.826-.272.162-.544.325-.818.486l-1 .578c-.275.158-.55.316-.827.472q-.509.287-1.024.57c-.278.154-.556.308-.837.46q-.524.284-1.055.563c-.279.148-.556.3-.837.443-.366.19-.736.378-1.106.566-.273.14-.546.28-.822.418-.39.2-.785.388-1.18.58-.26.127-.518.255-.779.381-.44.211-.885.418-1.33.626-.222.1-.442.21-.665.313q-1 .463-2.026.914a3.85 3.85 0 01-.311.115 3.3 3.3 0 01-.425.107 3.153 3.153 0 01-.379.041c-.051.002-.09 0-.134 0l-.006 2.339h.134a3.015 3.015 0 00.379-.041 3.324 3.324 0 00.425-.107c.1-.033.2-.071.311-.116q1.021-.451 2.026-.914c.225-.1.446-.21.669-.315.444-.207.887-.414 1.325-.624.264-.127.524-.256.786-.384.393-.192.785-.383 1.173-.577.278-.139.551-.28.827-.42.368-.188.736-.374 1.1-.564.281-.147.559-.295.838-.443.354-.188.706-.374 1.056-.564.28-.152.557-.305.834-.458q.515-.285 1.025-.571c.278-.157.553-.315.828-.473q.5-.287.994-.576c.275-.162.548-.324.82-.488.176-.105.355-.209.531-.315q.418-.254.833-.51a1.777 1.777 0 00.271-.2 1.262 1.262 0 00.143-.153c.013-.017.021-.033.033-.049l.027-.04c.009-.014.022-.03.031-.046a.84.84 0 00.061-.13c0-.009 0-.018.008-.027s.006-.021.009-.03.015-.048.02-.071a.856.856 0 00.015-.131v-.021l.007-2.339a.808.808 0 01-.031.229z" fill="#a31010"/></g></g><g data-name="グループ 2362" transform="translate(13948.053 3808.368)"><path data-name="パス 3672" d="M60.144 179.918l-6.139-3.37 5.45-3.142 6.135 3.365z" fill="#d6d8e5" opacity=".4"/><path data-name="パス 3703" d="M62.901 178.432l4.054-2.313-4.855-5.092z" fill="#9ea2b2"/><path data-name="パス 3671" d="M27.135 160.486l-6.139-3.365 5.45-3.146 6.14 3.364z" fill="#d6d8e5" opacity=".4"/><path data-name="パス 3673" d="M29.532 159.071l-5.79-3.342 18.441-58.907 5.79 3.342z" fill="#b1b4c4"/><path data-name="パス 3674" d="M32.925 157.2l-5.79-3.342 18.441-58.907 5.785 3.342z" fill="#9ea2b2"/><path data-name="パス 3675" d="M29.532 159.071l-5.79-3.342 18.441-58.907 5.79 3.342z" fill="#b1b4c4"/><path data-name="パス 3676" d="M66.954 176.12l-5.832-3.37-7.964-74.15 5.79 3.347z" fill="#9ea2b2"/><path data-name="パス 3677" d="M62.904 178.433l-5.832-3.37-7.968-74.15 5.79 3.342z" fill="#b1b4c4"/><path data-name="パス 3678" d="M108.793 132.368L0 69.556l4.915-2.839 108.793 62.812z" fill="#d6d8e5"/><path data-name="パス 3679" d="M108.793 138.032L0 75.22v-5.678l108.793 62.812z" fill="#b1b4c4"/><path data-name="パス 3680" d="M106.591 128.109L6.404 70.264V0l100.187 57.845z" fill="#f4f4f4"/><path data-name="パス 3681" d="M113.787 135.151l-4.994 2.881v-5.767l4.994-2.881z" fill="#9ea2b2"/><path data-name="パス 3682" d="M22.081 20.935l-8.3-4.789v-3.193l8.3 4.789z" fill="#d6d8e5"/><path data-name="パス 3683" d="M40.209 31.403l-14.596-8.422v-3.2l14.6 8.429z" fill="#d6d8e5"/><path data-name="パス 3684" d="M22.081 26.968l-8.3-4.789v-3.193l8.3 4.789z" fill="#d6d8e5"/><path data-name="パス 3685" d="M40.209 37.436l-14.6-8.425v-3.2l14.6 8.429z" fill="#d6d8e5"/><path data-name="パス 3686" d="M22.081 33.889l-8.3-4.789v-3.2l8.3 4.794z" fill="#d6d8e5"/><path data-name="パス 3687" d="M40.209 44.357l-14.6-8.429v-3.193l14.6 8.429z" fill="#d6d8e5"/><path data-name="パス 3688" d="M22.081 40.81l-8.3-4.794v-3.193l8.3 4.789z" fill="#d6d8e5"/><path data-name="パス 3689" d="M40.209 51.278l-14.6-8.429v-3.193l14.6 8.429z" fill="#d6d8e5"/><path data-name="パス 3690" d="M50.99 38.73c1.839-2.374 5.12-2.755 8.89-.586.363.209.721.438 1.07.68l-1.047 11.385-8.946-11.428z" fill="#9acc12"/><path data-name="パス 3691" d="M69.64 51.566l-9.77-1.359 1.07-11.38a23.865 23.865 0 018.7 12.739z" fill="#e8bc05"/><path data-name="パス 3692" d="M70.329 56.244c0 5.12-2.793 7.913-6.689 7.405l-3.737-13.437 9.774 1.354a17.4 17.4 0 01.652 4.678z" fill="#ef6848"/><path data-name="パス 3693" d="M50.957 38.781a8.812 8.812 0 00-1.527 5.4c0 6.665 4.678 14.764 10.449 18.1a10.324 10.324 0 003.756 1.368l-3.733-13.435-8.89-11.478z" fill="#be4aed"/><path data-name="パス 3694" d="M79.88 55.416c1.839-2.374 5.12-2.755 8.89-.591.363.209.717.438 1.071.684l-1.08 11.385-8.927-11.436z" fill="#543526"/><path data-name="パス 3695" d="M98.534 68.244l-9.774-1.35 1.071-11.385a23.861 23.861 0 018.703 12.735z" fill="#1b96ea"/><path data-name="パス 3696" d="M99.219 72.926c0 5.12-2.793 7.913-6.688 7.4L88.76 66.894l9.774 1.35a17.644 17.644 0 01.685 4.682z" fill="#ff5050"/><path data-name="パス 3697" d="M79.842 55.456a8.852 8.852 0 00-1.522 5.4c0 6.665 4.678 14.769 10.449 18.1a10.24 10.24 0 003.756 1.364L88.76 66.892l-8.89-11.478z" fill="#32cec3"/><path data-name="パス 3698" d="M50.957 88.71s7.079-13.5 25.06 3.724 22.518 3.863 22.518 3.863" fill="none" stroke="#d6d8e5" stroke-miterlimit="10" stroke-width="1.42"/><ellipse data-name="楕円形 355" cx="1.224" cy="2.118" rx="1.224" ry="2.118" transform="rotate(-30 188.721 -77.706)" fill="#d6d8e5"/><ellipse data-name="楕円形 356" cx="1.224" cy="2.118" rx="1.224" ry="2.118" transform="rotate(-30 182.318 -53.994)" fill="#d6d8e5"/><ellipse data-name="楕円形 357" cx="1.228" cy="2.125" rx="1.228" ry="2.125" transform="rotate(-29.887 216.446 -99.586)" fill="#d6d8e5"/><ellipse data-name="楕円形 358" cx="1.224" cy="2.118" rx="1.224" ry="2.118" transform="rotate(-30 231.064 -124.15)" fill="#d6d8e5"/><path data-name="パス 3699" d="M16.621 69.51l-2.839-1.642v-9.85l2.839 1.643z" fill="#d6d8e5"/><path data-name="パス 3700" d="M24.487 74.047l-2.844-1.643V59.097l2.844 1.643z" fill="#d6d8e5"/><path data-name="パス 3701" d="M32.348 78.586l-2.844-1.638V57.874l2.844 1.638z" fill="#d6d8e5"/><path data-name="パス 3702" d="M40.209 83.119l-2.844-1.638V57.799l2.844 1.638z" fill="#d6d8e5"/><path data-name="パス 3704" d="M29.532 159.07l3.393-1.871-1.3-4.8z" fill="#9ea2b2"/></g><g transform="translate(13920.7 3907.824)"><ellipse data-name="楕円形 395" cx="19.013" cy="10.975" rx="19.013" ry="10.975" transform="translate(0 97.161)" fill="#d6d8e5" opacity=".4"/><path data-name="&lt;Контур&gt;" d="M5.07 25.931c-.214 1.847-2.414 9.815-1.941 12.547s8 7.3 8 7.3l1.044-4.677L8 37.016l1.127-7.742z" fill="#ffcea9"/><path data-name="&lt;Контур&gt;" d="M10.892 18.074a3.3 3.3 0 00-4.19 1.27c-1.1 1.836-2.26 8.126-2.364 9.2a4.444 4.444 0 003.887 1.787z" fill="#ededed"/><path data-name="パス 4271" d="M19.492 106.932a6.455 6.455 0 004.871-.588c1.177.038 7.549-2.689 8.412-.4.759 2.007-2 3.849-3.475 4.223-3.216.775-5.6 2.381-6.889 2.656a3.27 3.27 0 01-2.98-.423c-.918-.91-.841-4.286.061-5.468z" fill="#2b2a30"/><path data-name="パス 4272" d="M22.411 112.264c1.292-.275 3.673-1.88 6.889-2.656 1.237-.3 3.365-1.649 3.579-3.266.286 1.847-2.2 3.486-3.579 3.849-3.216.775-5.6 2.381-6.889 2.656a3.271 3.271 0 01-2.98-.423 1.837 1.837 0 01-.418-.764 3.849 3.849 0 003.4.6z" fill="#bf4b4b"/><path data-name="パス 4273" d="M9.16 102.292a6.455 6.455 0 004.871-.588c1.171.038 7.544-2.689 8.412-.4.759 2.007-2 3.849-3.475 4.223-3.217.781-5.6 2.381-6.895 2.656a3.257 3.257 0 01-2.975-.423c-.923-.91-.851-4.27.062-5.468z" fill="#2b2a30"/><path data-name="パス 4274" d="M12.096 107.625c1.292-.275 3.678-1.88 6.895-2.656 1.232-.3 3.365-1.649 3.579-3.266.286 1.847-2.2 3.486-3.579 3.849-3.216.781-5.6 2.381-6.895 2.656a3.257 3.257 0 01-2.975-.423 1.908 1.908 0 01-.423-.764 3.849 3.849 0 003.4.6z" fill="#bf4b4b"/><path data-name="&lt;Контур&gt;" d="M9.033 84.979a38.489 38.489 0 011.468-6.977s-.434-6.021-.654-11.733c-.253-6.477-2.5-12.179-.726-17.353l20.019 4.448s-1.21 25.842-1.479 28.96a58.2 58.2 0 01-.9 7.252c-.913 5.014-2.4 16.94-2.4 16.94a7.448 7.448 0 01-4.888.55s.154-15.087.291-18.694c.165-4.4.3-4.074.3-4.074l-.66-11-.429-5.465s-.55 4.014-.913 7.6c-.319 3.123-1.1 5.949-1.913 11.766-.731 5.047-1.919 15.186-1.919 15.186-2.111 1.226-4.981.209-4.981.209s-.787-13.235-.216-17.615z" fill="#e26161"/><path data-name="&lt;Контур&gt;" d="M11.953 18.184c1.523.077 2.656.467 2.843 0a19.987 19.987 0 00.352-2.381c-.176-.445-.33-.918-.33-.918-1.908-1.177-2.513-3.244-2.749-5.647-.429-4.113 1.792-7.7 5.905-8.143 3.849-.407 6.713 2.315 7.472 6.048.407 1.842 1.221 5.322.121 8.352-.616 1.693-1.408 3.041-2.2 3.3a20.16 20.16 0 01-2.287-.2s-.2 1.138-.346 1.875-.082 1.1 1.375 2.018-2.2 2.749-4.6 2.568-5.091-1.649-5.834-3.178c-.838-1.71-.765-3.744.278-3.694z" fill="#ffcea9"/><path data-name="&lt;Контур&gt;" d="M14.153 18.409c-.418 1.056.654 2.342 3.513 3.238s3.118-.258 3.118-.258a56.841 56.841 0 015.553 2.865c1.721 1.2 2.48 4.674 2.711 10.535.269 6.779.291 16.841.066 18.579 0 0-3.206 3.195-7.313 2.859s-11-3.97-12.685-6.774c.044-5.949.742-6.917-.22-10.342-2.2-7.841-3.365-11.052-2.3-16.264.885-4.294 2.122-4.828 3.849-4.789a35.9 35.9 0 013.706.352z" fill="#f4f4f4"/><path data-name="&lt;Контур&gt;" d="M35.497 40.397c-3.365.847-4.157-1.276-4.6-3.035-1.067-4.261-1.649-8.1-2.447-10.524-.94-2.848-1.924-3.3-3.3-3.849-1.649-.649-3.024.726-2.485 4.355a73.536 73.536 0 003.085 12.382c.423 1.325 1.364 3.678 2.749 4.817 1.737 1.408 4.355 1.347 8.313.363 1.688-.423 3.541-1.43 6.735-2.92.869-.4 1.54-.676 3.189-1.446a11.232 11.232 0 004.223-3.3c.863-1.248.709-2.045.55-2.326s-.346-.072-.808.451a9.116 9.116 0 01-2.425 2.243s1.067-1.1 1.649-1.814a9.193 9.193 0 001.276-2.078c.3-.731-.324-1.721-.8-1.2s-.7 1.045-1.573 2.089a9.236 9.236 0 01-1.589 1.479 16.853 16.853 0 001.435-2.315c.55-1.127-1.292-.55-2.348.55-.77.8-1.424 1.259-1.446 1.039s-1.518 1.391-2.282 2.2-3.896 2.03-7.101 2.839z" fill="#ffcea9"/><path data-name="&lt;Контур&gt;" d="M23.89 22.401c2.249-.335 3.849.676 4.833 4.085s1.688 6.208 1.688 6.208a6.114 6.114 0 01-3.766 2.5c-2.694.649-3.662-.632-3.662-.632s-.748-3.574-1.21-6-.665-5.754 2.117-6.161z" fill="#ededed"/><path data-name="パス 4275" d="M25.293 6.616s3.552-5.4-4.146-6.5c-5.553-.792-9.122 2.777-9.534 6.647-.4 3.7 1.88 7.538 3.53 9.067a6.686 6.686 0 004.8-.583 27.491 27.491 0 00.1-3.03s-2.701-5.7 5.25-5.601z" fill="#2b2a30"/></g><g transform="translate(14006.619 3899.718)"><ellipse data-name="楕円形 386" cx="19.587" cy="11.308" rx="19.587" ry="11.308" transform="translate(0 95.656)" fill="#d6d8e5" opacity=".4"/><path data-name="&lt;Контур&gt;" d="M18.724 1.22c.786-1.26 6.785-2.089 8.762 3 .742 1.925.63 6.854 1.26 9.944s2.1 4.851 2.59 7.363-.328 6.716-6.379 7.467-10.7-1.381-12.137-3.315-1.459-6.043 0-8.227 2.59-4 2.59-6.906z" fill="#3a2c6d"/><path data-name="パス 4118" d="M11.541 22.488s-1.424 10.074 1.269 17.161 1.942-1.839 1.942-1.839l-.647-2.124s-.535-8.2-.311-10.212.173-3.738.311-3.9-.527-.483-.811-.527-1.753 1.441-1.753 1.441z" fill="#ffcea9"/><path data-name="&lt;Контур&gt;" d="M22.686.347s-4.515-1.3-7.251 1.139a6.707 6.707 0 00-1.934 6.69c.363 1.424 1.1 3.375 2.227 3.453S22.686.347 22.686.347z" fill="#3a2c6d"/><path data-name="&lt;Контур&gt;" d="M24.411 12.709s-.293 5.033-.2 5.4 1.968.725 2.5 1.165-2.736 5.542-4.4 6.3-6.8-1.174-7.156-3.738c-.328-2.348 1.468-4.178 2.167-4.817a10.705 10.705 0 011.416 0l.147-2.434a360.535 360.535 0 015.526-1.876z" fill="#ffcea9"/><path data-name="&lt;Контур&gt;" d="M25.103 18.553c1.416.224 3.03.975 3.254 1.726a16.686 16.686 0 01-.406 8.4c-1.226 3.237-2.046 5.3-2.754 6.7 0 0-6.12 2.59-11.049-.44 0 0-.345-3.453-.363-5.326-4.558-3.971-.665-8.874 3.194-12.681a9.368 9.368 0 011.39 0s-3.453 4.074-1.044 6.388c5.119-1.547 6.138-3.844 7.778-4.767z" fill="#f4f4f4"/><path data-name="&lt;Контур&gt;" d="M15.011 6.425c.509-3.237 2.84-5.68 6.181-5.481a6.414 6.414 0 013.22 11.766 6.509 6.509 0 01-.509 1.407c-1.183 1.381-4.316 2.253-5.361 2.262-.863 0-1.666-.82-2.5-2.21a11.184 11.184 0 01-1.031-7.744z" fill="#ffcea9"/><path data-name="パス 4119" d="M22.223 1.003c2.339.457 4.264 1.114 4.9 3.41.432 1.588 1 4.6.458 5.87l-.328.924-2.84 1.5s-1.321-1.1-.906-4.316a2.417 2.417 0 00-.4-1.226 3.557 3.557 0 01-.4-.975 3.669 3.669 0 00-1.83-1.985 6.322 6.322 0 00-5.628.268 6.138 6.138 0 016.966-3.47z" fill="#3a2c6d"/><path data-name="&lt;Контур&gt;" d="M28.521 42.058c.527-3.28 1.511-5.4 1.053-7.208a65.483 65.483 0 00-3.988-10.618c-1.036-2.037-.717-3.453.354-4.264 1.209-.863 2.357-.509 3.453 1.727a35.51 35.51 0 013.66 9.987 22.253 22.253 0 01-.1 8.261c-.466 2.944-1.4 4.6-2.512 7.363-.315.795-2.369-2.451-1.92-5.248z" fill="#ffcea9"/><path data-name="パス 4120" d="M26.475 103.2c-1.183.958-3.03.293-3.116.38a47.9 47.9 0 01-4.316 3.315c-.742.578-1.891 1.355-1.683 2.477.371 1.994 3.565 1.381 4.774.768s2.184-1.623 3.323-2.331c.82-.509 1.614-.768 1.726-1.8a6.414 6.414 0 00-.708-2.809z" fill="#38226d"/><path data-name="パス 4121" d="M27.165 105.6c-.155.984-.941 1.26-1.726 1.726-1.157.716-2.175 1.726-3.384 2.365s-3.893 1.122-4.67-.3c.423 1.925 3.565 1.321 4.756.716s2.184-1.623 3.323-2.331c.82-.509 1.614-.768 1.726-1.8a2.479 2.479 0 00-.026-.38z" fill="#9c73ff"/><path data-name="パス 4122" d="M18.162 101.534c-1.079.863-2.719.388-2.8.475a45.232 45.232 0 01-3.962 3.021c-.682.527-1.727 1.243-1.545 2.262.345 1.83 3.272 1.269 4.377.708s2-1.485 3.047-2.132c.742-.466 1.476-.708 1.6-1.649a6.245 6.245 0 00-.717-2.685z" fill="#38226d"/><path data-name="パス 4123" d="M18.853 103.839c-.147.906-.863 1.148-1.606 1.614-1.062.656-1.994 1.606-3.1 2.167s-3.565 1.027-4.316-.276c.388 1.726 3.263 1.208 4.316.656s2-1.485 3.047-2.132c.742-.466 1.476-.708 1.6-1.649a2.075 2.075 0 00.06-.38z" fill="#9c73ff"/><path data-name="パス 4124" d="M11.783 46.46c.527-4.083 2.029-10.013 2.029-10.013a12.085 12.085 0 004.532 1.131 37.586 37.586 0 006.845-.673 41.145 41.145 0 002.417 3.738c1.174 1.632 3.453 5.179 2.909 11.472-.354 4.083-2.65 21.443-2.65 21.443a32.343 32.343 0 011.407 9 72.5 72.5 0 01-1.433 10.782l-1.364 9.858s-1.821 1.312-3.116.38l.164-9.642a2248.24 2248.24 0 00-.544-8.063c-.242-3.617-.863-9.366-1.079-10.807s-.647-3.945-.863-6.759-1.278-17.092-1.278-17.092l-.147 2.676s-.147 4.316-.768 9.7-.863 7.769-.863 7.769a11.515 11.515 0 011.226 3.453c.112 1.157 1.433 10.359.639 14.986l-1.606 11.818a3.116 3.116 0 01-2.805.371l-.958-11.947c-.639-4.549-1.994-14.183-2.2-15.434a51.335 51.335 0 01-.811-7.639 164.1 164.1 0 01.317-20.508z" fill="#ffcea9"/><path data-name="パス 4125" d="M25.198 35.399l3.513 7.061s5.369 7.855-.19 28.037l1.044 6.224s-10.523 6.759-17.567 0c0 0-2.443-18.654-1.139-27.252a97.764 97.764 0 013.28-14.614s1.726 1.908 10.592.647" fill="#ff6200"/><path data-name="パス 4126" d="M31.508 25.7s-2.443 2.434-5.343 2.132l-1.39-4.765s-.863-2.477 1.208-3.565 4.308 1.347 5.525 6.198z" fill="#ededed"/><path data-name="パス 4127" d="M16.98 16.956s-2.8-.863-5.758 5.343l1.105.665a47.179 47.179 0 014.653-6.008z" fill="#ededed"/></g><g data-name="グループ 2322"><path data-name="パス 3506" d="M13850.025 4010.555c0-10.021-7.375-22.353-16.087-26.343-3.232-1.479-5.9-1.622-8.147-.373l-.271.14-.01.006-.058.034-7.074 4.232a.653.653 0 00-.189.94l2.97 4.1c-.1 7.17 3.631 15.575 8.966 21.281v6.028c0 1.122 1.129 2.381 1.841 2.052l4.757-2.2 1.721 3.131a.686.686 0 00.953.265l6.336-3.753v-.011c2.646-1.516 4.292-4.807 4.292-9.529z" fill="#c9d8ff"/><g data-name="グループ 2321" fill="#0f3299"><path data-name="パス 3507" d="M13830.127 4015.822v4.776c0 1.122 1.129 2.381 1.841 2.052l4.757-2.2 1.721 3.131a.686.686 0 00.953.265l6.336-3.753v-.011c2.645-1.518 4.29-4.809 4.29-9.531a25.5 25.5 0 00-1-6.814z"/><path data-name="パス 3508" d="M13824.577 3984.544l-6.2 3.708a.637.637 0 00-.3.447z"/></g><path data-name="パス 3509" d="M13843.061 4014.681c0-10.021-7.375-22.352-16.087-26.343-6.49-2.972-11.813.015-12.663 7.132-.9 7.544 3.025 17 8.852 23.229v6.028c0 1.123 1.129 2.382 1.841 2.053l5.635-2.6c7.016 2.967 12.422-.925 12.422-9.499z" fill="#6e96ff"/><path data-name="パス 3510" d="M13834.117 4015.517c.314.549.312 1.135 0 1.315a.58.58 0 01-.573-.057 1.618 1.618 0 01-.571-.6l-2.412-4.181a4.464 4.464 0 01-3.447-.656 12.6 12.6 0 01-5.713-9.889c.011-3.633 2.589-5.1 5.75-3.277a12.6 12.6 0 015.708 9.892 4.4 4.4 0 01-1.155 3.273zm-7-6.035c2.269 1.31 4.118.257 4.126-2.351a9.048 9.048 0 00-4.1-7.1c-2.269-1.31-4.122-.254-4.13 2.354a9.048 9.048 0 004.1 7.1" fill="#fff"/></g></g></svg>